<mxfile host="app.diagrams.net" agent="Mozilla/5.0 (X11; Linux x86_64) AppleWebKit/537.36 (KHTML, like Gecko) Chrome/141.0.0.0 Safari/537.36" version="28.2.5" pages="2">
  <diagram name="Page-1" id="QCz3hkkf5f0wmbPK92oR">
    <mxGraphModel dx="1134" dy="1602" grid="1" gridSize="10" guides="1" tooltips="1" connect="1" arrows="1" fold="1" page="1" pageScale="1" pageWidth="1700" pageHeight="1100" math="0" shadow="0">
      <root>
        <mxCell id="0" />
        <mxCell id="1" parent="0" />
        <mxCell id="goAQ-7LBnzfhG2BFl0lH-2" style="edgeStyle=orthogonalEdgeStyle;rounded=0;orthogonalLoop=1;jettySize=auto;html=1;exitX=0.75;exitY=1;exitDx=0;exitDy=0;entryX=0;entryY=0.5;entryDx=0;entryDy=0;" parent="1" source="goAQ-7LBnzfhG2BFl0lH-5" target="goAQ-7LBnzfhG2BFl0lH-51" edge="1">
          <mxGeometry relative="1" as="geometry">
            <mxPoint x="317" y="450" as="targetPoint" />
            <Array as="points">
              <mxPoint x="152" y="260" />
              <mxPoint x="180" y="260" />
              <mxPoint x="180" y="570" />
            </Array>
          </mxGeometry>
        </mxCell>
        <mxCell id="goAQ-7LBnzfhG2BFl0lH-3" style="edgeStyle=orthogonalEdgeStyle;rounded=0;orthogonalLoop=1;jettySize=auto;html=1;exitX=0.25;exitY=1;exitDx=0;exitDy=0;entryX=0;entryY=0.5;entryDx=0;entryDy=0;" parent="1" source="goAQ-7LBnzfhG2BFl0lH-5" target="goAQ-7LBnzfhG2BFl0lH-54" edge="1">
          <mxGeometry relative="1" as="geometry">
            <mxPoint x="400" y="610" as="targetPoint" />
            <Array as="points">
              <mxPoint x="71" y="850" />
            </Array>
          </mxGeometry>
        </mxCell>
        <mxCell id="goAQ-7LBnzfhG2BFl0lH-4" style="edgeStyle=orthogonalEdgeStyle;rounded=0;orthogonalLoop=1;jettySize=auto;html=1;exitX=0;exitY=0.75;exitDx=0;exitDy=0;entryX=0;entryY=0.5;entryDx=0;entryDy=0;" parent="1" source="goAQ-7LBnzfhG2BFl0lH-5" target="goAQ-7LBnzfhG2BFl0lH-57" edge="1">
          <mxGeometry relative="1" as="geometry">
            <Array as="points">
              <mxPoint x="20" y="207" />
              <mxPoint x="20" y="1100" />
            </Array>
            <mxPoint x="270" y="880" as="targetPoint" />
          </mxGeometry>
        </mxCell>
        <mxCell id="efjkp5trMqikf9gxRnkj-3" style="edgeStyle=orthogonalEdgeStyle;rounded=0;orthogonalLoop=1;jettySize=auto;html=1;exitX=1;exitY=1;exitDx=0;exitDy=0;entryX=0;entryY=0.5;entryDx=0;entryDy=0;fontSize=12;startSize=8;endSize=8;" parent="1" source="goAQ-7LBnzfhG2BFl0lH-5" target="goAQ-7LBnzfhG2BFl0lH-97" edge="1">
          <mxGeometry relative="1" as="geometry" />
        </mxCell>
        <mxCell id="sh82yEUyUhNnfkS9f2lk-45" style="edgeStyle=orthogonalEdgeStyle;rounded=0;orthogonalLoop=1;jettySize=auto;html=1;fontSize=12;startSize=8;endSize=8;exitX=0;exitY=0.5;exitDx=0;exitDy=0;entryX=0.5;entryY=1;entryDx=0;entryDy=0;" edge="1" parent="1" source="sh82yEUyUhNnfkS9f2lk-42" target="goAQ-7LBnzfhG2BFl0lH-5">
          <mxGeometry relative="1" as="geometry">
            <mxPoint x="136" y="620" as="sourcePoint" />
            <mxPoint x="111" y="360" as="targetPoint" />
          </mxGeometry>
        </mxCell>
        <mxCell id="goAQ-7LBnzfhG2BFl0lH-5" value="Pelanggan" style="rounded=0;whiteSpace=wrap;html=1;fontSize=17;" parent="1" vertex="1">
          <mxGeometry x="30" y="160" width="162" height="63" as="geometry" />
        </mxCell>
        <mxCell id="goAQ-7LBnzfhG2BFl0lH-6" style="edgeStyle=orthogonalEdgeStyle;rounded=0;orthogonalLoop=1;jettySize=auto;html=1;entryX=1;entryY=0.25;entryDx=0;entryDy=0;exitX=0;exitY=0.5;exitDx=0;exitDy=0;" parent="1" source="goAQ-7LBnzfhG2BFl0lH-8" target="goAQ-7LBnzfhG2BFl0lH-68" edge="1">
          <mxGeometry relative="1" as="geometry">
            <Array as="points">
              <mxPoint x="1240" y="539" />
            </Array>
          </mxGeometry>
        </mxCell>
        <mxCell id="goAQ-7LBnzfhG2BFl0lH-7" style="edgeStyle=orthogonalEdgeStyle;rounded=0;orthogonalLoop=1;jettySize=auto;html=1;exitX=1;exitY=0.5;exitDx=0;exitDy=0;entryX=1.009;entryY=0.466;entryDx=0;entryDy=0;entryPerimeter=0;" parent="1" source="goAQ-7LBnzfhG2BFl0lH-8" target="goAQ-7LBnzfhG2BFl0lH-72" edge="1">
          <mxGeometry relative="1" as="geometry">
            <mxPoint x="1400" y="810" as="targetPoint" />
            <Array as="points">
              <mxPoint x="1503" y="539" />
              <mxPoint x="1503" y="430" />
            </Array>
          </mxGeometry>
        </mxCell>
        <mxCell id="sh82yEUyUhNnfkS9f2lk-15" style="edgeStyle=orthogonalEdgeStyle;rounded=0;orthogonalLoop=1;jettySize=auto;html=1;exitX=0.25;exitY=1;exitDx=0;exitDy=0;entryX=1;entryY=0.5;entryDx=0;entryDy=0;fontSize=12;startSize=8;endSize=8;" edge="1" parent="1" source="goAQ-7LBnzfhG2BFl0lH-8" target="sh82yEUyUhNnfkS9f2lk-5">
          <mxGeometry relative="1" as="geometry" />
        </mxCell>
        <mxCell id="sh82yEUyUhNnfkS9f2lk-29" style="edgeStyle=orthogonalEdgeStyle;rounded=0;orthogonalLoop=1;jettySize=auto;html=1;exitX=1;exitY=1;exitDx=0;exitDy=0;entryX=0;entryY=0.75;entryDx=0;entryDy=0;fontSize=12;startSize=8;endSize=8;" edge="1" parent="1" source="goAQ-7LBnzfhG2BFl0lH-8" target="goAQ-7LBnzfhG2BFl0lH-80">
          <mxGeometry relative="1" as="geometry">
            <Array as="points">
              <mxPoint x="1572" y="570" />
              <mxPoint x="1572" y="460" />
            </Array>
          </mxGeometry>
        </mxCell>
        <mxCell id="sh82yEUyUhNnfkS9f2lk-34" style="edgeStyle=orthogonalEdgeStyle;rounded=0;orthogonalLoop=1;jettySize=auto;html=1;exitX=0.75;exitY=1;exitDx=0;exitDy=0;entryX=0;entryY=0.25;entryDx=0;entryDy=0;fontSize=12;startSize=8;endSize=8;" edge="1" parent="1" source="goAQ-7LBnzfhG2BFl0lH-8" target="sh82yEUyUhNnfkS9f2lk-32">
          <mxGeometry relative="1" as="geometry" />
        </mxCell>
        <mxCell id="goAQ-7LBnzfhG2BFl0lH-8" value="Pekerja" style="rounded=0;whiteSpace=wrap;html=1;fontSize=17;" parent="1" vertex="1">
          <mxGeometry x="1321" y="507" width="162" height="63" as="geometry" />
        </mxCell>
        <mxCell id="goAQ-7LBnzfhG2BFl0lH-11" style="edgeStyle=orthogonalEdgeStyle;rounded=0;orthogonalLoop=1;jettySize=auto;html=1;exitX=0.75;exitY=1;exitDx=0;exitDy=0;entryX=1;entryY=0.75;entryDx=0;entryDy=0;" parent="1" source="goAQ-7LBnzfhG2BFl0lH-14" target="goAQ-7LBnzfhG2BFl0lH-74" edge="1">
          <mxGeometry relative="1" as="geometry" />
        </mxCell>
        <mxCell id="goAQ-7LBnzfhG2BFl0lH-12" style="edgeStyle=orthogonalEdgeStyle;rounded=0;orthogonalLoop=1;jettySize=auto;html=1;entryX=1;entryY=0.5;entryDx=0;entryDy=0;exitX=1;exitY=0.5;exitDx=0;exitDy=0;" parent="1" source="goAQ-7LBnzfhG2BFl0lH-14" target="goAQ-7LBnzfhG2BFl0lH-65" edge="1">
          <mxGeometry relative="1" as="geometry" />
        </mxCell>
        <mxCell id="goAQ-7LBnzfhG2BFl0lH-13" style="edgeStyle=orthogonalEdgeStyle;rounded=0;orthogonalLoop=1;jettySize=auto;html=1;exitX=0.447;exitY=0.034;exitDx=0;exitDy=0;exitPerimeter=0;entryX=1;entryY=0.75;entryDx=0;entryDy=0;" parent="1" source="goAQ-7LBnzfhG2BFl0lH-14" edge="1" target="sh82yEUyUhNnfkS9f2lk-24">
          <mxGeometry relative="1" as="geometry">
            <mxPoint x="1242" y="338" as="targetPoint" />
            <Array as="points">
              <mxPoint x="1420" y="851" />
              <mxPoint x="1420" y="696" />
              <mxPoint x="1620" y="696" />
              <mxPoint x="1620" y="211" />
            </Array>
          </mxGeometry>
        </mxCell>
        <mxCell id="sh82yEUyUhNnfkS9f2lk-78" style="edgeStyle=none;curved=1;rounded=0;orthogonalLoop=1;jettySize=auto;html=1;exitX=1;exitY=0;exitDx=0;exitDy=0;entryX=0;entryY=0.5;entryDx=0;entryDy=0;fontSize=12;startSize=8;endSize=8;" edge="1" parent="1" source="goAQ-7LBnzfhG2BFl0lH-14" target="sh82yEUyUhNnfkS9f2lk-75">
          <mxGeometry relative="1" as="geometry" />
        </mxCell>
        <mxCell id="goAQ-7LBnzfhG2BFl0lH-14" value="Pengurus" style="rounded=0;whiteSpace=wrap;html=1;fontSize=17;" parent="1" vertex="1">
          <mxGeometry x="1310" y="848.5" width="162" height="63" as="geometry" />
        </mxCell>
        <mxCell id="goAQ-7LBnzfhG2BFl0lH-15" value="" style="group" parent="1" vertex="1" connectable="0">
          <mxGeometry x="609" y="151" width="289" height="70" as="geometry" />
        </mxCell>
        <mxCell id="goAQ-7LBnzfhG2BFl0lH-16" value="&lt;font style=&quot;font-size: 20px;&quot;&gt;&amp;nbsp; &amp;nbsp; &amp;nbsp; &amp;nbsp; &amp;nbsp; &amp;nbsp; Jadual Pelanggan&lt;/font&gt;" style="rounded=0;whiteSpace=wrap;html=1;" parent="goAQ-7LBnzfhG2BFl0lH-15" vertex="1">
          <mxGeometry width="289" height="70" as="geometry" />
        </mxCell>
        <mxCell id="goAQ-7LBnzfhG2BFl0lH-17" value="" style="endArrow=none;html=1;rounded=0;entryX=0.25;entryY=0;entryDx=0;entryDy=0;exitX=0.25;exitY=1;exitDx=0;exitDy=0;" parent="goAQ-7LBnzfhG2BFl0lH-15" source="goAQ-7LBnzfhG2BFl0lH-16" target="goAQ-7LBnzfhG2BFl0lH-16" edge="1">
          <mxGeometry width="50" height="50" relative="1" as="geometry">
            <mxPoint x="370" y="140" as="sourcePoint" />
            <mxPoint x="420" y="90" as="targetPoint" />
          </mxGeometry>
        </mxCell>
        <mxCell id="goAQ-7LBnzfhG2BFl0lH-18" value="D1" style="text;html=1;align=center;verticalAlign=middle;whiteSpace=wrap;rounded=0;rotation=-90;fontSize=23;fontStyle=1" parent="goAQ-7LBnzfhG2BFl0lH-15" vertex="1">
          <mxGeometry x="10" y="20" width="60" height="30" as="geometry" />
        </mxCell>
        <mxCell id="goAQ-7LBnzfhG2BFl0lH-19" value="" style="group" parent="1" vertex="1" connectable="0">
          <mxGeometry x="609" y="415" width="289" height="70" as="geometry" />
        </mxCell>
        <mxCell id="goAQ-7LBnzfhG2BFl0lH-20" value="&lt;font style=&quot;font-size: 20px;&quot;&gt;&amp;nbsp; &amp;nbsp; &amp;nbsp; &amp;nbsp; &amp;nbsp; &amp;nbsp; Jadual Tempahan&lt;/font&gt;" style="rounded=0;whiteSpace=wrap;html=1;" parent="goAQ-7LBnzfhG2BFl0lH-19" vertex="1">
          <mxGeometry width="289" height="70" as="geometry" />
        </mxCell>
        <mxCell id="goAQ-7LBnzfhG2BFl0lH-21" value="" style="endArrow=none;html=1;rounded=0;entryX=0.25;entryY=0;entryDx=0;entryDy=0;exitX=0.25;exitY=1;exitDx=0;exitDy=0;" parent="goAQ-7LBnzfhG2BFl0lH-19" source="goAQ-7LBnzfhG2BFl0lH-20" target="goAQ-7LBnzfhG2BFl0lH-20" edge="1">
          <mxGeometry width="50" height="50" relative="1" as="geometry">
            <mxPoint x="370" y="140" as="sourcePoint" />
            <mxPoint x="420" y="90" as="targetPoint" />
          </mxGeometry>
        </mxCell>
        <mxCell id="goAQ-7LBnzfhG2BFl0lH-22" value="D3" style="text;html=1;align=center;verticalAlign=middle;whiteSpace=wrap;rounded=0;rotation=-90;fontSize=23;fontStyle=1" parent="goAQ-7LBnzfhG2BFl0lH-19" vertex="1">
          <mxGeometry x="10" y="20" width="60" height="30" as="geometry" />
        </mxCell>
        <mxCell id="goAQ-7LBnzfhG2BFl0lH-23" value="" style="group" parent="1" vertex="1" connectable="0">
          <mxGeometry x="609" y="275" width="289" height="70" as="geometry" />
        </mxCell>
        <mxCell id="goAQ-7LBnzfhG2BFl0lH-24" value="&lt;font style=&quot;font-size: 20px;&quot;&gt;&amp;nbsp; &amp;nbsp; &amp;nbsp; &amp;nbsp; &amp;nbsp; Jadual Servis&lt;/font&gt;" style="rounded=0;whiteSpace=wrap;html=1;" parent="goAQ-7LBnzfhG2BFl0lH-23" vertex="1">
          <mxGeometry width="289" height="70" as="geometry" />
        </mxCell>
        <mxCell id="goAQ-7LBnzfhG2BFl0lH-25" value="" style="endArrow=none;html=1;rounded=0;entryX=0.25;entryY=0;entryDx=0;entryDy=0;exitX=0.25;exitY=1;exitDx=0;exitDy=0;" parent="goAQ-7LBnzfhG2BFl0lH-23" source="goAQ-7LBnzfhG2BFl0lH-24" target="goAQ-7LBnzfhG2BFl0lH-24" edge="1">
          <mxGeometry width="50" height="50" relative="1" as="geometry">
            <mxPoint x="370" y="140" as="sourcePoint" />
            <mxPoint x="420" y="90" as="targetPoint" />
          </mxGeometry>
        </mxCell>
        <mxCell id="goAQ-7LBnzfhG2BFl0lH-26" value="D2" style="text;html=1;align=center;verticalAlign=middle;whiteSpace=wrap;rounded=0;rotation=-90;fontSize=23;fontStyle=1" parent="goAQ-7LBnzfhG2BFl0lH-23" vertex="1">
          <mxGeometry x="10" y="20" width="60" height="30" as="geometry" />
        </mxCell>
        <mxCell id="goAQ-7LBnzfhG2BFl0lH-27" value="" style="group" parent="1" vertex="1" connectable="0">
          <mxGeometry x="609" y="601" width="289" height="70" as="geometry" />
        </mxCell>
        <mxCell id="goAQ-7LBnzfhG2BFl0lH-28" value="&lt;font style=&quot;font-size: 20px;&quot;&gt;&amp;nbsp; &amp;nbsp; &amp;nbsp; &amp;nbsp; &amp;nbsp; Jadual&amp;nbsp;&lt;/font&gt;&lt;div&gt;&lt;font style=&quot;font-size: 20px;&quot;&gt;&amp;nbsp; &amp;nbsp; &amp;nbsp; &amp;nbsp; Laporan Servis&lt;/font&gt;&lt;/div&gt;" style="rounded=0;whiteSpace=wrap;html=1;" parent="goAQ-7LBnzfhG2BFl0lH-27" vertex="1">
          <mxGeometry width="289" height="70" as="geometry" />
        </mxCell>
        <mxCell id="goAQ-7LBnzfhG2BFl0lH-29" value="" style="endArrow=none;html=1;rounded=0;entryX=0.25;entryY=0;entryDx=0;entryDy=0;exitX=0.25;exitY=1;exitDx=0;exitDy=0;" parent="goAQ-7LBnzfhG2BFl0lH-27" source="goAQ-7LBnzfhG2BFl0lH-28" target="goAQ-7LBnzfhG2BFl0lH-28" edge="1">
          <mxGeometry width="50" height="50" relative="1" as="geometry">
            <mxPoint x="370" y="140" as="sourcePoint" />
            <mxPoint x="420" y="90" as="targetPoint" />
          </mxGeometry>
        </mxCell>
        <mxCell id="goAQ-7LBnzfhG2BFl0lH-30" value="D4" style="text;html=1;align=center;verticalAlign=middle;whiteSpace=wrap;rounded=0;rotation=-90;fontSize=23;fontStyle=1" parent="goAQ-7LBnzfhG2BFl0lH-27" vertex="1">
          <mxGeometry x="10" y="20" width="60" height="30" as="geometry" />
        </mxCell>
        <mxCell id="goAQ-7LBnzfhG2BFl0lH-31" value="" style="group" parent="1" vertex="1" connectable="0">
          <mxGeometry x="609" y="1160" width="289" height="70" as="geometry" />
        </mxCell>
        <mxCell id="goAQ-7LBnzfhG2BFl0lH-32" value="&lt;font style=&quot;font-size: 20px;&quot;&gt;&amp;nbsp; &amp;nbsp; &amp;nbsp; &amp;nbsp; &amp;nbsp; Jadual Bahan &amp;amp; Stok&lt;/font&gt;" style="rounded=0;whiteSpace=wrap;html=1;" parent="goAQ-7LBnzfhG2BFl0lH-31" vertex="1">
          <mxGeometry width="289" height="70" as="geometry" />
        </mxCell>
        <mxCell id="goAQ-7LBnzfhG2BFl0lH-33" value="" style="endArrow=none;html=1;rounded=0;entryX=0.25;entryY=0;entryDx=0;entryDy=0;exitX=0.25;exitY=1;exitDx=0;exitDy=0;" parent="goAQ-7LBnzfhG2BFl0lH-31" source="goAQ-7LBnzfhG2BFl0lH-32" target="goAQ-7LBnzfhG2BFl0lH-32" edge="1">
          <mxGeometry width="50" height="50" relative="1" as="geometry">
            <mxPoint x="370" y="140" as="sourcePoint" />
            <mxPoint x="420" y="90" as="targetPoint" />
          </mxGeometry>
        </mxCell>
        <mxCell id="goAQ-7LBnzfhG2BFl0lH-34" value="D8" style="text;html=1;align=center;verticalAlign=middle;whiteSpace=wrap;rounded=0;rotation=-90;fontSize=23;fontStyle=1" parent="goAQ-7LBnzfhG2BFl0lH-31" vertex="1">
          <mxGeometry x="10" y="20" width="60" height="30" as="geometry" />
        </mxCell>
        <mxCell id="goAQ-7LBnzfhG2BFl0lH-35" value="" style="group" parent="1" vertex="1" connectable="0">
          <mxGeometry x="609" y="1090" width="289" height="70" as="geometry" />
        </mxCell>
        <mxCell id="goAQ-7LBnzfhG2BFl0lH-36" value="&lt;font style=&quot;font-size: 20px;&quot;&gt;&amp;nbsp; &amp;nbsp; &amp;nbsp; &amp;nbsp; &amp;nbsp; &amp;nbsp; Jadual Pekerja&lt;/font&gt;" style="rounded=0;whiteSpace=wrap;html=1;" parent="goAQ-7LBnzfhG2BFl0lH-35" vertex="1">
          <mxGeometry width="289" height="70" as="geometry" />
        </mxCell>
        <mxCell id="goAQ-7LBnzfhG2BFl0lH-37" value="" style="endArrow=none;html=1;rounded=0;entryX=0.25;entryY=0;entryDx=0;entryDy=0;exitX=0.25;exitY=1;exitDx=0;exitDy=0;" parent="goAQ-7LBnzfhG2BFl0lH-35" source="goAQ-7LBnzfhG2BFl0lH-36" target="goAQ-7LBnzfhG2BFl0lH-36" edge="1">
          <mxGeometry width="50" height="50" relative="1" as="geometry">
            <mxPoint x="370" y="140" as="sourcePoint" />
            <mxPoint x="420" y="90" as="targetPoint" />
          </mxGeometry>
        </mxCell>
        <mxCell id="goAQ-7LBnzfhG2BFl0lH-38" value="D7" style="text;html=1;align=center;verticalAlign=middle;whiteSpace=wrap;rounded=0;rotation=-90;fontSize=23;fontStyle=1" parent="goAQ-7LBnzfhG2BFl0lH-35" vertex="1">
          <mxGeometry x="10" y="20" width="60" height="30" as="geometry" />
        </mxCell>
        <mxCell id="goAQ-7LBnzfhG2BFl0lH-39" value="" style="group" parent="1" vertex="1" connectable="0">
          <mxGeometry x="609" y="750" width="289" height="70" as="geometry" />
        </mxCell>
        <mxCell id="goAQ-7LBnzfhG2BFl0lH-40" value="&lt;font style=&quot;font-size: 20px;&quot;&gt;&amp;nbsp; &amp;nbsp; &amp;nbsp; &amp;nbsp; &amp;nbsp; &amp;nbsp; &amp;nbsp;Jadual Kewangan&lt;/font&gt;" style="rounded=0;whiteSpace=wrap;html=1;" parent="goAQ-7LBnzfhG2BFl0lH-39" vertex="1">
          <mxGeometry width="289" height="70" as="geometry" />
        </mxCell>
        <mxCell id="goAQ-7LBnzfhG2BFl0lH-41" value="" style="endArrow=none;html=1;rounded=0;entryX=0.25;entryY=0;entryDx=0;entryDy=0;exitX=0.25;exitY=1;exitDx=0;exitDy=0;" parent="goAQ-7LBnzfhG2BFl0lH-39" source="goAQ-7LBnzfhG2BFl0lH-40" target="goAQ-7LBnzfhG2BFl0lH-40" edge="1">
          <mxGeometry width="50" height="50" relative="1" as="geometry">
            <mxPoint x="370" y="140" as="sourcePoint" />
            <mxPoint x="420" y="90" as="targetPoint" />
          </mxGeometry>
        </mxCell>
        <mxCell id="goAQ-7LBnzfhG2BFl0lH-42" value="D6" style="text;html=1;align=center;verticalAlign=middle;whiteSpace=wrap;rounded=0;rotation=-90;fontSize=23;fontStyle=1" parent="goAQ-7LBnzfhG2BFl0lH-39" vertex="1">
          <mxGeometry x="10" y="20" width="60" height="30" as="geometry" />
        </mxCell>
        <mxCell id="goAQ-7LBnzfhG2BFl0lH-43" value="" style="group" parent="1" vertex="1" connectable="0">
          <mxGeometry x="610" y="975" width="289" height="70" as="geometry" />
        </mxCell>
        <mxCell id="goAQ-7LBnzfhG2BFl0lH-44" value="&lt;font style=&quot;font-size: 20px;&quot;&gt;&amp;nbsp; &amp;nbsp; &amp;nbsp; &amp;nbsp; &amp;nbsp; Jadual Laporan&lt;/font&gt;" style="rounded=0;whiteSpace=wrap;html=1;" parent="goAQ-7LBnzfhG2BFl0lH-43" vertex="1">
          <mxGeometry width="289" height="70" as="geometry" />
        </mxCell>
        <mxCell id="goAQ-7LBnzfhG2BFl0lH-45" value="" style="endArrow=none;html=1;rounded=0;entryX=0.25;entryY=0;entryDx=0;entryDy=0;exitX=0.25;exitY=1;exitDx=0;exitDy=0;" parent="goAQ-7LBnzfhG2BFl0lH-43" source="goAQ-7LBnzfhG2BFl0lH-44" target="goAQ-7LBnzfhG2BFl0lH-44" edge="1">
          <mxGeometry width="50" height="50" relative="1" as="geometry">
            <mxPoint x="370" y="140" as="sourcePoint" />
            <mxPoint x="420" y="90" as="targetPoint" />
          </mxGeometry>
        </mxCell>
        <mxCell id="goAQ-7LBnzfhG2BFl0lH-46" value="D5" style="text;html=1;align=center;verticalAlign=middle;whiteSpace=wrap;rounded=0;rotation=-90;fontSize=23;fontStyle=1" parent="goAQ-7LBnzfhG2BFl0lH-43" vertex="1">
          <mxGeometry x="10" y="20" width="60" height="30" as="geometry" />
        </mxCell>
        <mxCell id="goAQ-7LBnzfhG2BFl0lH-47" value="" style="group" parent="1" vertex="1" connectable="0">
          <mxGeometry x="319" y="126" width="200" height="100" as="geometry" />
        </mxCell>
        <mxCell id="goAQ-7LBnzfhG2BFl0lH-48" value="&lt;font style=&quot;font-size: 17px;&quot;&gt;1.0&lt;/font&gt;" style="swimlane;whiteSpace=wrap;html=1;" parent="goAQ-7LBnzfhG2BFl0lH-47" vertex="1">
          <mxGeometry width="200" height="100" as="geometry" />
        </mxCell>
        <mxCell id="goAQ-7LBnzfhG2BFl0lH-49" value="&lt;font style=&quot;font-size: 16px;&quot;&gt;Pendaftaran Pelanggan&lt;/font&gt;" style="text;html=1;align=center;verticalAlign=middle;resizable=0;points=[];autosize=1;strokeColor=none;fillColor=none;" parent="goAQ-7LBnzfhG2BFl0lH-47" vertex="1">
          <mxGeometry x="5" y="46" width="190" height="30" as="geometry" />
        </mxCell>
        <mxCell id="goAQ-7LBnzfhG2BFl0lH-50" value="" style="group" parent="1" vertex="1" connectable="0">
          <mxGeometry x="320" y="520" width="200" height="100" as="geometry" />
        </mxCell>
        <mxCell id="goAQ-7LBnzfhG2BFl0lH-51" value="&lt;font style=&quot;font-size: 17px;&quot;&gt;3.0&lt;/font&gt;" style="swimlane;whiteSpace=wrap;html=1;" parent="goAQ-7LBnzfhG2BFl0lH-50" vertex="1">
          <mxGeometry width="200" height="100" as="geometry" />
        </mxCell>
        <mxCell id="goAQ-7LBnzfhG2BFl0lH-52" value="&lt;span style=&quot;font-size: 16px;&quot;&gt;Tempah Servis&lt;/span&gt;" style="text;html=1;align=center;verticalAlign=middle;resizable=0;points=[];autosize=1;strokeColor=none;fillColor=none;" parent="goAQ-7LBnzfhG2BFl0lH-50" vertex="1">
          <mxGeometry x="35" y="46" width="130" height="30" as="geometry" />
        </mxCell>
        <mxCell id="goAQ-7LBnzfhG2BFl0lH-53" value="" style="group" parent="1" vertex="1" connectable="0">
          <mxGeometry x="310" y="800" width="205" height="100" as="geometry" />
        </mxCell>
        <mxCell id="goAQ-7LBnzfhG2BFl0lH-54" value="&lt;font style=&quot;font-size: 17px;&quot;&gt;7.0&lt;/font&gt;" style="swimlane;whiteSpace=wrap;html=1;" parent="goAQ-7LBnzfhG2BFl0lH-53" vertex="1">
          <mxGeometry width="200" height="100" as="geometry" />
        </mxCell>
        <mxCell id="goAQ-7LBnzfhG2BFl0lH-55" value="&lt;font style=&quot;font-size: 16px;&quot;&gt;Semak Sejarah Servis&lt;/font&gt;" style="text;html=1;align=center;verticalAlign=middle;resizable=0;points=[];autosize=1;strokeColor=none;fillColor=none;" parent="goAQ-7LBnzfhG2BFl0lH-53" vertex="1">
          <mxGeometry x="10" y="46" width="180" height="30" as="geometry" />
        </mxCell>
        <mxCell id="goAQ-7LBnzfhG2BFl0lH-56" value="" style="group" parent="1" vertex="1" connectable="0">
          <mxGeometry x="310" y="1050" width="200" height="100" as="geometry" />
        </mxCell>
        <mxCell id="goAQ-7LBnzfhG2BFl0lH-57" value="&lt;font style=&quot;font-size: 17px;&quot;&gt;8.0&lt;/font&gt;" style="swimlane;whiteSpace=wrap;html=1;" parent="goAQ-7LBnzfhG2BFl0lH-56" vertex="1">
          <mxGeometry width="200" height="100" as="geometry" />
        </mxCell>
        <mxCell id="goAQ-7LBnzfhG2BFl0lH-58" value="&lt;div&gt;&lt;span style=&quot;font-size: 16px;&quot;&gt;Membuat bayaran&amp;nbsp;&lt;/span&gt;&lt;/div&gt;&lt;div&gt;&lt;span style=&quot;font-size: 16px;&quot;&gt;dan&lt;/span&gt;&lt;/div&gt;&lt;span style=&quot;font-size: 16px;&quot;&gt;Dapat Invois&lt;/span&gt;" style="text;html=1;align=center;verticalAlign=middle;resizable=0;points=[];autosize=1;strokeColor=none;fillColor=none;" parent="goAQ-7LBnzfhG2BFl0lH-56" vertex="1">
          <mxGeometry x="20" y="26" width="160" height="70" as="geometry" />
        </mxCell>
        <mxCell id="goAQ-7LBnzfhG2BFl0lH-59" value="" style="group" parent="1" vertex="1" connectable="0">
          <mxGeometry x="320" y="260" width="200" height="100" as="geometry" />
        </mxCell>
        <mxCell id="goAQ-7LBnzfhG2BFl0lH-60" value="&lt;font style=&quot;font-size: 17px;&quot;&gt;5.0&lt;/font&gt;" style="swimlane;whiteSpace=wrap;html=1;startSize=23;" parent="goAQ-7LBnzfhG2BFl0lH-59" vertex="1">
          <mxGeometry width="200" height="100" as="geometry" />
        </mxCell>
        <mxCell id="goAQ-7LBnzfhG2BFl0lH-61" value="&lt;span style=&quot;font-size: 16px;&quot;&gt;Semak Status&amp;nbsp;&lt;/span&gt;&lt;div&gt;&lt;span style=&quot;font-size: 16px;&quot;&gt;Kenderaan&lt;/span&gt;&lt;/div&gt;" style="text;html=1;align=center;verticalAlign=middle;resizable=0;points=[];autosize=1;strokeColor=none;fillColor=none;" parent="goAQ-7LBnzfhG2BFl0lH-59" vertex="1">
          <mxGeometry x="35" y="36" width="130" height="50" as="geometry" />
        </mxCell>
        <mxCell id="goAQ-7LBnzfhG2BFl0lH-62" style="edgeStyle=orthogonalEdgeStyle;rounded=0;orthogonalLoop=1;jettySize=auto;html=1;exitX=1;exitY=0.5;exitDx=0;exitDy=0;entryX=-0.003;entryY=0.644;entryDx=0;entryDy=0;entryPerimeter=0;" parent="1" source="goAQ-7LBnzfhG2BFl0lH-5" target="goAQ-7LBnzfhG2BFl0lH-49" edge="1">
          <mxGeometry relative="1" as="geometry" />
        </mxCell>
        <mxCell id="goAQ-7LBnzfhG2BFl0lH-63" style="edgeStyle=orthogonalEdgeStyle;rounded=0;orthogonalLoop=1;jettySize=auto;html=1;entryX=0;entryY=0.5;entryDx=0;entryDy=0;" parent="1" source="goAQ-7LBnzfhG2BFl0lH-49" target="goAQ-7LBnzfhG2BFl0lH-16" edge="1">
          <mxGeometry relative="1" as="geometry" />
        </mxCell>
        <mxCell id="goAQ-7LBnzfhG2BFl0lH-64" value="" style="group" parent="1" vertex="1" connectable="0">
          <mxGeometry x="1042.5" y="1280" width="205" height="100" as="geometry" />
        </mxCell>
        <mxCell id="goAQ-7LBnzfhG2BFl0lH-65" value="&lt;font style=&quot;font-size: 17px;&quot;&gt;20.0&lt;/font&gt;" style="swimlane;whiteSpace=wrap;html=1;" parent="goAQ-7LBnzfhG2BFl0lH-64" vertex="1">
          <mxGeometry width="200" height="100" as="geometry" />
        </mxCell>
        <mxCell id="goAQ-7LBnzfhG2BFl0lH-66" value="&lt;font style=&quot;font-size: 16px;&quot;&gt;Pengurusan Stok &amp;amp; Bahan&lt;/font&gt;" style="text;html=1;align=center;verticalAlign=middle;resizable=0;points=[];autosize=1;strokeColor=none;fillColor=none;" parent="goAQ-7LBnzfhG2BFl0lH-64" vertex="1">
          <mxGeometry x="-5" y="46" width="210" height="30" as="geometry" />
        </mxCell>
        <mxCell id="goAQ-7LBnzfhG2BFl0lH-67" value="" style="group" parent="1" vertex="1" connectable="0">
          <mxGeometry x="1040" y="510" width="200" height="100" as="geometry" />
        </mxCell>
        <mxCell id="goAQ-7LBnzfhG2BFl0lH-68" value="&lt;font style=&quot;font-size: 17px;&quot;&gt;11.0&lt;/font&gt;" style="swimlane;whiteSpace=wrap;html=1;" parent="goAQ-7LBnzfhG2BFl0lH-67" vertex="1">
          <mxGeometry width="200" height="100" as="geometry" />
        </mxCell>
        <mxCell id="goAQ-7LBnzfhG2BFl0lH-69" value="&lt;font style=&quot;font-size: 16px;&quot;&gt;Rekod Maklumat Servis&lt;/font&gt;" style="text;html=1;align=center;verticalAlign=middle;resizable=0;points=[];autosize=1;strokeColor=none;fillColor=none;" parent="goAQ-7LBnzfhG2BFl0lH-67" vertex="1">
          <mxGeometry x="5" y="46" width="190" height="30" as="geometry" />
        </mxCell>
        <mxCell id="goAQ-7LBnzfhG2BFl0lH-70" value="" style="group" parent="1" vertex="1" connectable="0">
          <mxGeometry x="1040.5" y="370" width="205" height="100" as="geometry" />
        </mxCell>
        <mxCell id="goAQ-7LBnzfhG2BFl0lH-71" value="&lt;font style=&quot;font-size: 17px;&quot;&gt;12.0&lt;/font&gt;" style="swimlane;whiteSpace=wrap;html=1;" parent="goAQ-7LBnzfhG2BFl0lH-70" vertex="1">
          <mxGeometry width="200" height="100" as="geometry" />
        </mxCell>
        <mxCell id="goAQ-7LBnzfhG2BFl0lH-72" value="&lt;font style=&quot;font-size: 16px;&quot;&gt;Kemas Kini Status Servis&lt;/font&gt;" style="text;html=1;align=center;verticalAlign=middle;resizable=0;points=[];autosize=1;strokeColor=none;fillColor=none;" parent="goAQ-7LBnzfhG2BFl0lH-70" vertex="1">
          <mxGeometry y="46" width="200" height="30" as="geometry" />
        </mxCell>
        <mxCell id="goAQ-7LBnzfhG2BFl0lH-73" value="" style="group" parent="1" vertex="1" connectable="0">
          <mxGeometry x="1040" y="1130" width="200" height="100" as="geometry" />
        </mxCell>
        <mxCell id="goAQ-7LBnzfhG2BFl0lH-74" value="&lt;font style=&quot;font-size: 17px;&quot;&gt;18.0&lt;/font&gt;" style="swimlane;whiteSpace=wrap;html=1;" parent="goAQ-7LBnzfhG2BFl0lH-73" vertex="1">
          <mxGeometry width="200" height="100" as="geometry" />
        </mxCell>
        <mxCell id="goAQ-7LBnzfhG2BFl0lH-75" value="&lt;span style=&quot;font-size: 16px;&quot;&gt;Urus Akaun&amp;nbsp;&lt;/span&gt;&lt;div&gt;&lt;span style=&quot;font-size: 16px;&quot;&gt;Pekerja Bengkel&lt;/span&gt;&lt;/div&gt;" style="text;html=1;align=center;verticalAlign=middle;resizable=0;points=[];autosize=1;strokeColor=none;fillColor=none;" parent="goAQ-7LBnzfhG2BFl0lH-73" vertex="1">
          <mxGeometry x="30" y="36" width="140" height="50" as="geometry" />
        </mxCell>
        <mxCell id="goAQ-7LBnzfhG2BFl0lH-76" value="" style="group" parent="1" vertex="1" connectable="0">
          <mxGeometry x="1040" y="975" width="205" height="100" as="geometry" />
        </mxCell>
        <mxCell id="goAQ-7LBnzfhG2BFl0lH-77" value="&lt;font style=&quot;font-size: 17px;&quot;&gt;16.0&lt;/font&gt;" style="swimlane;whiteSpace=wrap;html=1;" parent="goAQ-7LBnzfhG2BFl0lH-76" vertex="1">
          <mxGeometry width="200" height="100" as="geometry" />
        </mxCell>
        <mxCell id="goAQ-7LBnzfhG2BFl0lH-78" value="&lt;span style=&quot;font-size: 16px;&quot;&gt;Penjanaan Laporan&amp;nbsp;&lt;/span&gt;&lt;div&gt;&lt;span style=&quot;font-size: 16px;&quot;&gt;Bulanan&lt;/span&gt;&lt;/div&gt;" style="text;html=1;align=center;verticalAlign=middle;resizable=0;points=[];autosize=1;strokeColor=none;fillColor=none;" parent="goAQ-7LBnzfhG2BFl0lH-76" vertex="1">
          <mxGeometry x="15" y="36" width="170" height="50" as="geometry" />
        </mxCell>
        <mxCell id="goAQ-7LBnzfhG2BFl0lH-79" value="" style="group" parent="1" vertex="1" connectable="0">
          <mxGeometry x="1660" y="385" width="200" height="100" as="geometry" />
        </mxCell>
        <mxCell id="goAQ-7LBnzfhG2BFl0lH-80" value="&lt;font style=&quot;font-size: 17px;&quot;&gt;9.0&lt;/font&gt;" style="swimlane;whiteSpace=wrap;html=1;" parent="goAQ-7LBnzfhG2BFl0lH-79" vertex="1">
          <mxGeometry width="200" height="100" as="geometry" />
        </mxCell>
        <mxCell id="goAQ-7LBnzfhG2BFl0lH-81" value="&lt;font style=&quot;font-size: 16px;&quot;&gt;Log Masuk&lt;/font&gt;" style="text;html=1;align=center;verticalAlign=middle;resizable=0;points=[];autosize=1;strokeColor=none;fillColor=none;" parent="goAQ-7LBnzfhG2BFl0lH-79" vertex="1">
          <mxGeometry x="50" y="46" width="100" height="30" as="geometry" />
        </mxCell>
        <mxCell id="goAQ-7LBnzfhG2BFl0lH-82" value="" style="group" parent="1" vertex="1" connectable="0">
          <mxGeometry x="1042" y="855" width="205" height="100" as="geometry" />
        </mxCell>
        <mxCell id="goAQ-7LBnzfhG2BFl0lH-83" value="&lt;font style=&quot;font-size: 17px;&quot;&gt;17.0&lt;/font&gt;" style="swimlane;whiteSpace=wrap;html=1;" parent="goAQ-7LBnzfhG2BFl0lH-82" vertex="1">
          <mxGeometry width="200" height="100" as="geometry" />
        </mxCell>
        <mxCell id="goAQ-7LBnzfhG2BFl0lH-84" value="&lt;font style=&quot;font-size: 16px;&quot;&gt;Semak Rekod&amp;nbsp;&lt;/font&gt;&lt;div&gt;&lt;font style=&quot;font-size: 16px;&quot;&gt;Pendapatan&lt;/font&gt;&lt;/div&gt;" style="text;html=1;align=center;verticalAlign=middle;resizable=0;points=[];autosize=1;strokeColor=none;fillColor=none;" parent="goAQ-7LBnzfhG2BFl0lH-82" vertex="1">
          <mxGeometry x="35" y="36" width="130" height="50" as="geometry" />
        </mxCell>
        <mxCell id="goAQ-7LBnzfhG2BFl0lH-86" style="edgeStyle=orthogonalEdgeStyle;rounded=0;orthogonalLoop=1;jettySize=auto;html=1;exitX=1;exitY=0.5;exitDx=0;exitDy=0;entryX=0;entryY=0.5;entryDx=0;entryDy=0;" parent="1" source="goAQ-7LBnzfhG2BFl0lH-51" target="goAQ-7LBnzfhG2BFl0lH-20" edge="1">
          <mxGeometry relative="1" as="geometry">
            <mxPoint x="700" y="460" as="targetPoint" />
          </mxGeometry>
        </mxCell>
        <mxCell id="goAQ-7LBnzfhG2BFl0lH-87" style="edgeStyle=orthogonalEdgeStyle;rounded=0;orthogonalLoop=1;jettySize=auto;html=1;entryX=0.5;entryY=1;entryDx=0;entryDy=0;exitX=0;exitY=0.5;exitDx=0;exitDy=0;" parent="1" source="goAQ-7LBnzfhG2BFl0lH-68" target="goAQ-7LBnzfhG2BFl0lH-24" edge="1">
          <mxGeometry relative="1" as="geometry">
            <Array as="points">
              <mxPoint x="1040" y="600" />
              <mxPoint x="930" y="600" />
              <mxPoint x="930" y="380" />
              <mxPoint x="753" y="380" />
            </Array>
          </mxGeometry>
        </mxCell>
        <mxCell id="goAQ-7LBnzfhG2BFl0lH-88" style="edgeStyle=orthogonalEdgeStyle;rounded=0;orthogonalLoop=1;jettySize=auto;html=1;exitX=-0.002;exitY=0.565;exitDx=0;exitDy=0;entryX=1;entryY=0.25;entryDx=0;entryDy=0;exitPerimeter=0;" parent="1" source="goAQ-7LBnzfhG2BFl0lH-72" target="goAQ-7LBnzfhG2BFl0lH-24" edge="1">
          <mxGeometry relative="1" as="geometry">
            <Array as="points">
              <mxPoint x="1040" y="470" />
              <mxPoint x="950" y="470" />
              <mxPoint x="950" y="293" />
            </Array>
          </mxGeometry>
        </mxCell>
        <mxCell id="goAQ-7LBnzfhG2BFl0lH-89" style="edgeStyle=orthogonalEdgeStyle;rounded=0;orthogonalLoop=1;jettySize=auto;html=1;entryX=0;entryY=0.5;entryDx=0;entryDy=0;exitX=1;exitY=0.5;exitDx=0;exitDy=0;" parent="1" source="goAQ-7LBnzfhG2BFl0lH-44" target="goAQ-7LBnzfhG2BFl0lH-77" edge="1">
          <mxGeometry relative="1" as="geometry">
            <mxPoint x="910" y="920" as="sourcePoint" />
            <Array as="points">
              <mxPoint x="899" y="1025" />
            </Array>
          </mxGeometry>
        </mxCell>
        <mxCell id="goAQ-7LBnzfhG2BFl0lH-91" style="edgeStyle=orthogonalEdgeStyle;rounded=0;orthogonalLoop=1;jettySize=auto;html=1;exitX=0;exitY=0.5;exitDx=0;exitDy=0;entryX=1;entryY=0.5;entryDx=0;entryDy=0;" parent="1" source="goAQ-7LBnzfhG2BFl0lH-74" target="goAQ-7LBnzfhG2BFl0lH-36" edge="1">
          <mxGeometry relative="1" as="geometry" />
        </mxCell>
        <mxCell id="goAQ-7LBnzfhG2BFl0lH-93" style="edgeStyle=orthogonalEdgeStyle;rounded=0;orthogonalLoop=1;jettySize=auto;html=1;exitX=1;exitY=0.5;exitDx=0;exitDy=0;entryX=0;entryY=1;entryDx=0;entryDy=0;" parent="1" source="goAQ-7LBnzfhG2BFl0lH-54" target="goAQ-7LBnzfhG2BFl0lH-28" edge="1">
          <mxGeometry relative="1" as="geometry">
            <mxPoint x="620" y="601.5294117647059" as="targetPoint" />
            <Array as="points">
              <mxPoint x="580" y="850" />
              <mxPoint x="580" y="680" />
              <mxPoint x="609" y="680" />
            </Array>
          </mxGeometry>
        </mxCell>
        <mxCell id="goAQ-7LBnzfhG2BFl0lH-94" style="edgeStyle=orthogonalEdgeStyle;rounded=0;orthogonalLoop=1;jettySize=auto;html=1;exitX=1;exitY=0.5;exitDx=0;exitDy=0;entryX=0.5;entryY=1;entryDx=0;entryDy=0;" parent="1" source="goAQ-7LBnzfhG2BFl0lH-57" target="goAQ-7LBnzfhG2BFl0lH-40" edge="1">
          <mxGeometry relative="1" as="geometry">
            <mxPoint x="620" y="750.7692307692307" as="targetPoint" />
            <Array as="points">
              <mxPoint x="590" y="1100" />
              <mxPoint x="590" y="940" />
              <mxPoint x="754" y="940" />
            </Array>
          </mxGeometry>
        </mxCell>
        <mxCell id="goAQ-7LBnzfhG2BFl0lH-95" style="edgeStyle=orthogonalEdgeStyle;rounded=0;orthogonalLoop=1;jettySize=auto;html=1;entryX=1;entryY=0.5;entryDx=0;entryDy=0;" parent="1" source="goAQ-7LBnzfhG2BFl0lH-66" target="goAQ-7LBnzfhG2BFl0lH-32" edge="1">
          <mxGeometry relative="1" as="geometry" />
        </mxCell>
        <mxCell id="goAQ-7LBnzfhG2BFl0lH-96" value="" style="group" parent="1" vertex="1" connectable="0">
          <mxGeometry x="320" y="393" width="200" height="100" as="geometry" />
        </mxCell>
        <mxCell id="goAQ-7LBnzfhG2BFl0lH-97" value="&lt;font style=&quot;font-size: 17px;&quot;&gt;2.0&lt;/font&gt;" style="swimlane;whiteSpace=wrap;html=1;" parent="goAQ-7LBnzfhG2BFl0lH-96" vertex="1">
          <mxGeometry width="200" height="100" as="geometry" />
        </mxCell>
        <mxCell id="goAQ-7LBnzfhG2BFl0lH-98" value="&lt;span style=&quot;font-size: 16px;&quot;&gt;Pilih Jenis Servis&lt;/span&gt;&lt;div&gt;&lt;span style=&quot;font-size: 16px;&quot;&gt;(Servis/Pembaikan)&lt;/span&gt;&lt;/div&gt;" style="text;html=1;align=center;verticalAlign=middle;resizable=0;points=[];autosize=1;strokeColor=none;fillColor=none;" parent="goAQ-7LBnzfhG2BFl0lH-96" vertex="1">
          <mxGeometry x="20" y="36" width="160" height="50" as="geometry" />
        </mxCell>
        <mxCell id="goAQ-7LBnzfhG2BFl0lH-1" style="edgeStyle=orthogonalEdgeStyle;rounded=0;orthogonalLoop=1;jettySize=auto;html=1;exitX=0;exitY=0.25;exitDx=0;exitDy=0;entryX=1;entryY=0.75;entryDx=0;entryDy=0;" parent="1" source="goAQ-7LBnzfhG2BFl0lH-60" target="goAQ-7LBnzfhG2BFl0lH-5" edge="1">
          <mxGeometry relative="1" as="geometry">
            <Array as="points">
              <mxPoint x="240" y="285" />
              <mxPoint x="240" y="207" />
            </Array>
          </mxGeometry>
        </mxCell>
        <mxCell id="goAQ-7LBnzfhG2BFl0lH-85" style="edgeStyle=orthogonalEdgeStyle;rounded=0;orthogonalLoop=1;jettySize=auto;html=1;exitX=0;exitY=0.5;exitDx=0;exitDy=0;entryX=1;entryY=0.5;entryDx=0;entryDy=0;" parent="1" source="goAQ-7LBnzfhG2BFl0lH-24" target="goAQ-7LBnzfhG2BFl0lH-60" edge="1">
          <mxGeometry relative="1" as="geometry" />
        </mxCell>
        <mxCell id="efjkp5trMqikf9gxRnkj-1" value="Maklymat&lt;div&gt;&amp;nbsp;Peribadi&lt;/div&gt;" style="text;html=1;align=center;verticalAlign=middle;resizable=0;points=[];autosize=1;strokeColor=none;fillColor=none;fontSize=16;" parent="1" vertex="1">
          <mxGeometry x="199" y="131" width="90" height="50" as="geometry" />
        </mxCell>
        <mxCell id="efjkp5trMqikf9gxRnkj-2" value="Status&amp;nbsp;&lt;div&gt;Kereta&amp;nbsp;&lt;/div&gt;&lt;div&gt;Yang&amp;nbsp;&lt;/div&gt;&lt;div&gt;Diproses&lt;/div&gt;" style="text;html=1;align=center;verticalAlign=middle;resizable=0;points=[];autosize=1;strokeColor=none;fillColor=none;fontSize=16;" parent="1" vertex="1">
          <mxGeometry x="240" y="198" width="90" height="90" as="geometry" />
        </mxCell>
        <mxCell id="efjkp5trMqikf9gxRnkj-4" style="edgeStyle=none;curved=1;rounded=0;orthogonalLoop=1;jettySize=auto;html=1;exitX=1;exitY=0.25;exitDx=0;exitDy=0;entryX=0;entryY=0;entryDx=0;entryDy=0;fontSize=12;startSize=8;endSize=8;" parent="1" source="goAQ-7LBnzfhG2BFl0lH-97" target="goAQ-7LBnzfhG2BFl0lH-20" edge="1">
          <mxGeometry relative="1" as="geometry" />
        </mxCell>
        <mxCell id="efjkp5trMqikf9gxRnkj-5" value="Jenis&amp;nbsp;&lt;div&gt;Servis&lt;/div&gt;" style="text;html=1;align=center;verticalAlign=middle;resizable=0;points=[];autosize=1;strokeColor=none;fillColor=none;fontSize=16;" parent="1" vertex="1">
          <mxGeometry x="220" y="370" width="70" height="50" as="geometry" />
        </mxCell>
        <mxCell id="efjkp5trMqikf9gxRnkj-6" value="Maklymat&lt;div&gt;&amp;nbsp;Pelangan&lt;/div&gt;&lt;div&gt;yang&amp;nbsp;&lt;/div&gt;&lt;div&gt;Diproses&lt;/div&gt;" style="text;html=1;align=center;verticalAlign=middle;resizable=0;points=[];autosize=1;strokeColor=none;fillColor=none;fontSize=16;" parent="1" vertex="1">
          <mxGeometry x="515" y="78" width="100" height="90" as="geometry" />
        </mxCell>
        <mxCell id="efjkp5trMqikf9gxRnkj-7" value="Status&amp;nbsp;&lt;div&gt;Kereta&lt;/div&gt;" style="text;html=1;align=center;verticalAlign=middle;resizable=0;points=[];autosize=1;strokeColor=none;fillColor=none;fontSize=16;" parent="1" vertex="1">
          <mxGeometry x="535" y="246" width="70" height="50" as="geometry" />
        </mxCell>
        <mxCell id="efjkp5trMqikf9gxRnkj-8" value="Jenis&amp;nbsp;&lt;div&gt;Servis&amp;nbsp;&lt;/div&gt;&lt;div&gt;yang&amp;nbsp;&lt;/div&gt;&lt;div&gt;Dipilih&lt;/div&gt;" style="text;html=1;align=center;verticalAlign=middle;resizable=0;points=[];autosize=1;strokeColor=none;fillColor=none;fontSize=16;" parent="1" vertex="1">
          <mxGeometry x="525" y="331" width="70" height="90" as="geometry" />
        </mxCell>
        <mxCell id="efjkp5trMqikf9gxRnkj-9" value="Maklumat&amp;nbsp;&lt;div&gt;Tempahan&lt;/div&gt;&lt;div&gt;Pelanggan&lt;/div&gt;" style="text;html=1;align=center;verticalAlign=middle;resizable=0;points=[];autosize=1;strokeColor=none;fillColor=none;fontSize=16;" parent="1" vertex="1">
          <mxGeometry x="204" y="503.5" width="100" height="70" as="geometry" />
        </mxCell>
        <mxCell id="efjkp5trMqikf9gxRnkj-10" value="Maklumat&amp;nbsp;&lt;div&gt;Tempahan&lt;/div&gt;&lt;div&gt;Pelanggan&lt;/div&gt;&lt;div&gt;yang diproses&lt;/div&gt;" style="text;html=1;align=center;verticalAlign=middle;resizable=0;points=[];autosize=1;strokeColor=none;fillColor=none;fontSize=16;" parent="1" vertex="1">
          <mxGeometry x="570" y="485" width="120" height="90" as="geometry" />
        </mxCell>
        <mxCell id="efjkp5trMqikf9gxRnkj-11" value="Sejarah servis&lt;div&gt;&amp;nbsp;pelanggan&lt;/div&gt;" style="text;html=1;align=center;verticalAlign=middle;resizable=0;points=[];autosize=1;strokeColor=none;fillColor=none;fontSize=16;" parent="1" vertex="1">
          <mxGeometry x="170" y="788.5" width="120" height="50" as="geometry" />
        </mxCell>
        <mxCell id="sh82yEUyUhNnfkS9f2lk-1" value="Resit" style="text;html=1;align=center;verticalAlign=middle;resizable=0;points=[];autosize=1;strokeColor=none;fillColor=none;fontSize=16;" vertex="1" parent="1">
          <mxGeometry x="204" y="1060" width="60" height="30" as="geometry" />
        </mxCell>
        <mxCell id="sh82yEUyUhNnfkS9f2lk-2" value="invois&lt;div&gt;yang&lt;/div&gt;&lt;div&gt;diproses&lt;/div&gt;" style="text;html=1;align=center;verticalAlign=middle;resizable=0;points=[];autosize=1;strokeColor=none;fillColor=none;fontSize=16;" vertex="1" parent="1">
          <mxGeometry x="510" y="1020" width="80" height="70" as="geometry" />
        </mxCell>
        <mxCell id="sh82yEUyUhNnfkS9f2lk-3" value="Sejarah&amp;nbsp;&lt;div&gt;servis&lt;div&gt;&amp;nbsp;pelanggan&lt;/div&gt;&lt;/div&gt;" style="text;html=1;align=center;verticalAlign=middle;resizable=0;points=[];autosize=1;strokeColor=none;fillColor=none;fontSize=16;" vertex="1" parent="1">
          <mxGeometry x="495" y="778.5" width="100" height="70" as="geometry" />
        </mxCell>
        <mxCell id="sh82yEUyUhNnfkS9f2lk-4" value="" style="group" vertex="1" connectable="0" parent="1">
          <mxGeometry x="1040" y="630" width="200" height="100" as="geometry" />
        </mxCell>
        <mxCell id="sh82yEUyUhNnfkS9f2lk-16" style="edgeStyle=orthogonalEdgeStyle;rounded=0;orthogonalLoop=1;jettySize=auto;html=1;exitX=0;exitY=0.5;exitDx=0;exitDy=0;fontSize=12;startSize=8;endSize=8;" edge="1" parent="sh82yEUyUhNnfkS9f2lk-4" source="sh82yEUyUhNnfkS9f2lk-5">
          <mxGeometry relative="1" as="geometry">
            <mxPoint x="-270" y="-140" as="targetPoint" />
            <Array as="points">
              <mxPoint y="40" />
              <mxPoint x="-120" y="40" />
              <mxPoint x="-120" y="-70" />
              <mxPoint x="-270" y="-70" />
            </Array>
          </mxGeometry>
        </mxCell>
        <mxCell id="sh82yEUyUhNnfkS9f2lk-5" value="&lt;font style=&quot;font-size: 17px;&quot;&gt;10.0&lt;/font&gt;" style="swimlane;whiteSpace=wrap;html=1;" vertex="1" parent="sh82yEUyUhNnfkS9f2lk-4">
          <mxGeometry width="200" height="100" as="geometry" />
        </mxCell>
        <mxCell id="sh82yEUyUhNnfkS9f2lk-6" value="&lt;font style=&quot;font-size: 16px;&quot;&gt;Menerima dan memilih&lt;/font&gt;&lt;div&gt;&lt;font style=&quot;font-size: 16px;&quot;&gt;tempahan baharu&lt;/font&gt;&lt;/div&gt;" style="text;html=1;align=center;verticalAlign=middle;resizable=0;points=[];autosize=1;strokeColor=none;fillColor=none;" vertex="1" parent="sh82yEUyUhNnfkS9f2lk-4">
          <mxGeometry x="5" y="36" width="190" height="50" as="geometry" />
        </mxCell>
        <mxCell id="sh82yEUyUhNnfkS9f2lk-7" value="Laporan&amp;nbsp;&lt;div&gt;Servis&lt;/div&gt;" style="text;html=1;align=center;verticalAlign=middle;resizable=0;points=[];autosize=1;strokeColor=none;fillColor=none;fontSize=16;" vertex="1" parent="1">
          <mxGeometry x="1270" y="990" width="90" height="50" as="geometry" />
        </mxCell>
        <mxCell id="goAQ-7LBnzfhG2BFl0lH-9" style="edgeStyle=orthogonalEdgeStyle;rounded=0;orthogonalLoop=1;jettySize=auto;html=1;entryX=0.5;entryY=1;entryDx=0;entryDy=0;exitX=1;exitY=0.75;exitDx=0;exitDy=0;" parent="1" source="goAQ-7LBnzfhG2BFl0lH-77" target="goAQ-7LBnzfhG2BFl0lH-14" edge="1">
          <mxGeometry relative="1" as="geometry" />
        </mxCell>
        <mxCell id="sh82yEUyUhNnfkS9f2lk-8" value="Laporan&amp;nbsp;&lt;div&gt;Servis&amp;nbsp;&lt;/div&gt;&lt;div&gt;yang&amp;nbsp;&lt;div&gt;diproses&lt;/div&gt;&lt;/div&gt;" style="text;html=1;align=center;verticalAlign=middle;resizable=0;points=[];autosize=1;strokeColor=none;fillColor=none;fontSize=16;" vertex="1" parent="1">
          <mxGeometry x="922.5" y="930" width="90" height="90" as="geometry" />
        </mxCell>
        <mxCell id="sh82yEUyUhNnfkS9f2lk-9" value="Data&lt;div&gt;Kewangan&lt;/div&gt;" style="text;html=1;align=center;verticalAlign=middle;resizable=0;points=[];autosize=1;strokeColor=none;fillColor=none;fontSize=16;" vertex="1" parent="1">
          <mxGeometry x="898" y="750" width="100" height="50" as="geometry" />
        </mxCell>
        <mxCell id="sh82yEUyUhNnfkS9f2lk-10" value="Data&lt;div&gt;Kewangan&lt;/div&gt;" style="text;html=1;align=center;verticalAlign=middle;resizable=0;points=[];autosize=1;strokeColor=none;fillColor=none;fontSize=16;" vertex="1" parent="1">
          <mxGeometry x="1230" y="805" width="100" height="50" as="geometry" />
        </mxCell>
        <mxCell id="goAQ-7LBnzfhG2BFl0lH-90" style="edgeStyle=orthogonalEdgeStyle;rounded=0;orthogonalLoop=1;jettySize=auto;html=1;exitX=1;exitY=0.75;exitDx=0;exitDy=0;entryX=0;entryY=0.5;entryDx=0;entryDy=0;" parent="1" source="goAQ-7LBnzfhG2BFl0lH-40" target="goAQ-7LBnzfhG2BFl0lH-83" edge="1">
          <mxGeometry relative="1" as="geometry" />
        </mxCell>
        <mxCell id="goAQ-7LBnzfhG2BFl0lH-10" style="edgeStyle=orthogonalEdgeStyle;rounded=0;orthogonalLoop=1;jettySize=auto;html=1;exitX=1;exitY=0.5;exitDx=0;exitDy=0;entryX=0;entryY=0.5;entryDx=0;entryDy=0;" parent="1" source="goAQ-7LBnzfhG2BFl0lH-83" target="goAQ-7LBnzfhG2BFl0lH-14" edge="1">
          <mxGeometry relative="1" as="geometry" />
        </mxCell>
        <mxCell id="sh82yEUyUhNnfkS9f2lk-11" value="Maklumat Pekerja&lt;div&gt;yang dikemaskini&lt;/div&gt;" style="text;html=1;align=center;verticalAlign=middle;resizable=0;points=[];autosize=1;strokeColor=none;fillColor=none;fontSize=16;" vertex="1" parent="1">
          <mxGeometry x="1250" y="1120" width="150" height="50" as="geometry" />
        </mxCell>
        <mxCell id="sh82yEUyUhNnfkS9f2lk-12" value="Maklumat&amp;nbsp;&lt;div&gt;Pekerja&lt;div&gt;yang&amp;nbsp;&lt;/div&gt;&lt;div&gt;diproses&lt;/div&gt;&lt;/div&gt;" style="text;html=1;align=center;verticalAlign=middle;resizable=0;points=[];autosize=1;strokeColor=none;fillColor=none;fontSize=16;" vertex="1" parent="1">
          <mxGeometry x="960" y="1090" width="100" height="90" as="geometry" />
        </mxCell>
        <mxCell id="sh82yEUyUhNnfkS9f2lk-13" value="Maklumat Stok&lt;div&gt;yang dikemaskini&lt;/div&gt;" style="text;html=1;align=center;verticalAlign=middle;resizable=0;points=[];autosize=1;strokeColor=none;fillColor=none;fontSize=16;" vertex="1" parent="1">
          <mxGeometry x="1280" y="1280" width="150" height="50" as="geometry" />
        </mxCell>
        <mxCell id="sh82yEUyUhNnfkS9f2lk-14" value="Maklumat Stok&lt;div&gt;yang diproses&lt;/div&gt;" style="text;html=1;align=center;verticalAlign=middle;resizable=0;points=[];autosize=1;strokeColor=none;fillColor=none;fontSize=16;" vertex="1" parent="1">
          <mxGeometry x="902.5" y="1340" width="130" height="50" as="geometry" />
        </mxCell>
        <mxCell id="sh82yEUyUhNnfkS9f2lk-17" value="Tempahan yang&lt;div&gt;Dikemaskini&lt;/div&gt;" style="text;html=1;align=center;verticalAlign=middle;resizable=0;points=[];autosize=1;strokeColor=none;fillColor=none;fontSize=16;" vertex="1" parent="1">
          <mxGeometry x="1240" y="680" width="140" height="50" as="geometry" />
        </mxCell>
        <mxCell id="sh82yEUyUhNnfkS9f2lk-18" value="Tempahan yang&lt;div&gt;Diproses&lt;/div&gt;" style="text;html=1;align=center;verticalAlign=middle;resizable=0;points=[];autosize=1;strokeColor=none;fillColor=none;fontSize=16;" vertex="1" parent="1">
          <mxGeometry x="770" y="500" width="140" height="50" as="geometry" />
        </mxCell>
        <mxCell id="sh82yEUyUhNnfkS9f2lk-19" value="Maklumat Pekerja&lt;div&gt;yang diproses&lt;/div&gt;" style="text;html=1;align=center;verticalAlign=middle;resizable=0;points=[];autosize=1;strokeColor=none;fillColor=none;fontSize=16;" vertex="1" parent="1">
          <mxGeometry x="1765" y="1440" width="150" height="50" as="geometry" />
        </mxCell>
        <mxCell id="sh82yEUyUhNnfkS9f2lk-20" value="Status&lt;div&gt;Servis&lt;/div&gt;&lt;div&gt;Yang&lt;/div&gt;&lt;div&gt;Dirproses&lt;/div&gt;" style="text;html=1;align=center;verticalAlign=middle;resizable=0;points=[];autosize=1;strokeColor=none;fillColor=none;fontSize=16;" vertex="1" parent="1">
          <mxGeometry x="952" y="370" width="90" height="90" as="geometry" />
        </mxCell>
        <mxCell id="sh82yEUyUhNnfkS9f2lk-21" value="Status servis yang&lt;div&gt;Dikemaskini&lt;/div&gt;" style="text;html=1;align=center;verticalAlign=middle;resizable=0;points=[];autosize=1;strokeColor=none;fillColor=none;fontSize=16;" vertex="1" parent="1">
          <mxGeometry x="1322" y="370" width="150" height="50" as="geometry" />
        </mxCell>
        <mxCell id="sh82yEUyUhNnfkS9f2lk-22" value="Maklumat pekerja yang&lt;div&gt;&amp;nbsp;dikemaskini&lt;/div&gt;" style="text;html=1;align=center;verticalAlign=middle;resizable=0;points=[];autosize=1;strokeColor=none;fillColor=none;fontSize=16;" vertex="1" parent="1">
          <mxGeometry x="1400" y="630" width="190" height="50" as="geometry" />
        </mxCell>
        <mxCell id="sh82yEUyUhNnfkS9f2lk-23" value="" style="group" vertex="1" connectable="0" parent="1">
          <mxGeometry x="1230" y="136" width="200" height="100" as="geometry" />
        </mxCell>
        <mxCell id="sh82yEUyUhNnfkS9f2lk-24" value="&lt;font style=&quot;font-size: 17px;&quot;&gt;19.0&lt;/font&gt;" style="swimlane;whiteSpace=wrap;html=1;" vertex="1" parent="sh82yEUyUhNnfkS9f2lk-23">
          <mxGeometry width="200" height="100" as="geometry" />
        </mxCell>
        <mxCell id="sh82yEUyUhNnfkS9f2lk-25" value="&lt;font style=&quot;font-size: 16px;&quot;&gt;Urus Data Pelanggan&lt;/font&gt;" style="text;html=1;align=center;verticalAlign=middle;resizable=0;points=[];autosize=1;strokeColor=none;fillColor=none;" vertex="1" parent="sh82yEUyUhNnfkS9f2lk-23">
          <mxGeometry x="10" y="46" width="180" height="30" as="geometry" />
        </mxCell>
        <mxCell id="sh82yEUyUhNnfkS9f2lk-26" style="edgeStyle=none;curved=1;rounded=0;orthogonalLoop=1;jettySize=auto;html=1;exitX=0;exitY=0.5;exitDx=0;exitDy=0;entryX=1;entryY=0.5;entryDx=0;entryDy=0;fontSize=12;startSize=8;endSize=8;" edge="1" parent="1" source="sh82yEUyUhNnfkS9f2lk-24" target="goAQ-7LBnzfhG2BFl0lH-16">
          <mxGeometry relative="1" as="geometry" />
        </mxCell>
        <mxCell id="sh82yEUyUhNnfkS9f2lk-27" value="Maklumat pekerja yang&lt;div&gt;&amp;nbsp;diproses&lt;/div&gt;" style="text;html=1;align=center;verticalAlign=middle;resizable=0;points=[];autosize=1;strokeColor=none;fillColor=none;fontSize=16;" vertex="1" parent="1">
          <mxGeometry x="1010" y="136" width="190" height="50" as="geometry" />
        </mxCell>
        <mxCell id="sh82yEUyUhNnfkS9f2lk-28" style="edgeStyle=orthogonalEdgeStyle;rounded=0;orthogonalLoop=1;jettySize=auto;html=1;entryX=0;entryY=0.5;entryDx=0;entryDy=0;fontSize=12;startSize=8;endSize=8;" edge="1" parent="1" target="goAQ-7LBnzfhG2BFl0lH-36">
          <mxGeometry relative="1" as="geometry">
            <mxPoint x="1860" y="450" as="sourcePoint" />
            <Array as="points">
              <mxPoint x="1920" y="450" />
              <mxPoint x="1920" y="485" />
              <mxPoint x="1910" y="485" />
              <mxPoint x="1910" y="1500" />
              <mxPoint x="580" y="1500" />
              <mxPoint x="580" y="1125" />
            </Array>
          </mxGeometry>
        </mxCell>
        <mxCell id="sh82yEUyUhNnfkS9f2lk-31" value="" style="group" vertex="1" connectable="0" parent="1">
          <mxGeometry x="1640" y="560" width="200" height="100" as="geometry" />
        </mxCell>
        <mxCell id="sh82yEUyUhNnfkS9f2lk-32" value="&lt;font style=&quot;font-size: 17px;&quot;&gt;14.0&lt;/font&gt;" style="swimlane;whiteSpace=wrap;html=1;" vertex="1" parent="sh82yEUyUhNnfkS9f2lk-31">
          <mxGeometry width="200" height="100" as="geometry" />
        </mxCell>
        <mxCell id="sh82yEUyUhNnfkS9f2lk-33" value="&lt;font style=&quot;font-size: 16px;&quot;&gt;Semak dan Kemaskini&lt;/font&gt;&lt;div&gt;&lt;font style=&quot;font-size: 16px;&quot;&gt;Alat Stok&lt;/font&gt;&lt;/div&gt;" style="text;html=1;align=center;verticalAlign=middle;resizable=0;points=[];autosize=1;strokeColor=none;fillColor=none;" vertex="1" parent="sh82yEUyUhNnfkS9f2lk-31">
          <mxGeometry x="10" y="36" width="180" height="50" as="geometry" />
        </mxCell>
        <mxCell id="sh82yEUyUhNnfkS9f2lk-35" style="edgeStyle=orthogonalEdgeStyle;rounded=0;orthogonalLoop=1;jettySize=auto;html=1;entryX=0.5;entryY=1;entryDx=0;entryDy=0;fontSize=12;startSize=8;endSize=8;exitX=1;exitY=0.75;exitDx=0;exitDy=0;" edge="1" parent="1" source="sh82yEUyUhNnfkS9f2lk-32" target="goAQ-7LBnzfhG2BFl0lH-32">
          <mxGeometry relative="1" as="geometry">
            <mxPoint x="1730" y="670" as="sourcePoint" />
            <Array as="points">
              <mxPoint x="1840" y="1420" />
              <mxPoint x="754" y="1420" />
            </Array>
          </mxGeometry>
        </mxCell>
        <mxCell id="sh82yEUyUhNnfkS9f2lk-36" value="Bilangan Stok&amp;nbsp;&lt;div&gt;Yang Digunakan&lt;/div&gt;" style="text;html=1;align=center;verticalAlign=middle;resizable=0;points=[];autosize=1;strokeColor=none;fillColor=none;fontSize=16;" vertex="1" parent="1">
          <mxGeometry x="1575" y="1350" width="140" height="50" as="geometry" />
        </mxCell>
        <mxCell id="sh82yEUyUhNnfkS9f2lk-37" value="Bilangan alat&amp;nbsp;&lt;div&gt;yang digunakan&lt;/div&gt;" style="text;html=1;align=center;verticalAlign=middle;resizable=0;points=[];autosize=1;strokeColor=none;fillColor=none;fontSize=16;" vertex="1" parent="1">
          <mxGeometry x="610" y="1300" width="140" height="50" as="geometry" />
        </mxCell>
        <mxCell id="sh82yEUyUhNnfkS9f2lk-38" value="Maklumat pekerja yang&lt;div&gt;&amp;nbsp;diproses&lt;/div&gt;" style="text;html=1;align=center;verticalAlign=middle;resizable=0;points=[];autosize=1;strokeColor=none;fillColor=none;fontSize=16;" vertex="1" parent="1">
          <mxGeometry x="590" y="1440" width="190" height="50" as="geometry" />
        </mxCell>
        <mxCell id="sh82yEUyUhNnfkS9f2lk-39" value="Status&lt;div&gt;Servis&lt;/div&gt;&lt;div&gt;yang&amp;nbsp;&lt;/div&gt;&lt;div&gt;Dikemaskini&lt;/div&gt;" style="text;html=1;align=center;verticalAlign=middle;resizable=0;points=[];autosize=1;strokeColor=none;fillColor=none;fontSize=16;" vertex="1" parent="1">
          <mxGeometry x="1237" y="543" width="110" height="90" as="geometry" />
        </mxCell>
        <mxCell id="sh82yEUyUhNnfkS9f2lk-40" value="Status&lt;div&gt;Servis&lt;/div&gt;&lt;div&gt;yang&amp;nbsp;&lt;/div&gt;&lt;div&gt;Diproses&lt;/div&gt;" style="text;html=1;align=center;verticalAlign=middle;resizable=0;points=[];autosize=1;strokeColor=none;fillColor=none;fontSize=16;" vertex="1" parent="1">
          <mxGeometry x="940" y="500" width="90" height="90" as="geometry" />
        </mxCell>
        <mxCell id="sh82yEUyUhNnfkS9f2lk-41" value="" style="group" vertex="1" connectable="0" parent="1">
          <mxGeometry x="319" y="660" width="200" height="100" as="geometry" />
        </mxCell>
        <mxCell id="sh82yEUyUhNnfkS9f2lk-42" value="&lt;font style=&quot;font-size: 17px;&quot;&gt;6.0&lt;/font&gt;" style="swimlane;whiteSpace=wrap;html=1;" vertex="1" parent="sh82yEUyUhNnfkS9f2lk-41">
          <mxGeometry width="200" height="100" as="geometry" />
        </mxCell>
        <mxCell id="sh82yEUyUhNnfkS9f2lk-43" value="&lt;span style=&quot;font-size: 16px;&quot;&gt;Dapatkan notifikasi&lt;/span&gt;" style="text;html=1;align=center;verticalAlign=middle;resizable=0;points=[];autosize=1;strokeColor=none;fillColor=none;" vertex="1" parent="sh82yEUyUhNnfkS9f2lk-41">
          <mxGeometry x="20" y="46" width="160" height="30" as="geometry" />
        </mxCell>
        <mxCell id="sh82yEUyUhNnfkS9f2lk-46" style="edgeStyle=orthogonalEdgeStyle;rounded=0;orthogonalLoop=1;jettySize=auto;html=1;entryX=1;entryY=0.5;entryDx=0;entryDy=0;fontSize=12;startSize=8;endSize=8;" edge="1" parent="1" target="sh82yEUyUhNnfkS9f2lk-42">
          <mxGeometry relative="1" as="geometry">
            <mxPoint x="610" y="636" as="sourcePoint" />
            <Array as="points">
              <mxPoint x="519" y="636" />
            </Array>
          </mxGeometry>
        </mxCell>
        <mxCell id="sh82yEUyUhNnfkS9f2lk-47" value="Notifikasi&amp;nbsp;&lt;div&gt;kepada pelanggan&lt;/div&gt;&lt;div&gt;apabila servis sudah&lt;/div&gt;&lt;div&gt;&amp;nbsp;selesai&lt;/div&gt;" style="text;html=1;align=center;verticalAlign=middle;resizable=0;points=[];autosize=1;strokeColor=none;fillColor=none;fontSize=16;" vertex="1" parent="1">
          <mxGeometry x="145" y="620" width="170" height="90" as="geometry" />
        </mxCell>
        <mxCell id="sh82yEUyUhNnfkS9f2lk-48" value="Maklumat&amp;nbsp;&lt;div&gt;pekerja&lt;/div&gt;" style="text;html=1;align=center;verticalAlign=middle;resizable=0;points=[];autosize=1;strokeColor=none;fillColor=none;fontSize=16;" vertex="1" parent="1">
          <mxGeometry x="1483" y="513.5" width="100" height="50" as="geometry" />
        </mxCell>
        <mxCell id="sh82yEUyUhNnfkS9f2lk-49" value="" style="group" vertex="1" connectable="0" parent="1">
          <mxGeometry x="310" y="930" width="200" height="100" as="geometry" />
        </mxCell>
        <mxCell id="sh82yEUyUhNnfkS9f2lk-50" value="&lt;font style=&quot;font-size: 17px;&quot;&gt;4.0&lt;/font&gt;" style="swimlane;whiteSpace=wrap;html=1;" vertex="1" parent="sh82yEUyUhNnfkS9f2lk-49">
          <mxGeometry width="200" height="100" as="geometry" />
        </mxCell>
        <mxCell id="sh82yEUyUhNnfkS9f2lk-51" value="&lt;span style=&quot;font-size: 16px;&quot;&gt;Dapat Harga Total&lt;/span&gt;" style="text;html=1;align=center;verticalAlign=middle;resizable=0;points=[];autosize=1;strokeColor=none;fillColor=none;" vertex="1" parent="sh82yEUyUhNnfkS9f2lk-49">
          <mxGeometry x="25" y="46" width="150" height="30" as="geometry" />
        </mxCell>
        <mxCell id="sh82yEUyUhNnfkS9f2lk-54" style="edgeStyle=orthogonalEdgeStyle;rounded=0;orthogonalLoop=1;jettySize=auto;html=1;exitX=0.25;exitY=1;exitDx=0;exitDy=0;entryX=1;entryY=0.5;entryDx=0;entryDy=0;fontSize=12;startSize=8;endSize=8;" edge="1" parent="1" source="goAQ-7LBnzfhG2BFl0lH-40" target="sh82yEUyUhNnfkS9f2lk-50">
          <mxGeometry relative="1" as="geometry">
            <Array as="points">
              <mxPoint x="690" y="820" />
              <mxPoint x="690" y="920" />
              <mxPoint x="540" y="920" />
              <mxPoint x="540" y="980" />
            </Array>
          </mxGeometry>
        </mxCell>
        <mxCell id="sh82yEUyUhNnfkS9f2lk-55" value="Harga&amp;nbsp;&lt;div&gt;Total&lt;/div&gt;" style="text;html=1;align=center;verticalAlign=middle;resizable=0;points=[];autosize=1;strokeColor=none;fillColor=none;fontSize=16;" vertex="1" parent="1">
          <mxGeometry x="595" y="861.5" width="70" height="50" as="geometry" />
        </mxCell>
        <mxCell id="sh82yEUyUhNnfkS9f2lk-56" value="Harga&amp;nbsp;&lt;div&gt;Total&lt;/div&gt;" style="text;html=1;align=center;verticalAlign=middle;resizable=0;points=[];autosize=1;strokeColor=none;fillColor=none;fontSize=16;" vertex="1" parent="1">
          <mxGeometry x="190" y="930" width="70" height="50" as="geometry" />
        </mxCell>
        <mxCell id="sh82yEUyUhNnfkS9f2lk-57" style="edgeStyle=orthogonalEdgeStyle;rounded=0;orthogonalLoop=1;jettySize=auto;html=1;exitX=0;exitY=0.5;exitDx=0;exitDy=0;entryX=0.088;entryY=0.966;entryDx=0;entryDy=0;entryPerimeter=0;fontSize=12;startSize=8;endSize=8;" edge="1" parent="1" source="sh82yEUyUhNnfkS9f2lk-50" target="goAQ-7LBnzfhG2BFl0lH-5">
          <mxGeometry relative="1" as="geometry" />
        </mxCell>
        <mxCell id="sh82yEUyUhNnfkS9f2lk-62" value="" style="group" vertex="1" connectable="0" parent="1">
          <mxGeometry x="1040" y="720" width="205" height="100" as="geometry" />
        </mxCell>
        <mxCell id="sh82yEUyUhNnfkS9f2lk-64" value="&lt;font style=&quot;font-size: 17px;&quot;&gt;13.0&lt;/font&gt;" style="swimlane;whiteSpace=wrap;html=1;" vertex="1" parent="sh82yEUyUhNnfkS9f2lk-62">
          <mxGeometry width="200" height="100" as="geometry" />
        </mxCell>
        <mxCell id="sh82yEUyUhNnfkS9f2lk-65" value="&lt;span style=&quot;font-size: 16px;&quot;&gt;Kemaskini kos pembaikan&lt;/span&gt;&lt;div&gt;&lt;span style=&quot;font-size: 16px;&quot;&gt;kenderaan&lt;/span&gt;&lt;/div&gt;" style="text;html=1;align=center;verticalAlign=middle;resizable=0;points=[];autosize=1;strokeColor=none;fillColor=none;" vertex="1" parent="sh82yEUyUhNnfkS9f2lk-62">
          <mxGeometry x="-5" y="36" width="210" height="50" as="geometry" />
        </mxCell>
        <mxCell id="sh82yEUyUhNnfkS9f2lk-66" style="edgeStyle=orthogonalEdgeStyle;rounded=0;orthogonalLoop=1;jettySize=auto;html=1;exitX=0.5;exitY=1;exitDx=0;exitDy=0;entryX=1.018;entryY=0.438;entryDx=0;entryDy=0;entryPerimeter=0;fontSize=12;startSize=8;endSize=8;" edge="1" parent="1" source="goAQ-7LBnzfhG2BFl0lH-8" target="sh82yEUyUhNnfkS9f2lk-65">
          <mxGeometry relative="1" as="geometry">
            <Array as="points">
              <mxPoint x="1402" y="781" />
              <mxPoint x="1249" y="781" />
            </Array>
          </mxGeometry>
        </mxCell>
        <mxCell id="sh82yEUyUhNnfkS9f2lk-67" style="edgeStyle=orthogonalEdgeStyle;rounded=0;orthogonalLoop=1;jettySize=auto;html=1;entryX=0.5;entryY=0;entryDx=0;entryDy=0;fontSize=12;startSize=8;endSize=8;" edge="1" parent="1" source="sh82yEUyUhNnfkS9f2lk-65" target="goAQ-7LBnzfhG2BFl0lH-40">
          <mxGeometry relative="1" as="geometry">
            <Array as="points">
              <mxPoint x="1000" y="781" />
              <mxPoint x="1000" y="730" />
              <mxPoint x="753" y="730" />
            </Array>
          </mxGeometry>
        </mxCell>
        <mxCell id="sh82yEUyUhNnfkS9f2lk-68" value="Harga Total servis" style="text;html=1;align=center;verticalAlign=middle;resizable=0;points=[];autosize=1;strokeColor=none;fillColor=none;fontSize=16;" vertex="1" parent="1">
          <mxGeometry x="1250" y="748.5" width="150" height="30" as="geometry" />
        </mxCell>
        <mxCell id="sh82yEUyUhNnfkS9f2lk-69" value="Harga Total servis" style="text;html=1;align=center;verticalAlign=middle;resizable=0;points=[];autosize=1;strokeColor=none;fillColor=none;fontSize=16;" vertex="1" parent="1">
          <mxGeometry x="810" y="695" width="150" height="30" as="geometry" />
        </mxCell>
        <mxCell id="sh82yEUyUhNnfkS9f2lk-70" value="" style="group" vertex="1" connectable="0" parent="1">
          <mxGeometry x="1520" y="1090" width="289" height="70" as="geometry" />
        </mxCell>
        <mxCell id="sh82yEUyUhNnfkS9f2lk-71" value="&lt;font style=&quot;font-size: 20px;&quot;&gt;&amp;nbsp; &amp;nbsp; &amp;nbsp; &amp;nbsp; &amp;nbsp; &amp;nbsp; Jadual Pengurus&lt;/font&gt;" style="rounded=0;whiteSpace=wrap;html=1;" vertex="1" parent="sh82yEUyUhNnfkS9f2lk-70">
          <mxGeometry width="289" height="70" as="geometry" />
        </mxCell>
        <mxCell id="sh82yEUyUhNnfkS9f2lk-72" value="" style="endArrow=none;html=1;rounded=0;entryX=0.25;entryY=0;entryDx=0;entryDy=0;exitX=0.25;exitY=1;exitDx=0;exitDy=0;" edge="1" parent="sh82yEUyUhNnfkS9f2lk-70" source="sh82yEUyUhNnfkS9f2lk-71" target="sh82yEUyUhNnfkS9f2lk-71">
          <mxGeometry width="50" height="50" relative="1" as="geometry">
            <mxPoint x="370" y="140" as="sourcePoint" />
            <mxPoint x="420" y="90" as="targetPoint" />
          </mxGeometry>
        </mxCell>
        <mxCell id="sh82yEUyUhNnfkS9f2lk-73" value="D7" style="text;html=1;align=center;verticalAlign=middle;whiteSpace=wrap;rounded=0;rotation=-90;fontSize=23;fontStyle=1" vertex="1" parent="sh82yEUyUhNnfkS9f2lk-70">
          <mxGeometry x="10" y="20" width="60" height="30" as="geometry" />
        </mxCell>
        <mxCell id="sh82yEUyUhNnfkS9f2lk-74" value="" style="group" vertex="1" connectable="0" parent="1">
          <mxGeometry x="1580" y="800" width="200" height="100" as="geometry" />
        </mxCell>
        <mxCell id="sh82yEUyUhNnfkS9f2lk-75" value="&lt;font style=&quot;font-size: 17px;&quot;&gt;15.0&lt;/font&gt;" style="swimlane;whiteSpace=wrap;html=1;" vertex="1" parent="sh82yEUyUhNnfkS9f2lk-74">
          <mxGeometry width="200" height="100" as="geometry" />
        </mxCell>
        <mxCell id="sh82yEUyUhNnfkS9f2lk-76" value="&lt;span style=&quot;font-size: 16px;&quot;&gt;Log Masuk&lt;/span&gt;" style="text;html=1;align=center;verticalAlign=middle;resizable=0;points=[];autosize=1;strokeColor=none;fillColor=none;" vertex="1" parent="sh82yEUyUhNnfkS9f2lk-74">
          <mxGeometry x="50" y="46" width="100" height="30" as="geometry" />
        </mxCell>
        <mxCell id="sh82yEUyUhNnfkS9f2lk-77" style="edgeStyle=none;curved=1;rounded=0;orthogonalLoop=1;jettySize=auto;html=1;exitX=0.5;exitY=1;exitDx=0;exitDy=0;entryX=0.546;entryY=0.071;entryDx=0;entryDy=0;entryPerimeter=0;fontSize=12;startSize=8;endSize=8;" edge="1" parent="1" source="sh82yEUyUhNnfkS9f2lk-75" target="sh82yEUyUhNnfkS9f2lk-71">
          <mxGeometry relative="1" as="geometry" />
        </mxCell>
        <mxCell id="sh82yEUyUhNnfkS9f2lk-79" value="Maklumat&lt;div&gt;Pengurus&lt;/div&gt;" style="text;html=1;align=center;verticalAlign=middle;resizable=0;points=[];autosize=1;strokeColor=none;fillColor=none;fontSize=16;" vertex="1" parent="1">
          <mxGeometry x="1449" y="781" width="90" height="50" as="geometry" />
        </mxCell>
        <mxCell id="sh82yEUyUhNnfkS9f2lk-80" value="Maklumat&lt;div&gt;Pengurus&lt;/div&gt;&lt;div&gt;diproses&lt;/div&gt;" style="text;html=1;align=center;verticalAlign=middle;resizable=0;points=[];autosize=1;strokeColor=none;fillColor=none;fontSize=16;" vertex="1" parent="1">
          <mxGeometry x="1590" y="970" width="90" height="70" as="geometry" />
        </mxCell>
      </root>
    </mxGraphModel>
  </diagram>
  <diagram id="CcQw4nyEWK9XxOJSg_eN" name="Page-2">
    <mxGraphModel dx="1243" dy="2140" grid="1" gridSize="10" guides="1" tooltips="1" connect="1" arrows="1" fold="1" page="1" pageScale="1" pageWidth="1700" pageHeight="1100" math="0" shadow="0">
      <root>
        <mxCell id="0" />
        <mxCell id="1" parent="0" />
        <mxCell id="hYWeSFwZHZ8aJ64yLIm--1" style="edgeStyle=orthogonalEdgeStyle;rounded=0;orthogonalLoop=1;jettySize=auto;html=1;exitX=1;exitY=0.75;exitDx=0;exitDy=0;entryX=0;entryY=0.5;entryDx=0;entryDy=0;" edge="1" parent="1" source="hYWeSFwZHZ8aJ64yLIm--5" target="hYWeSFwZHZ8aJ64yLIm--62">
          <mxGeometry relative="1" as="geometry">
            <Array as="points">
              <mxPoint x="280" y="301" />
              <mxPoint x="280" y="404" />
            </Array>
          </mxGeometry>
        </mxCell>
        <mxCell id="hYWeSFwZHZ8aJ64yLIm--2" style="edgeStyle=orthogonalEdgeStyle;rounded=0;orthogonalLoop=1;jettySize=auto;html=1;exitX=1;exitY=1;exitDx=0;exitDy=0;" edge="1" parent="1" source="hYWeSFwZHZ8aJ64yLIm--5">
          <mxGeometry relative="1" as="geometry">
            <mxPoint x="440" y="544" as="targetPoint" />
            <Array as="points">
              <mxPoint x="260" y="317" />
              <mxPoint x="260" y="544" />
            </Array>
          </mxGeometry>
        </mxCell>
        <mxCell id="hYWeSFwZHZ8aJ64yLIm--3" style="edgeStyle=orthogonalEdgeStyle;rounded=0;orthogonalLoop=1;jettySize=auto;html=1;exitX=0.75;exitY=1;exitDx=0;exitDy=0;" edge="1" parent="1" source="hYWeSFwZHZ8aJ64yLIm--5">
          <mxGeometry relative="1" as="geometry">
            <mxPoint x="440" y="704" as="targetPoint" />
            <Array as="points">
              <mxPoint x="192" y="334" />
              <mxPoint x="240" y="334" />
              <mxPoint x="240" y="704" />
            </Array>
          </mxGeometry>
        </mxCell>
        <mxCell id="hYWeSFwZHZ8aJ64yLIm--4" style="edgeStyle=orthogonalEdgeStyle;rounded=0;orthogonalLoop=1;jettySize=auto;html=1;exitX=0.5;exitY=1;exitDx=0;exitDy=0;entryX=0;entryY=0.5;entryDx=0;entryDy=0;" edge="1" parent="1" source="hYWeSFwZHZ8aJ64yLIm--5" target="hYWeSFwZHZ8aJ64yLIm--59">
          <mxGeometry relative="1" as="geometry">
            <Array as="points">
              <mxPoint x="151" y="374" />
              <mxPoint x="210" y="374" />
              <mxPoint x="210" y="844" />
            </Array>
          </mxGeometry>
        </mxCell>
        <mxCell id="hYWeSFwZHZ8aJ64yLIm--5" value="Pelanggan" style="rounded=0;whiteSpace=wrap;html=1;fontSize=17;" vertex="1" parent="1">
          <mxGeometry x="70" y="254" width="162" height="63" as="geometry" />
        </mxCell>
        <mxCell id="hYWeSFwZHZ8aJ64yLIm--6" style="edgeStyle=orthogonalEdgeStyle;rounded=0;orthogonalLoop=1;jettySize=auto;html=1;entryX=1;entryY=0.75;entryDx=0;entryDy=0;exitX=0;exitY=0.5;exitDx=0;exitDy=0;" edge="1" parent="1" source="hYWeSFwZHZ8aJ64yLIm--8" target="hYWeSFwZHZ8aJ64yLIm--70">
          <mxGeometry relative="1" as="geometry">
            <Array as="points">
              <mxPoint x="1550" y="632" />
              <mxPoint x="1550" y="719" />
            </Array>
          </mxGeometry>
        </mxCell>
        <mxCell id="hYWeSFwZHZ8aJ64yLIm--7" style="edgeStyle=orthogonalEdgeStyle;rounded=0;orthogonalLoop=1;jettySize=auto;html=1;exitX=1;exitY=0.5;exitDx=0;exitDy=0;entryX=0.5;entryY=1;entryDx=0;entryDy=0;" edge="1" parent="1" source="hYWeSFwZHZ8aJ64yLIm--8" target="hYWeSFwZHZ8aJ64yLIm--73">
          <mxGeometry relative="1" as="geometry">
            <mxPoint x="1440" y="904" as="targetPoint" />
          </mxGeometry>
        </mxCell>
        <mxCell id="hYWeSFwZHZ8aJ64yLIm--8" value="Pekerja" style="rounded=0;whiteSpace=wrap;html=1;fontSize=17;" vertex="1" parent="1">
          <mxGeometry x="1610" y="601" width="162" height="63" as="geometry" />
        </mxCell>
        <mxCell id="hYWeSFwZHZ8aJ64yLIm--9" style="edgeStyle=orthogonalEdgeStyle;rounded=0;orthogonalLoop=1;jettySize=auto;html=1;entryX=1;entryY=0.5;entryDx=0;entryDy=0;exitX=0.5;exitY=1;exitDx=0;exitDy=0;" edge="1" parent="1" source="hYWeSFwZHZ8aJ64yLIm--14" target="hYWeSFwZHZ8aJ64yLIm--79">
          <mxGeometry relative="1" as="geometry" />
        </mxCell>
        <mxCell id="hYWeSFwZHZ8aJ64yLIm--10" style="edgeStyle=orthogonalEdgeStyle;rounded=0;orthogonalLoop=1;jettySize=auto;html=1;exitX=0;exitY=0.5;exitDx=0;exitDy=0;entryX=1;entryY=0.5;entryDx=0;entryDy=0;" edge="1" parent="1" source="hYWeSFwZHZ8aJ64yLIm--14" target="hYWeSFwZHZ8aJ64yLIm--85">
          <mxGeometry relative="1" as="geometry" />
        </mxCell>
        <mxCell id="hYWeSFwZHZ8aJ64yLIm--11" style="edgeStyle=orthogonalEdgeStyle;rounded=0;orthogonalLoop=1;jettySize=auto;html=1;exitX=0.75;exitY=1;exitDx=0;exitDy=0;entryX=1;entryY=0.75;entryDx=0;entryDy=0;" edge="1" parent="1" source="hYWeSFwZHZ8aJ64yLIm--14" target="hYWeSFwZHZ8aJ64yLIm--76">
          <mxGeometry relative="1" as="geometry" />
        </mxCell>
        <mxCell id="hYWeSFwZHZ8aJ64yLIm--12" style="edgeStyle=orthogonalEdgeStyle;rounded=0;orthogonalLoop=1;jettySize=auto;html=1;entryX=1;entryY=0.5;entryDx=0;entryDy=0;exitX=1;exitY=0.5;exitDx=0;exitDy=0;" edge="1" parent="1" source="hYWeSFwZHZ8aJ64yLIm--14" target="hYWeSFwZHZ8aJ64yLIm--67">
          <mxGeometry relative="1" as="geometry" />
        </mxCell>
        <mxCell id="hYWeSFwZHZ8aJ64yLIm--13" style="edgeStyle=orthogonalEdgeStyle;rounded=0;orthogonalLoop=1;jettySize=auto;html=1;exitX=1;exitY=0.25;exitDx=0;exitDy=0;" edge="1" parent="1" source="hYWeSFwZHZ8aJ64yLIm--14">
          <mxGeometry relative="1" as="geometry">
            <mxPoint x="1480" y="394" as="targetPoint" />
            <Array as="points">
              <mxPoint x="1860" y="790" />
              <mxPoint x="1860" y="394" />
            </Array>
          </mxGeometry>
        </mxCell>
        <mxCell id="hYWeSFwZHZ8aJ64yLIm--14" value="Admin" style="rounded=0;whiteSpace=wrap;html=1;fontSize=17;" vertex="1" parent="1">
          <mxGeometry x="1610" y="774" width="162" height="63" as="geometry" />
        </mxCell>
        <mxCell id="hYWeSFwZHZ8aJ64yLIm--15" value="" style="group" vertex="1" connectable="0" parent="1">
          <mxGeometry x="740" y="245" width="289" height="70" as="geometry" />
        </mxCell>
        <mxCell id="hYWeSFwZHZ8aJ64yLIm--16" value="&lt;font style=&quot;font-size: 20px;&quot;&gt;&amp;nbsp; &amp;nbsp; &amp;nbsp; &amp;nbsp; &amp;nbsp; &amp;nbsp; Maklumat Pelanggan&lt;/font&gt;" style="rounded=0;whiteSpace=wrap;html=1;" vertex="1" parent="hYWeSFwZHZ8aJ64yLIm--15">
          <mxGeometry width="289" height="70" as="geometry" />
        </mxCell>
        <mxCell id="hYWeSFwZHZ8aJ64yLIm--17" value="" style="endArrow=none;html=1;rounded=0;entryX=0.25;entryY=0;entryDx=0;entryDy=0;exitX=0.25;exitY=1;exitDx=0;exitDy=0;" edge="1" parent="hYWeSFwZHZ8aJ64yLIm--15" source="hYWeSFwZHZ8aJ64yLIm--16" target="hYWeSFwZHZ8aJ64yLIm--16">
          <mxGeometry width="50" height="50" relative="1" as="geometry">
            <mxPoint x="370" y="140" as="sourcePoint" />
            <mxPoint x="420" y="90" as="targetPoint" />
          </mxGeometry>
        </mxCell>
        <mxCell id="hYWeSFwZHZ8aJ64yLIm--18" value="D1" style="text;html=1;align=center;verticalAlign=middle;whiteSpace=wrap;rounded=0;rotation=-90;fontSize=23;fontStyle=1" vertex="1" parent="hYWeSFwZHZ8aJ64yLIm--15">
          <mxGeometry x="10" y="20" width="60" height="30" as="geometry" />
        </mxCell>
        <mxCell id="hYWeSFwZHZ8aJ64yLIm--19" value="" style="group" vertex="1" connectable="0" parent="1">
          <mxGeometry x="740" y="509" width="289" height="70" as="geometry" />
        </mxCell>
        <mxCell id="hYWeSFwZHZ8aJ64yLIm--20" value="&lt;font style=&quot;font-size: 20px;&quot;&gt;&amp;nbsp; &amp;nbsp; &amp;nbsp; &amp;nbsp; &amp;nbsp; &amp;nbsp; Maklumat Tempahan&lt;/font&gt;" style="rounded=0;whiteSpace=wrap;html=1;" vertex="1" parent="hYWeSFwZHZ8aJ64yLIm--19">
          <mxGeometry width="289" height="70" as="geometry" />
        </mxCell>
        <mxCell id="hYWeSFwZHZ8aJ64yLIm--21" value="" style="endArrow=none;html=1;rounded=0;entryX=0.25;entryY=0;entryDx=0;entryDy=0;exitX=0.25;exitY=1;exitDx=0;exitDy=0;" edge="1" parent="hYWeSFwZHZ8aJ64yLIm--19" source="hYWeSFwZHZ8aJ64yLIm--20" target="hYWeSFwZHZ8aJ64yLIm--20">
          <mxGeometry width="50" height="50" relative="1" as="geometry">
            <mxPoint x="370" y="140" as="sourcePoint" />
            <mxPoint x="420" y="90" as="targetPoint" />
          </mxGeometry>
        </mxCell>
        <mxCell id="hYWeSFwZHZ8aJ64yLIm--22" value="D3" style="text;html=1;align=center;verticalAlign=middle;whiteSpace=wrap;rounded=0;rotation=-90;fontSize=23;fontStyle=1" vertex="1" parent="hYWeSFwZHZ8aJ64yLIm--19">
          <mxGeometry x="10" y="20" width="60" height="30" as="geometry" />
        </mxCell>
        <mxCell id="hYWeSFwZHZ8aJ64yLIm--23" value="" style="group" vertex="1" connectable="0" parent="1">
          <mxGeometry x="740" y="369" width="289" height="70" as="geometry" />
        </mxCell>
        <mxCell id="hYWeSFwZHZ8aJ64yLIm--24" value="&lt;font style=&quot;font-size: 20px;&quot;&gt;&amp;nbsp; &amp;nbsp; &amp;nbsp; &amp;nbsp; &amp;nbsp; Maklumat Servis&lt;/font&gt;" style="rounded=0;whiteSpace=wrap;html=1;" vertex="1" parent="hYWeSFwZHZ8aJ64yLIm--23">
          <mxGeometry width="289" height="70" as="geometry" />
        </mxCell>
        <mxCell id="hYWeSFwZHZ8aJ64yLIm--25" value="" style="endArrow=none;html=1;rounded=0;entryX=0.25;entryY=0;entryDx=0;entryDy=0;exitX=0.25;exitY=1;exitDx=0;exitDy=0;" edge="1" parent="hYWeSFwZHZ8aJ64yLIm--23" source="hYWeSFwZHZ8aJ64yLIm--24" target="hYWeSFwZHZ8aJ64yLIm--24">
          <mxGeometry width="50" height="50" relative="1" as="geometry">
            <mxPoint x="370" y="140" as="sourcePoint" />
            <mxPoint x="420" y="90" as="targetPoint" />
          </mxGeometry>
        </mxCell>
        <mxCell id="hYWeSFwZHZ8aJ64yLIm--26" value="D2" style="text;html=1;align=center;verticalAlign=middle;whiteSpace=wrap;rounded=0;rotation=-90;fontSize=23;fontStyle=1" vertex="1" parent="hYWeSFwZHZ8aJ64yLIm--23">
          <mxGeometry x="10" y="20" width="60" height="30" as="geometry" />
        </mxCell>
        <mxCell id="hYWeSFwZHZ8aJ64yLIm--27" value="" style="group" vertex="1" connectable="0" parent="1">
          <mxGeometry x="740" y="664" width="289" height="70" as="geometry" />
        </mxCell>
        <mxCell id="hYWeSFwZHZ8aJ64yLIm--28" value="&lt;font style=&quot;font-size: 20px;&quot;&gt;&amp;nbsp; &amp;nbsp; &amp;nbsp; &amp;nbsp; &amp;nbsp; Maklumat&amp;nbsp;&lt;/font&gt;&lt;div&gt;&lt;font style=&quot;font-size: 20px;&quot;&gt;&amp;nbsp; &amp;nbsp; &amp;nbsp; &amp;nbsp; Laporan Servis&lt;/font&gt;&lt;/div&gt;" style="rounded=0;whiteSpace=wrap;html=1;" vertex="1" parent="hYWeSFwZHZ8aJ64yLIm--27">
          <mxGeometry width="289" height="70" as="geometry" />
        </mxCell>
        <mxCell id="hYWeSFwZHZ8aJ64yLIm--29" value="" style="endArrow=none;html=1;rounded=0;entryX=0.25;entryY=0;entryDx=0;entryDy=0;exitX=0.25;exitY=1;exitDx=0;exitDy=0;" edge="1" parent="hYWeSFwZHZ8aJ64yLIm--27" source="hYWeSFwZHZ8aJ64yLIm--28" target="hYWeSFwZHZ8aJ64yLIm--28">
          <mxGeometry width="50" height="50" relative="1" as="geometry">
            <mxPoint x="370" y="140" as="sourcePoint" />
            <mxPoint x="420" y="90" as="targetPoint" />
          </mxGeometry>
        </mxCell>
        <mxCell id="hYWeSFwZHZ8aJ64yLIm--30" value="D4" style="text;html=1;align=center;verticalAlign=middle;whiteSpace=wrap;rounded=0;rotation=-90;fontSize=23;fontStyle=1" vertex="1" parent="hYWeSFwZHZ8aJ64yLIm--27">
          <mxGeometry x="10" y="20" width="60" height="30" as="geometry" />
        </mxCell>
        <mxCell id="hYWeSFwZHZ8aJ64yLIm--31" value="" style="group" vertex="1" connectable="0" parent="1">
          <mxGeometry x="740" y="1254" width="289" height="70" as="geometry" />
        </mxCell>
        <mxCell id="hYWeSFwZHZ8aJ64yLIm--32" value="&lt;font style=&quot;font-size: 20px;&quot;&gt;&amp;nbsp; &amp;nbsp; &amp;nbsp; &amp;nbsp; &amp;nbsp; Maklumat Stok&lt;/font&gt;" style="rounded=0;whiteSpace=wrap;html=1;" vertex="1" parent="hYWeSFwZHZ8aJ64yLIm--31">
          <mxGeometry width="289" height="70" as="geometry" />
        </mxCell>
        <mxCell id="hYWeSFwZHZ8aJ64yLIm--33" value="" style="endArrow=none;html=1;rounded=0;entryX=0.25;entryY=0;entryDx=0;entryDy=0;exitX=0.25;exitY=1;exitDx=0;exitDy=0;" edge="1" parent="hYWeSFwZHZ8aJ64yLIm--31" source="hYWeSFwZHZ8aJ64yLIm--32" target="hYWeSFwZHZ8aJ64yLIm--32">
          <mxGeometry width="50" height="50" relative="1" as="geometry">
            <mxPoint x="370" y="140" as="sourcePoint" />
            <mxPoint x="420" y="90" as="targetPoint" />
          </mxGeometry>
        </mxCell>
        <mxCell id="hYWeSFwZHZ8aJ64yLIm--34" value="D8" style="text;html=1;align=center;verticalAlign=middle;whiteSpace=wrap;rounded=0;rotation=-90;fontSize=23;fontStyle=1" vertex="1" parent="hYWeSFwZHZ8aJ64yLIm--31">
          <mxGeometry x="10" y="20" width="60" height="30" as="geometry" />
        </mxCell>
        <mxCell id="hYWeSFwZHZ8aJ64yLIm--35" value="" style="group" vertex="1" connectable="0" parent="1">
          <mxGeometry x="740" y="1094" width="289" height="70" as="geometry" />
        </mxCell>
        <mxCell id="hYWeSFwZHZ8aJ64yLIm--36" value="&lt;font style=&quot;font-size: 20px;&quot;&gt;&amp;nbsp; &amp;nbsp; &amp;nbsp; &amp;nbsp; &amp;nbsp; &amp;nbsp; Maklumat Pekerja&lt;/font&gt;" style="rounded=0;whiteSpace=wrap;html=1;" vertex="1" parent="hYWeSFwZHZ8aJ64yLIm--35">
          <mxGeometry width="289" height="70" as="geometry" />
        </mxCell>
        <mxCell id="hYWeSFwZHZ8aJ64yLIm--37" value="" style="endArrow=none;html=1;rounded=0;entryX=0.25;entryY=0;entryDx=0;entryDy=0;exitX=0.25;exitY=1;exitDx=0;exitDy=0;" edge="1" parent="hYWeSFwZHZ8aJ64yLIm--35" source="hYWeSFwZHZ8aJ64yLIm--36" target="hYWeSFwZHZ8aJ64yLIm--36">
          <mxGeometry width="50" height="50" relative="1" as="geometry">
            <mxPoint x="370" y="140" as="sourcePoint" />
            <mxPoint x="420" y="90" as="targetPoint" />
          </mxGeometry>
        </mxCell>
        <mxCell id="hYWeSFwZHZ8aJ64yLIm--38" value="D7" style="text;html=1;align=center;verticalAlign=middle;whiteSpace=wrap;rounded=0;rotation=-90;fontSize=23;fontStyle=1" vertex="1" parent="hYWeSFwZHZ8aJ64yLIm--35">
          <mxGeometry x="10" y="20" width="60" height="30" as="geometry" />
        </mxCell>
        <mxCell id="hYWeSFwZHZ8aJ64yLIm--39" value="" style="group" vertex="1" connectable="0" parent="1">
          <mxGeometry x="740" y="814" width="289" height="70" as="geometry" />
        </mxCell>
        <mxCell id="hYWeSFwZHZ8aJ64yLIm--40" value="&lt;font style=&quot;font-size: 20px;&quot;&gt;&amp;nbsp; &amp;nbsp; &amp;nbsp; &amp;nbsp; &amp;nbsp; &amp;nbsp; &amp;nbsp;Maklumat Kewangan&lt;/font&gt;" style="rounded=0;whiteSpace=wrap;html=1;" vertex="1" parent="hYWeSFwZHZ8aJ64yLIm--39">
          <mxGeometry width="289" height="70" as="geometry" />
        </mxCell>
        <mxCell id="hYWeSFwZHZ8aJ64yLIm--41" value="" style="endArrow=none;html=1;rounded=0;entryX=0.25;entryY=0;entryDx=0;entryDy=0;exitX=0.25;exitY=1;exitDx=0;exitDy=0;" edge="1" parent="hYWeSFwZHZ8aJ64yLIm--39" source="hYWeSFwZHZ8aJ64yLIm--40" target="hYWeSFwZHZ8aJ64yLIm--40">
          <mxGeometry width="50" height="50" relative="1" as="geometry">
            <mxPoint x="370" y="140" as="sourcePoint" />
            <mxPoint x="420" y="90" as="targetPoint" />
          </mxGeometry>
        </mxCell>
        <mxCell id="hYWeSFwZHZ8aJ64yLIm--42" value="D6" style="text;html=1;align=center;verticalAlign=middle;whiteSpace=wrap;rounded=0;rotation=-90;fontSize=23;fontStyle=1" vertex="1" parent="hYWeSFwZHZ8aJ64yLIm--39">
          <mxGeometry x="10" y="20" width="60" height="30" as="geometry" />
        </mxCell>
        <mxCell id="hYWeSFwZHZ8aJ64yLIm--43" value="" style="group" vertex="1" connectable="0" parent="1">
          <mxGeometry x="740" y="954" width="289" height="70" as="geometry" />
        </mxCell>
        <mxCell id="hYWeSFwZHZ8aJ64yLIm--44" value="&lt;font style=&quot;font-size: 20px;&quot;&gt;&amp;nbsp; &amp;nbsp; &amp;nbsp; &amp;nbsp; &amp;nbsp; Jadual Laporan&lt;/font&gt;" style="rounded=0;whiteSpace=wrap;html=1;" vertex="1" parent="hYWeSFwZHZ8aJ64yLIm--43">
          <mxGeometry width="289" height="70" as="geometry" />
        </mxCell>
        <mxCell id="hYWeSFwZHZ8aJ64yLIm--45" value="" style="endArrow=none;html=1;rounded=0;entryX=0.25;entryY=0;entryDx=0;entryDy=0;exitX=0.25;exitY=1;exitDx=0;exitDy=0;" edge="1" parent="hYWeSFwZHZ8aJ64yLIm--43" source="hYWeSFwZHZ8aJ64yLIm--44" target="hYWeSFwZHZ8aJ64yLIm--44">
          <mxGeometry width="50" height="50" relative="1" as="geometry">
            <mxPoint x="370" y="140" as="sourcePoint" />
            <mxPoint x="420" y="90" as="targetPoint" />
          </mxGeometry>
        </mxCell>
        <mxCell id="hYWeSFwZHZ8aJ64yLIm--46" value="D5" style="text;html=1;align=center;verticalAlign=middle;whiteSpace=wrap;rounded=0;rotation=-90;fontSize=23;fontStyle=1" vertex="1" parent="hYWeSFwZHZ8aJ64yLIm--43">
          <mxGeometry x="10" y="20" width="60" height="30" as="geometry" />
        </mxCell>
        <mxCell id="hYWeSFwZHZ8aJ64yLIm--47" value="" style="group" vertex="1" connectable="0" parent="1">
          <mxGeometry x="439" y="220" width="200" height="100" as="geometry" />
        </mxCell>
        <mxCell id="hYWeSFwZHZ8aJ64yLIm--48" value="&lt;font style=&quot;font-size: 17px;&quot;&gt;1.0&lt;/font&gt;" style="swimlane;whiteSpace=wrap;html=1;" vertex="1" parent="hYWeSFwZHZ8aJ64yLIm--47">
          <mxGeometry width="200" height="100" as="geometry" />
        </mxCell>
        <mxCell id="hYWeSFwZHZ8aJ64yLIm--49" value="&lt;font style=&quot;font-size: 16px;&quot;&gt;Pendaftaran Pelanggan&lt;/font&gt;" style="text;html=1;align=center;verticalAlign=middle;resizable=0;points=[];autosize=1;strokeColor=none;fillColor=none;" vertex="1" parent="hYWeSFwZHZ8aJ64yLIm--47">
          <mxGeometry x="5" y="46" width="190" height="30" as="geometry" />
        </mxCell>
        <mxCell id="hYWeSFwZHZ8aJ64yLIm--50" value="" style="group" vertex="1" connectable="0" parent="1">
          <mxGeometry x="440" y="494" width="200" height="100" as="geometry" />
        </mxCell>
        <mxCell id="hYWeSFwZHZ8aJ64yLIm--51" value="&lt;font style=&quot;font-size: 17px;&quot;&gt;3.0&lt;/font&gt;" style="swimlane;whiteSpace=wrap;html=1;" vertex="1" parent="hYWeSFwZHZ8aJ64yLIm--50">
          <mxGeometry width="200" height="100" as="geometry" />
        </mxCell>
        <mxCell id="hYWeSFwZHZ8aJ64yLIm--52" value="&lt;span style=&quot;font-size: 16px;&quot;&gt;Tempah Servis&lt;/span&gt;" style="text;html=1;align=center;verticalAlign=middle;resizable=0;points=[];autosize=1;strokeColor=none;fillColor=none;" vertex="1" parent="hYWeSFwZHZ8aJ64yLIm--50">
          <mxGeometry x="35" y="46" width="130" height="30" as="geometry" />
        </mxCell>
        <mxCell id="hYWeSFwZHZ8aJ64yLIm--53" value="" style="group" vertex="1" connectable="0" parent="1">
          <mxGeometry x="440" y="645" width="205" height="100" as="geometry" />
        </mxCell>
        <mxCell id="hYWeSFwZHZ8aJ64yLIm--54" style="edgeStyle=orthogonalEdgeStyle;rounded=0;orthogonalLoop=1;jettySize=auto;html=1;exitX=1;exitY=0.5;exitDx=0;exitDy=0;" edge="1" parent="hYWeSFwZHZ8aJ64yLIm--53" source="hYWeSFwZHZ8aJ64yLIm--55">
          <mxGeometry relative="1" as="geometry">
            <mxPoint x="300" y="50.529411764705856" as="targetPoint" />
          </mxGeometry>
        </mxCell>
        <mxCell id="hYWeSFwZHZ8aJ64yLIm--55" value="&lt;font style=&quot;font-size: 17px;&quot;&gt;4.0&lt;/font&gt;" style="swimlane;whiteSpace=wrap;html=1;" vertex="1" parent="hYWeSFwZHZ8aJ64yLIm--53">
          <mxGeometry width="200" height="100" as="geometry" />
        </mxCell>
        <mxCell id="hYWeSFwZHZ8aJ64yLIm--56" value="&lt;font style=&quot;font-size: 16px;&quot;&gt;Semak Sejarah Servis&lt;/font&gt;" style="text;html=1;align=center;verticalAlign=middle;resizable=0;points=[];autosize=1;strokeColor=none;fillColor=none;" vertex="1" parent="hYWeSFwZHZ8aJ64yLIm--53">
          <mxGeometry x="10" y="46" width="180" height="30" as="geometry" />
        </mxCell>
        <mxCell id="hYWeSFwZHZ8aJ64yLIm--57" value="" style="group" vertex="1" connectable="0" parent="1">
          <mxGeometry x="440" y="794" width="200" height="100" as="geometry" />
        </mxCell>
        <mxCell id="hYWeSFwZHZ8aJ64yLIm--58" style="edgeStyle=orthogonalEdgeStyle;rounded=0;orthogonalLoop=1;jettySize=auto;html=1;exitX=1;exitY=0.5;exitDx=0;exitDy=0;" edge="1" parent="hYWeSFwZHZ8aJ64yLIm--57" source="hYWeSFwZHZ8aJ64yLIm--59">
          <mxGeometry relative="1" as="geometry">
            <mxPoint x="300" y="50.76923076923072" as="targetPoint" />
          </mxGeometry>
        </mxCell>
        <mxCell id="hYWeSFwZHZ8aJ64yLIm--59" value="&lt;font style=&quot;font-size: 17px;&quot;&gt;5.0&lt;/font&gt;" style="swimlane;whiteSpace=wrap;html=1;" vertex="1" parent="hYWeSFwZHZ8aJ64yLIm--57">
          <mxGeometry width="200" height="100" as="geometry" />
        </mxCell>
        <mxCell id="hYWeSFwZHZ8aJ64yLIm--60" value="&lt;span style=&quot;font-size: 16px;&quot;&gt;Dapat Invois&lt;/span&gt;" style="text;html=1;align=center;verticalAlign=middle;resizable=0;points=[];autosize=1;strokeColor=none;fillColor=none;" vertex="1" parent="hYWeSFwZHZ8aJ64yLIm--57">
          <mxGeometry x="45" y="46" width="110" height="30" as="geometry" />
        </mxCell>
        <mxCell id="hYWeSFwZHZ8aJ64yLIm--61" value="" style="group" vertex="1" connectable="0" parent="1">
          <mxGeometry x="440" y="354" width="200" height="100" as="geometry" />
        </mxCell>
        <mxCell id="hYWeSFwZHZ8aJ64yLIm--62" value="&lt;font style=&quot;font-size: 17px;&quot;&gt;2.0&lt;/font&gt;" style="swimlane;whiteSpace=wrap;html=1;startSize=23;" vertex="1" parent="hYWeSFwZHZ8aJ64yLIm--61">
          <mxGeometry width="200" height="100" as="geometry" />
        </mxCell>
        <mxCell id="hYWeSFwZHZ8aJ64yLIm--63" value="&lt;span style=&quot;font-size: 16px;&quot;&gt;Semak Status&amp;nbsp;&lt;/span&gt;&lt;div&gt;&lt;span style=&quot;font-size: 16px;&quot;&gt;Kenderaan&lt;/span&gt;&lt;/div&gt;" style="text;html=1;align=center;verticalAlign=middle;resizable=0;points=[];autosize=1;strokeColor=none;fillColor=none;" vertex="1" parent="hYWeSFwZHZ8aJ64yLIm--61">
          <mxGeometry x="35" y="36" width="130" height="50" as="geometry" />
        </mxCell>
        <mxCell id="hYWeSFwZHZ8aJ64yLIm--64" style="edgeStyle=orthogonalEdgeStyle;rounded=0;orthogonalLoop=1;jettySize=auto;html=1;exitX=1;exitY=0.5;exitDx=0;exitDy=0;entryX=-0.003;entryY=0.644;entryDx=0;entryDy=0;entryPerimeter=0;" edge="1" parent="1" source="hYWeSFwZHZ8aJ64yLIm--5" target="hYWeSFwZHZ8aJ64yLIm--49">
          <mxGeometry relative="1" as="geometry" />
        </mxCell>
        <mxCell id="hYWeSFwZHZ8aJ64yLIm--65" style="edgeStyle=orthogonalEdgeStyle;rounded=0;orthogonalLoop=1;jettySize=auto;html=1;entryX=0;entryY=0.5;entryDx=0;entryDy=0;" edge="1" parent="1" source="hYWeSFwZHZ8aJ64yLIm--49" target="hYWeSFwZHZ8aJ64yLIm--16">
          <mxGeometry relative="1" as="geometry" />
        </mxCell>
        <mxCell id="hYWeSFwZHZ8aJ64yLIm--66" value="" style="group" vertex="1" connectable="0" parent="1">
          <mxGeometry x="1265" y="1244" width="205" height="100" as="geometry" />
        </mxCell>
        <mxCell id="hYWeSFwZHZ8aJ64yLIm--67" value="&lt;font style=&quot;font-size: 17px;&quot;&gt;12.0&lt;/font&gt;" style="swimlane;whiteSpace=wrap;html=1;" vertex="1" parent="hYWeSFwZHZ8aJ64yLIm--66">
          <mxGeometry width="200" height="100" as="geometry" />
        </mxCell>
        <mxCell id="hYWeSFwZHZ8aJ64yLIm--68" value="&lt;font style=&quot;font-size: 16px;&quot;&gt;Pengurusan Stok &amp;amp; Bahan&lt;/font&gt;" style="text;html=1;align=center;verticalAlign=middle;resizable=0;points=[];autosize=1;strokeColor=none;fillColor=none;" vertex="1" parent="hYWeSFwZHZ8aJ64yLIm--66">
          <mxGeometry x="-5" y="46" width="210" height="30" as="geometry" />
        </mxCell>
        <mxCell id="hYWeSFwZHZ8aJ64yLIm--69" value="" style="group" vertex="1" connectable="0" parent="1">
          <mxGeometry x="1272.5" y="644" width="200" height="100" as="geometry" />
        </mxCell>
        <mxCell id="hYWeSFwZHZ8aJ64yLIm--70" value="&lt;font style=&quot;font-size: 17px;&quot;&gt;6.0&lt;/font&gt;" style="swimlane;whiteSpace=wrap;html=1;" vertex="1" parent="hYWeSFwZHZ8aJ64yLIm--69">
          <mxGeometry width="200" height="100" as="geometry" />
        </mxCell>
        <mxCell id="hYWeSFwZHZ8aJ64yLIm--71" value="&lt;font style=&quot;font-size: 16px;&quot;&gt;Rekod Maklumat Servis&lt;/font&gt;" style="text;html=1;align=center;verticalAlign=middle;resizable=0;points=[];autosize=1;strokeColor=none;fillColor=none;" vertex="1" parent="hYWeSFwZHZ8aJ64yLIm--69">
          <mxGeometry x="5" y="46" width="190" height="30" as="geometry" />
        </mxCell>
        <mxCell id="hYWeSFwZHZ8aJ64yLIm--72" value="" style="group" vertex="1" connectable="0" parent="1">
          <mxGeometry x="1272.5" y="501" width="205" height="100" as="geometry" />
        </mxCell>
        <mxCell id="hYWeSFwZHZ8aJ64yLIm--73" value="&lt;font style=&quot;font-size: 17px;&quot;&gt;7.0&lt;/font&gt;" style="swimlane;whiteSpace=wrap;html=1;" vertex="1" parent="hYWeSFwZHZ8aJ64yLIm--72">
          <mxGeometry width="200" height="100" as="geometry" />
        </mxCell>
        <mxCell id="hYWeSFwZHZ8aJ64yLIm--74" value="&lt;font style=&quot;font-size: 16px;&quot;&gt;Kemas Kini Status Servis&lt;/font&gt;" style="text;html=1;align=center;verticalAlign=middle;resizable=0;points=[];autosize=1;strokeColor=none;fillColor=none;" vertex="1" parent="hYWeSFwZHZ8aJ64yLIm--72">
          <mxGeometry y="46" width="200" height="30" as="geometry" />
        </mxCell>
        <mxCell id="hYWeSFwZHZ8aJ64yLIm--75" value="" style="group" vertex="1" connectable="0" parent="1">
          <mxGeometry x="1270" y="1094" width="200" height="100" as="geometry" />
        </mxCell>
        <mxCell id="hYWeSFwZHZ8aJ64yLIm--76" value="&lt;font style=&quot;font-size: 17px;&quot;&gt;10.0&lt;/font&gt;" style="swimlane;whiteSpace=wrap;html=1;" vertex="1" parent="hYWeSFwZHZ8aJ64yLIm--75">
          <mxGeometry width="200" height="100" as="geometry" />
        </mxCell>
        <mxCell id="hYWeSFwZHZ8aJ64yLIm--77" value="&lt;span style=&quot;font-size: 16px;&quot;&gt;Urus Akaun&amp;nbsp;&lt;/span&gt;&lt;div&gt;&lt;span style=&quot;font-size: 16px;&quot;&gt;Pekerja Bengkel&lt;/span&gt;&lt;/div&gt;" style="text;html=1;align=center;verticalAlign=middle;resizable=0;points=[];autosize=1;strokeColor=none;fillColor=none;" vertex="1" parent="hYWeSFwZHZ8aJ64yLIm--75">
          <mxGeometry x="30" y="36" width="140" height="50" as="geometry" />
        </mxCell>
        <mxCell id="hYWeSFwZHZ8aJ64yLIm--78" value="" style="group" vertex="1" connectable="0" parent="1">
          <mxGeometry x="1270" y="939" width="205" height="100" as="geometry" />
        </mxCell>
        <mxCell id="hYWeSFwZHZ8aJ64yLIm--79" value="&lt;font style=&quot;font-size: 17px;&quot;&gt;8.0&lt;/font&gt;" style="swimlane;whiteSpace=wrap;html=1;" vertex="1" parent="hYWeSFwZHZ8aJ64yLIm--78">
          <mxGeometry width="200" height="100" as="geometry" />
        </mxCell>
        <mxCell id="hYWeSFwZHZ8aJ64yLIm--80" value="&lt;span style=&quot;font-size: 16px;&quot;&gt;Penjanaan Laporan&amp;nbsp;&lt;/span&gt;&lt;div&gt;&lt;span style=&quot;font-size: 16px;&quot;&gt;Bulanan&lt;/span&gt;&lt;/div&gt;" style="text;html=1;align=center;verticalAlign=middle;resizable=0;points=[];autosize=1;strokeColor=none;fillColor=none;" vertex="1" parent="hYWeSFwZHZ8aJ64yLIm--78">
          <mxGeometry x="15" y="36" width="170" height="50" as="geometry" />
        </mxCell>
        <mxCell id="hYWeSFwZHZ8aJ64yLIm--81" value="" style="group" vertex="1" connectable="0" parent="1">
          <mxGeometry x="1275" y="344" width="200" height="100" as="geometry" />
        </mxCell>
        <mxCell id="hYWeSFwZHZ8aJ64yLIm--82" value="&lt;font style=&quot;font-size: 17px;&quot;&gt;11.0&lt;/font&gt;" style="swimlane;whiteSpace=wrap;html=1;" vertex="1" parent="hYWeSFwZHZ8aJ64yLIm--81">
          <mxGeometry width="200" height="100" as="geometry" />
        </mxCell>
        <mxCell id="hYWeSFwZHZ8aJ64yLIm--83" value="&lt;font style=&quot;font-size: 16px;&quot;&gt;Urus Data Pelanggan&lt;/font&gt;" style="text;html=1;align=center;verticalAlign=middle;resizable=0;points=[];autosize=1;strokeColor=none;fillColor=none;" vertex="1" parent="hYWeSFwZHZ8aJ64yLIm--81">
          <mxGeometry x="10" y="46" width="180" height="30" as="geometry" />
        </mxCell>
        <mxCell id="hYWeSFwZHZ8aJ64yLIm--84" value="" style="group" vertex="1" connectable="0" parent="1">
          <mxGeometry x="1270" y="794" width="205" height="100" as="geometry" />
        </mxCell>
        <mxCell id="hYWeSFwZHZ8aJ64yLIm--85" value="&lt;font style=&quot;font-size: 17px;&quot;&gt;9.0&lt;/font&gt;" style="swimlane;whiteSpace=wrap;html=1;" vertex="1" parent="hYWeSFwZHZ8aJ64yLIm--84">
          <mxGeometry width="200" height="100" as="geometry" />
        </mxCell>
        <mxCell id="hYWeSFwZHZ8aJ64yLIm--86" value="&lt;font style=&quot;font-size: 16px;&quot;&gt;Semak Rekod&amp;nbsp;&lt;/font&gt;&lt;div&gt;&lt;font style=&quot;font-size: 16px;&quot;&gt;Pendapatan&lt;/font&gt;&lt;/div&gt;" style="text;html=1;align=center;verticalAlign=middle;resizable=0;points=[];autosize=1;strokeColor=none;fillColor=none;" vertex="1" parent="hYWeSFwZHZ8aJ64yLIm--84">
          <mxGeometry x="35" y="36" width="130" height="50" as="geometry" />
        </mxCell>
        <mxCell id="hYWeSFwZHZ8aJ64yLIm--87" style="edgeStyle=orthogonalEdgeStyle;rounded=0;orthogonalLoop=1;jettySize=auto;html=1;exitX=1;exitY=0.5;exitDx=0;exitDy=0;entryX=0;entryY=0.5;entryDx=0;entryDy=0;" edge="1" parent="1" source="hYWeSFwZHZ8aJ64yLIm--62" target="hYWeSFwZHZ8aJ64yLIm--24">
          <mxGeometry relative="1" as="geometry" />
        </mxCell>
        <mxCell id="hYWeSFwZHZ8aJ64yLIm--88" style="edgeStyle=orthogonalEdgeStyle;rounded=0;orthogonalLoop=1;jettySize=auto;html=1;exitX=1;exitY=0.5;exitDx=0;exitDy=0;entryX=0;entryY=0.5;entryDx=0;entryDy=0;" edge="1" parent="1" source="hYWeSFwZHZ8aJ64yLIm--51" target="hYWeSFwZHZ8aJ64yLIm--20">
          <mxGeometry relative="1" as="geometry">
            <mxPoint x="740" y="554" as="targetPoint" />
          </mxGeometry>
        </mxCell>
        <mxCell id="hYWeSFwZHZ8aJ64yLIm--89" style="edgeStyle=orthogonalEdgeStyle;rounded=0;orthogonalLoop=1;jettySize=auto;html=1;entryX=0.5;entryY=1;entryDx=0;entryDy=0;exitX=0;exitY=0.5;exitDx=0;exitDy=0;" edge="1" parent="1" source="hYWeSFwZHZ8aJ64yLIm--70" target="hYWeSFwZHZ8aJ64yLIm--24">
          <mxGeometry relative="1" as="geometry">
            <Array as="points">
              <mxPoint x="1180" y="694" />
              <mxPoint x="1180" y="474" />
              <mxPoint x="884" y="474" />
            </Array>
          </mxGeometry>
        </mxCell>
        <mxCell id="hYWeSFwZHZ8aJ64yLIm--90" style="edgeStyle=orthogonalEdgeStyle;rounded=0;orthogonalLoop=1;jettySize=auto;html=1;exitX=-0.002;exitY=0.565;exitDx=0;exitDy=0;entryX=1;entryY=0.25;entryDx=0;entryDy=0;exitPerimeter=0;" edge="1" parent="1" source="hYWeSFwZHZ8aJ64yLIm--74" target="hYWeSFwZHZ8aJ64yLIm--24">
          <mxGeometry relative="1" as="geometry">
            <Array as="points">
              <mxPoint x="1210" y="564" />
              <mxPoint x="1210" y="386" />
            </Array>
          </mxGeometry>
        </mxCell>
        <mxCell id="hYWeSFwZHZ8aJ64yLIm--91" style="edgeStyle=orthogonalEdgeStyle;rounded=0;orthogonalLoop=1;jettySize=auto;html=1;exitX=0;exitY=0.5;exitDx=0;exitDy=0;entryX=1;entryY=0.5;entryDx=0;entryDy=0;" edge="1" parent="1" source="hYWeSFwZHZ8aJ64yLIm--79" target="hYWeSFwZHZ8aJ64yLIm--44">
          <mxGeometry relative="1" as="geometry" />
        </mxCell>
        <mxCell id="hYWeSFwZHZ8aJ64yLIm--92" style="edgeStyle=orthogonalEdgeStyle;rounded=0;orthogonalLoop=1;jettySize=auto;html=1;exitX=0;exitY=0.5;exitDx=0;exitDy=0;entryX=1;entryY=0.5;entryDx=0;entryDy=0;" edge="1" parent="1" source="hYWeSFwZHZ8aJ64yLIm--85" target="hYWeSFwZHZ8aJ64yLIm--40">
          <mxGeometry relative="1" as="geometry" />
        </mxCell>
        <mxCell id="hYWeSFwZHZ8aJ64yLIm--93" style="edgeStyle=orthogonalEdgeStyle;rounded=0;orthogonalLoop=1;jettySize=auto;html=1;exitX=0;exitY=0.5;exitDx=0;exitDy=0;entryX=1;entryY=0.5;entryDx=0;entryDy=0;" edge="1" parent="1" source="hYWeSFwZHZ8aJ64yLIm--76" target="hYWeSFwZHZ8aJ64yLIm--36">
          <mxGeometry relative="1" as="geometry" />
        </mxCell>
        <mxCell id="hYWeSFwZHZ8aJ64yLIm--94" style="edgeStyle=orthogonalEdgeStyle;rounded=0;orthogonalLoop=1;jettySize=auto;html=1;entryX=1;entryY=0.5;entryDx=0;entryDy=0;" edge="1" parent="1" source="hYWeSFwZHZ8aJ64yLIm--82" target="hYWeSFwZHZ8aJ64yLIm--16">
          <mxGeometry relative="1" as="geometry">
            <Array as="points">
              <mxPoint x="1375" y="280" />
            </Array>
          </mxGeometry>
        </mxCell>
        <mxCell id="hYWeSFwZHZ8aJ64yLIm--95" style="edgeStyle=orthogonalEdgeStyle;rounded=0;orthogonalLoop=1;jettySize=auto;html=1;exitX=1;exitY=0.75;exitDx=0;exitDy=0;entryX=0;entryY=0.5;entryDx=0;entryDy=0;" edge="1" parent="1" source="hYWeSFwZHZ8aJ64yLIm--99" target="hYWeSFwZHZ8aJ64yLIm--156">
          <mxGeometry relative="1" as="geometry">
            <Array as="points">
              <mxPoint x="870" y="1531" />
              <mxPoint x="870" y="1634" />
            </Array>
          </mxGeometry>
        </mxCell>
        <mxCell id="hYWeSFwZHZ8aJ64yLIm--96" style="edgeStyle=orthogonalEdgeStyle;rounded=0;orthogonalLoop=1;jettySize=auto;html=1;exitX=1;exitY=1;exitDx=0;exitDy=0;" edge="1" parent="1" source="hYWeSFwZHZ8aJ64yLIm--99">
          <mxGeometry relative="1" as="geometry">
            <mxPoint x="1030" y="1774" as="targetPoint" />
            <Array as="points">
              <mxPoint x="850" y="1547" />
              <mxPoint x="850" y="1774" />
            </Array>
          </mxGeometry>
        </mxCell>
        <mxCell id="hYWeSFwZHZ8aJ64yLIm--97" style="edgeStyle=orthogonalEdgeStyle;rounded=0;orthogonalLoop=1;jettySize=auto;html=1;exitX=0.75;exitY=1;exitDx=0;exitDy=0;" edge="1" parent="1" source="hYWeSFwZHZ8aJ64yLIm--99">
          <mxGeometry relative="1" as="geometry">
            <mxPoint x="1030" y="1934" as="targetPoint" />
            <Array as="points">
              <mxPoint x="782" y="1564" />
              <mxPoint x="830" y="1564" />
              <mxPoint x="830" y="1934" />
            </Array>
          </mxGeometry>
        </mxCell>
        <mxCell id="hYWeSFwZHZ8aJ64yLIm--98" style="edgeStyle=orthogonalEdgeStyle;rounded=0;orthogonalLoop=1;jettySize=auto;html=1;exitX=0.5;exitY=1;exitDx=0;exitDy=0;entryX=0;entryY=0.5;entryDx=0;entryDy=0;" edge="1" parent="1" source="hYWeSFwZHZ8aJ64yLIm--99" target="hYWeSFwZHZ8aJ64yLIm--153">
          <mxGeometry relative="1" as="geometry">
            <Array as="points">
              <mxPoint x="741" y="1604" />
              <mxPoint x="800" y="1604" />
              <mxPoint x="800" y="2074" />
            </Array>
          </mxGeometry>
        </mxCell>
        <mxCell id="hYWeSFwZHZ8aJ64yLIm--99" value="Pelanggan" style="rounded=0;whiteSpace=wrap;html=1;fontSize=17;" vertex="1" parent="1">
          <mxGeometry x="660" y="1484" width="162" height="63" as="geometry" />
        </mxCell>
        <mxCell id="hYWeSFwZHZ8aJ64yLIm--100" style="edgeStyle=orthogonalEdgeStyle;rounded=0;orthogonalLoop=1;jettySize=auto;html=1;entryX=1;entryY=0.75;entryDx=0;entryDy=0;exitX=0;exitY=0.5;exitDx=0;exitDy=0;" edge="1" parent="1" source="hYWeSFwZHZ8aJ64yLIm--102" target="hYWeSFwZHZ8aJ64yLIm--164">
          <mxGeometry relative="1" as="geometry">
            <Array as="points">
              <mxPoint x="2140" y="1862" />
              <mxPoint x="2140" y="1949" />
            </Array>
          </mxGeometry>
        </mxCell>
        <mxCell id="hYWeSFwZHZ8aJ64yLIm--101" style="edgeStyle=orthogonalEdgeStyle;rounded=0;orthogonalLoop=1;jettySize=auto;html=1;exitX=1;exitY=0.5;exitDx=0;exitDy=0;entryX=0.5;entryY=1;entryDx=0;entryDy=0;" edge="1" parent="1" source="hYWeSFwZHZ8aJ64yLIm--102" target="hYWeSFwZHZ8aJ64yLIm--167">
          <mxGeometry relative="1" as="geometry">
            <mxPoint x="2030.0000000000002" y="2134" as="targetPoint" />
          </mxGeometry>
        </mxCell>
        <mxCell id="hYWeSFwZHZ8aJ64yLIm--102" value="Pekerja" style="rounded=0;whiteSpace=wrap;html=1;fontSize=17;" vertex="1" parent="1">
          <mxGeometry x="2200" y="1831" width="162" height="63" as="geometry" />
        </mxCell>
        <mxCell id="hYWeSFwZHZ8aJ64yLIm--103" style="edgeStyle=orthogonalEdgeStyle;rounded=0;orthogonalLoop=1;jettySize=auto;html=1;entryX=1;entryY=0.5;entryDx=0;entryDy=0;exitX=0.5;exitY=1;exitDx=0;exitDy=0;" edge="1" parent="1" source="hYWeSFwZHZ8aJ64yLIm--108" target="hYWeSFwZHZ8aJ64yLIm--173">
          <mxGeometry relative="1" as="geometry" />
        </mxCell>
        <mxCell id="hYWeSFwZHZ8aJ64yLIm--104" style="edgeStyle=orthogonalEdgeStyle;rounded=0;orthogonalLoop=1;jettySize=auto;html=1;exitX=0;exitY=0.5;exitDx=0;exitDy=0;entryX=1;entryY=0.5;entryDx=0;entryDy=0;" edge="1" parent="1" source="hYWeSFwZHZ8aJ64yLIm--108" target="hYWeSFwZHZ8aJ64yLIm--179">
          <mxGeometry relative="1" as="geometry" />
        </mxCell>
        <mxCell id="hYWeSFwZHZ8aJ64yLIm--105" style="edgeStyle=orthogonalEdgeStyle;rounded=0;orthogonalLoop=1;jettySize=auto;html=1;exitX=0.75;exitY=1;exitDx=0;exitDy=0;entryX=1;entryY=0.75;entryDx=0;entryDy=0;" edge="1" parent="1" source="hYWeSFwZHZ8aJ64yLIm--108" target="hYWeSFwZHZ8aJ64yLIm--170">
          <mxGeometry relative="1" as="geometry" />
        </mxCell>
        <mxCell id="hYWeSFwZHZ8aJ64yLIm--106" style="edgeStyle=orthogonalEdgeStyle;rounded=0;orthogonalLoop=1;jettySize=auto;html=1;entryX=1;entryY=0.5;entryDx=0;entryDy=0;exitX=1;exitY=0.5;exitDx=0;exitDy=0;" edge="1" parent="1" source="hYWeSFwZHZ8aJ64yLIm--108" target="hYWeSFwZHZ8aJ64yLIm--161">
          <mxGeometry relative="1" as="geometry" />
        </mxCell>
        <mxCell id="hYWeSFwZHZ8aJ64yLIm--107" style="edgeStyle=orthogonalEdgeStyle;rounded=0;orthogonalLoop=1;jettySize=auto;html=1;exitX=1;exitY=0.25;exitDx=0;exitDy=0;" edge="1" parent="1" source="hYWeSFwZHZ8aJ64yLIm--108">
          <mxGeometry relative="1" as="geometry">
            <mxPoint x="2070" y="1624" as="targetPoint" />
            <Array as="points">
              <mxPoint x="2450" y="2020" />
              <mxPoint x="2450" y="1624" />
            </Array>
          </mxGeometry>
        </mxCell>
        <mxCell id="hYWeSFwZHZ8aJ64yLIm--108" value="Admin" style="rounded=0;whiteSpace=wrap;html=1;fontSize=17;" vertex="1" parent="1">
          <mxGeometry x="2200" y="2004" width="162" height="63" as="geometry" />
        </mxCell>
        <mxCell id="hYWeSFwZHZ8aJ64yLIm--109" value="" style="group" vertex="1" connectable="0" parent="1">
          <mxGeometry x="1330" y="1475" width="289" height="70" as="geometry" />
        </mxCell>
        <mxCell id="hYWeSFwZHZ8aJ64yLIm--110" value="&lt;font style=&quot;font-size: 20px;&quot;&gt;&amp;nbsp; &amp;nbsp; &amp;nbsp; &amp;nbsp; &amp;nbsp; &amp;nbsp; Maklumat Pelanggan&lt;/font&gt;" style="rounded=0;whiteSpace=wrap;html=1;" vertex="1" parent="hYWeSFwZHZ8aJ64yLIm--109">
          <mxGeometry width="289" height="70" as="geometry" />
        </mxCell>
        <mxCell id="hYWeSFwZHZ8aJ64yLIm--111" value="" style="endArrow=none;html=1;rounded=0;entryX=0.25;entryY=0;entryDx=0;entryDy=0;exitX=0.25;exitY=1;exitDx=0;exitDy=0;" edge="1" parent="hYWeSFwZHZ8aJ64yLIm--109" source="hYWeSFwZHZ8aJ64yLIm--110" target="hYWeSFwZHZ8aJ64yLIm--110">
          <mxGeometry width="50" height="50" relative="1" as="geometry">
            <mxPoint x="370" y="140" as="sourcePoint" />
            <mxPoint x="420" y="90" as="targetPoint" />
          </mxGeometry>
        </mxCell>
        <mxCell id="hYWeSFwZHZ8aJ64yLIm--112" value="D1" style="text;html=1;align=center;verticalAlign=middle;whiteSpace=wrap;rounded=0;rotation=-90;fontSize=23;fontStyle=1" vertex="1" parent="hYWeSFwZHZ8aJ64yLIm--109">
          <mxGeometry x="10" y="20" width="60" height="30" as="geometry" />
        </mxCell>
        <mxCell id="hYWeSFwZHZ8aJ64yLIm--113" value="" style="group" vertex="1" connectable="0" parent="1">
          <mxGeometry x="1330" y="1739" width="289" height="70" as="geometry" />
        </mxCell>
        <mxCell id="hYWeSFwZHZ8aJ64yLIm--114" value="&lt;font style=&quot;font-size: 20px;&quot;&gt;&amp;nbsp; &amp;nbsp; &amp;nbsp; &amp;nbsp; &amp;nbsp; &amp;nbsp; Maklumat Tempahan&lt;/font&gt;" style="rounded=0;whiteSpace=wrap;html=1;" vertex="1" parent="hYWeSFwZHZ8aJ64yLIm--113">
          <mxGeometry width="289" height="70" as="geometry" />
        </mxCell>
        <mxCell id="hYWeSFwZHZ8aJ64yLIm--115" value="" style="endArrow=none;html=1;rounded=0;entryX=0.25;entryY=0;entryDx=0;entryDy=0;exitX=0.25;exitY=1;exitDx=0;exitDy=0;" edge="1" parent="hYWeSFwZHZ8aJ64yLIm--113" source="hYWeSFwZHZ8aJ64yLIm--114" target="hYWeSFwZHZ8aJ64yLIm--114">
          <mxGeometry width="50" height="50" relative="1" as="geometry">
            <mxPoint x="370" y="140" as="sourcePoint" />
            <mxPoint x="420" y="90" as="targetPoint" />
          </mxGeometry>
        </mxCell>
        <mxCell id="hYWeSFwZHZ8aJ64yLIm--116" value="D3" style="text;html=1;align=center;verticalAlign=middle;whiteSpace=wrap;rounded=0;rotation=-90;fontSize=23;fontStyle=1" vertex="1" parent="hYWeSFwZHZ8aJ64yLIm--113">
          <mxGeometry x="10" y="20" width="60" height="30" as="geometry" />
        </mxCell>
        <mxCell id="hYWeSFwZHZ8aJ64yLIm--117" value="" style="group" vertex="1" connectable="0" parent="1">
          <mxGeometry x="1330" y="1599" width="289" height="70" as="geometry" />
        </mxCell>
        <mxCell id="hYWeSFwZHZ8aJ64yLIm--118" value="&lt;font style=&quot;font-size: 20px;&quot;&gt;&amp;nbsp; &amp;nbsp; &amp;nbsp; &amp;nbsp; &amp;nbsp; Maklumat Servis&lt;/font&gt;" style="rounded=0;whiteSpace=wrap;html=1;" vertex="1" parent="hYWeSFwZHZ8aJ64yLIm--117">
          <mxGeometry width="289" height="70" as="geometry" />
        </mxCell>
        <mxCell id="hYWeSFwZHZ8aJ64yLIm--119" value="" style="endArrow=none;html=1;rounded=0;entryX=0.25;entryY=0;entryDx=0;entryDy=0;exitX=0.25;exitY=1;exitDx=0;exitDy=0;" edge="1" parent="hYWeSFwZHZ8aJ64yLIm--117" source="hYWeSFwZHZ8aJ64yLIm--118" target="hYWeSFwZHZ8aJ64yLIm--118">
          <mxGeometry width="50" height="50" relative="1" as="geometry">
            <mxPoint x="370" y="140" as="sourcePoint" />
            <mxPoint x="420" y="90" as="targetPoint" />
          </mxGeometry>
        </mxCell>
        <mxCell id="hYWeSFwZHZ8aJ64yLIm--120" value="D2" style="text;html=1;align=center;verticalAlign=middle;whiteSpace=wrap;rounded=0;rotation=-90;fontSize=23;fontStyle=1" vertex="1" parent="hYWeSFwZHZ8aJ64yLIm--117">
          <mxGeometry x="10" y="20" width="60" height="30" as="geometry" />
        </mxCell>
        <mxCell id="hYWeSFwZHZ8aJ64yLIm--121" value="" style="group" vertex="1" connectable="0" parent="1">
          <mxGeometry x="1330" y="1894" width="289" height="70" as="geometry" />
        </mxCell>
        <mxCell id="hYWeSFwZHZ8aJ64yLIm--122" value="&lt;font style=&quot;font-size: 20px;&quot;&gt;&amp;nbsp; &amp;nbsp; &amp;nbsp; &amp;nbsp; &amp;nbsp; Maklumat&amp;nbsp;&lt;/font&gt;&lt;div&gt;&lt;font style=&quot;font-size: 20px;&quot;&gt;&amp;nbsp; &amp;nbsp; &amp;nbsp; &amp;nbsp; Laporan Servis&lt;/font&gt;&lt;/div&gt;" style="rounded=0;whiteSpace=wrap;html=1;" vertex="1" parent="hYWeSFwZHZ8aJ64yLIm--121">
          <mxGeometry width="289" height="70" as="geometry" />
        </mxCell>
        <mxCell id="hYWeSFwZHZ8aJ64yLIm--123" value="" style="endArrow=none;html=1;rounded=0;entryX=0.25;entryY=0;entryDx=0;entryDy=0;exitX=0.25;exitY=1;exitDx=0;exitDy=0;" edge="1" parent="hYWeSFwZHZ8aJ64yLIm--121" source="hYWeSFwZHZ8aJ64yLIm--122" target="hYWeSFwZHZ8aJ64yLIm--122">
          <mxGeometry width="50" height="50" relative="1" as="geometry">
            <mxPoint x="370" y="140" as="sourcePoint" />
            <mxPoint x="420" y="90" as="targetPoint" />
          </mxGeometry>
        </mxCell>
        <mxCell id="hYWeSFwZHZ8aJ64yLIm--124" value="D4" style="text;html=1;align=center;verticalAlign=middle;whiteSpace=wrap;rounded=0;rotation=-90;fontSize=23;fontStyle=1" vertex="1" parent="hYWeSFwZHZ8aJ64yLIm--121">
          <mxGeometry x="10" y="20" width="60" height="30" as="geometry" />
        </mxCell>
        <mxCell id="hYWeSFwZHZ8aJ64yLIm--125" value="" style="group" vertex="1" connectable="0" parent="1">
          <mxGeometry x="1330" y="2484" width="289" height="70" as="geometry" />
        </mxCell>
        <mxCell id="hYWeSFwZHZ8aJ64yLIm--126" value="&lt;font style=&quot;font-size: 20px;&quot;&gt;&amp;nbsp; &amp;nbsp; &amp;nbsp; &amp;nbsp; &amp;nbsp; Maklumat Stok&lt;/font&gt;" style="rounded=0;whiteSpace=wrap;html=1;" vertex="1" parent="hYWeSFwZHZ8aJ64yLIm--125">
          <mxGeometry width="289" height="70" as="geometry" />
        </mxCell>
        <mxCell id="hYWeSFwZHZ8aJ64yLIm--127" value="" style="endArrow=none;html=1;rounded=0;entryX=0.25;entryY=0;entryDx=0;entryDy=0;exitX=0.25;exitY=1;exitDx=0;exitDy=0;" edge="1" parent="hYWeSFwZHZ8aJ64yLIm--125" source="hYWeSFwZHZ8aJ64yLIm--126" target="hYWeSFwZHZ8aJ64yLIm--126">
          <mxGeometry width="50" height="50" relative="1" as="geometry">
            <mxPoint x="370" y="140" as="sourcePoint" />
            <mxPoint x="420" y="90" as="targetPoint" />
          </mxGeometry>
        </mxCell>
        <mxCell id="hYWeSFwZHZ8aJ64yLIm--128" value="D8" style="text;html=1;align=center;verticalAlign=middle;whiteSpace=wrap;rounded=0;rotation=-90;fontSize=23;fontStyle=1" vertex="1" parent="hYWeSFwZHZ8aJ64yLIm--125">
          <mxGeometry x="10" y="20" width="60" height="30" as="geometry" />
        </mxCell>
        <mxCell id="hYWeSFwZHZ8aJ64yLIm--129" value="" style="group" vertex="1" connectable="0" parent="1">
          <mxGeometry x="1330" y="2324" width="289" height="70" as="geometry" />
        </mxCell>
        <mxCell id="hYWeSFwZHZ8aJ64yLIm--130" value="&lt;font style=&quot;font-size: 20px;&quot;&gt;&amp;nbsp; &amp;nbsp; &amp;nbsp; &amp;nbsp; &amp;nbsp; &amp;nbsp; Maklumat Pekerja&lt;/font&gt;" style="rounded=0;whiteSpace=wrap;html=1;" vertex="1" parent="hYWeSFwZHZ8aJ64yLIm--129">
          <mxGeometry width="289" height="70" as="geometry" />
        </mxCell>
        <mxCell id="hYWeSFwZHZ8aJ64yLIm--131" value="" style="endArrow=none;html=1;rounded=0;entryX=0.25;entryY=0;entryDx=0;entryDy=0;exitX=0.25;exitY=1;exitDx=0;exitDy=0;" edge="1" parent="hYWeSFwZHZ8aJ64yLIm--129" source="hYWeSFwZHZ8aJ64yLIm--130" target="hYWeSFwZHZ8aJ64yLIm--130">
          <mxGeometry width="50" height="50" relative="1" as="geometry">
            <mxPoint x="370" y="140" as="sourcePoint" />
            <mxPoint x="420" y="90" as="targetPoint" />
          </mxGeometry>
        </mxCell>
        <mxCell id="hYWeSFwZHZ8aJ64yLIm--132" value="D7" style="text;html=1;align=center;verticalAlign=middle;whiteSpace=wrap;rounded=0;rotation=-90;fontSize=23;fontStyle=1" vertex="1" parent="hYWeSFwZHZ8aJ64yLIm--129">
          <mxGeometry x="10" y="20" width="60" height="30" as="geometry" />
        </mxCell>
        <mxCell id="hYWeSFwZHZ8aJ64yLIm--133" value="" style="group" vertex="1" connectable="0" parent="1">
          <mxGeometry x="1330" y="2044" width="289" height="70" as="geometry" />
        </mxCell>
        <mxCell id="hYWeSFwZHZ8aJ64yLIm--134" value="&lt;font style=&quot;font-size: 20px;&quot;&gt;&amp;nbsp; &amp;nbsp; &amp;nbsp; &amp;nbsp; &amp;nbsp; &amp;nbsp; &amp;nbsp;Maklumat Kewangan&lt;/font&gt;" style="rounded=0;whiteSpace=wrap;html=1;" vertex="1" parent="hYWeSFwZHZ8aJ64yLIm--133">
          <mxGeometry width="289" height="70" as="geometry" />
        </mxCell>
        <mxCell id="hYWeSFwZHZ8aJ64yLIm--135" value="" style="endArrow=none;html=1;rounded=0;entryX=0.25;entryY=0;entryDx=0;entryDy=0;exitX=0.25;exitY=1;exitDx=0;exitDy=0;" edge="1" parent="hYWeSFwZHZ8aJ64yLIm--133" source="hYWeSFwZHZ8aJ64yLIm--134" target="hYWeSFwZHZ8aJ64yLIm--134">
          <mxGeometry width="50" height="50" relative="1" as="geometry">
            <mxPoint x="370" y="140" as="sourcePoint" />
            <mxPoint x="420" y="90" as="targetPoint" />
          </mxGeometry>
        </mxCell>
        <mxCell id="hYWeSFwZHZ8aJ64yLIm--136" value="D6" style="text;html=1;align=center;verticalAlign=middle;whiteSpace=wrap;rounded=0;rotation=-90;fontSize=23;fontStyle=1" vertex="1" parent="hYWeSFwZHZ8aJ64yLIm--133">
          <mxGeometry x="10" y="20" width="60" height="30" as="geometry" />
        </mxCell>
        <mxCell id="hYWeSFwZHZ8aJ64yLIm--137" value="" style="group" vertex="1" connectable="0" parent="1">
          <mxGeometry x="1330" y="2184" width="289" height="70" as="geometry" />
        </mxCell>
        <mxCell id="hYWeSFwZHZ8aJ64yLIm--138" value="&lt;font style=&quot;font-size: 20px;&quot;&gt;&amp;nbsp; &amp;nbsp; &amp;nbsp; &amp;nbsp; &amp;nbsp; Jadual Laporan&lt;/font&gt;" style="rounded=0;whiteSpace=wrap;html=1;" vertex="1" parent="hYWeSFwZHZ8aJ64yLIm--137">
          <mxGeometry width="289" height="70" as="geometry" />
        </mxCell>
        <mxCell id="hYWeSFwZHZ8aJ64yLIm--139" value="" style="endArrow=none;html=1;rounded=0;entryX=0.25;entryY=0;entryDx=0;entryDy=0;exitX=0.25;exitY=1;exitDx=0;exitDy=0;" edge="1" parent="hYWeSFwZHZ8aJ64yLIm--137" source="hYWeSFwZHZ8aJ64yLIm--138" target="hYWeSFwZHZ8aJ64yLIm--138">
          <mxGeometry width="50" height="50" relative="1" as="geometry">
            <mxPoint x="370" y="140" as="sourcePoint" />
            <mxPoint x="420" y="90" as="targetPoint" />
          </mxGeometry>
        </mxCell>
        <mxCell id="hYWeSFwZHZ8aJ64yLIm--140" value="D5" style="text;html=1;align=center;verticalAlign=middle;whiteSpace=wrap;rounded=0;rotation=-90;fontSize=23;fontStyle=1" vertex="1" parent="hYWeSFwZHZ8aJ64yLIm--137">
          <mxGeometry x="10" y="20" width="60" height="30" as="geometry" />
        </mxCell>
        <mxCell id="hYWeSFwZHZ8aJ64yLIm--141" value="" style="group" vertex="1" connectable="0" parent="1">
          <mxGeometry x="1029" y="1450" width="200" height="100" as="geometry" />
        </mxCell>
        <mxCell id="hYWeSFwZHZ8aJ64yLIm--142" value="&lt;font style=&quot;font-size: 17px;&quot;&gt;1.0&lt;/font&gt;" style="swimlane;whiteSpace=wrap;html=1;" vertex="1" parent="hYWeSFwZHZ8aJ64yLIm--141">
          <mxGeometry width="200" height="100" as="geometry" />
        </mxCell>
        <mxCell id="hYWeSFwZHZ8aJ64yLIm--143" value="&lt;font style=&quot;font-size: 16px;&quot;&gt;Pendaftaran Pelanggan&lt;/font&gt;" style="text;html=1;align=center;verticalAlign=middle;resizable=0;points=[];autosize=1;strokeColor=none;fillColor=none;" vertex="1" parent="hYWeSFwZHZ8aJ64yLIm--141">
          <mxGeometry x="5" y="46" width="190" height="30" as="geometry" />
        </mxCell>
        <mxCell id="hYWeSFwZHZ8aJ64yLIm--144" value="" style="group" vertex="1" connectable="0" parent="1">
          <mxGeometry x="1030" y="1724" width="200" height="100" as="geometry" />
        </mxCell>
        <mxCell id="hYWeSFwZHZ8aJ64yLIm--145" value="&lt;font style=&quot;font-size: 17px;&quot;&gt;3.0&lt;/font&gt;" style="swimlane;whiteSpace=wrap;html=1;" vertex="1" parent="hYWeSFwZHZ8aJ64yLIm--144">
          <mxGeometry width="200" height="100" as="geometry" />
        </mxCell>
        <mxCell id="hYWeSFwZHZ8aJ64yLIm--146" value="&lt;span style=&quot;font-size: 16px;&quot;&gt;Tempah Servis&lt;/span&gt;" style="text;html=1;align=center;verticalAlign=middle;resizable=0;points=[];autosize=1;strokeColor=none;fillColor=none;" vertex="1" parent="hYWeSFwZHZ8aJ64yLIm--144">
          <mxGeometry x="35" y="46" width="130" height="30" as="geometry" />
        </mxCell>
        <mxCell id="hYWeSFwZHZ8aJ64yLIm--147" value="" style="group" vertex="1" connectable="0" parent="1">
          <mxGeometry x="1030" y="1875" width="205" height="100" as="geometry" />
        </mxCell>
        <mxCell id="hYWeSFwZHZ8aJ64yLIm--148" style="edgeStyle=orthogonalEdgeStyle;rounded=0;orthogonalLoop=1;jettySize=auto;html=1;exitX=1;exitY=0.5;exitDx=0;exitDy=0;" edge="1" parent="hYWeSFwZHZ8aJ64yLIm--147" source="hYWeSFwZHZ8aJ64yLIm--149">
          <mxGeometry relative="1" as="geometry">
            <mxPoint x="300" y="50.529411764705856" as="targetPoint" />
          </mxGeometry>
        </mxCell>
        <mxCell id="hYWeSFwZHZ8aJ64yLIm--149" value="&lt;font style=&quot;font-size: 17px;&quot;&gt;4.0&lt;/font&gt;" style="swimlane;whiteSpace=wrap;html=1;" vertex="1" parent="hYWeSFwZHZ8aJ64yLIm--147">
          <mxGeometry width="200" height="100" as="geometry" />
        </mxCell>
        <mxCell id="hYWeSFwZHZ8aJ64yLIm--150" value="&lt;font style=&quot;font-size: 16px;&quot;&gt;Semak Sejarah Servis&lt;/font&gt;" style="text;html=1;align=center;verticalAlign=middle;resizable=0;points=[];autosize=1;strokeColor=none;fillColor=none;" vertex="1" parent="hYWeSFwZHZ8aJ64yLIm--147">
          <mxGeometry x="10" y="46" width="180" height="30" as="geometry" />
        </mxCell>
        <mxCell id="hYWeSFwZHZ8aJ64yLIm--151" value="" style="group" vertex="1" connectable="0" parent="1">
          <mxGeometry x="1030" y="2024" width="200" height="100" as="geometry" />
        </mxCell>
        <mxCell id="hYWeSFwZHZ8aJ64yLIm--152" style="edgeStyle=orthogonalEdgeStyle;rounded=0;orthogonalLoop=1;jettySize=auto;html=1;exitX=1;exitY=0.5;exitDx=0;exitDy=0;" edge="1" parent="hYWeSFwZHZ8aJ64yLIm--151" source="hYWeSFwZHZ8aJ64yLIm--153">
          <mxGeometry relative="1" as="geometry">
            <mxPoint x="300" y="50.76923076923072" as="targetPoint" />
          </mxGeometry>
        </mxCell>
        <mxCell id="hYWeSFwZHZ8aJ64yLIm--153" value="&lt;font style=&quot;font-size: 17px;&quot;&gt;5.0&lt;/font&gt;" style="swimlane;whiteSpace=wrap;html=1;" vertex="1" parent="hYWeSFwZHZ8aJ64yLIm--151">
          <mxGeometry width="200" height="100" as="geometry" />
        </mxCell>
        <mxCell id="hYWeSFwZHZ8aJ64yLIm--154" value="&lt;span style=&quot;font-size: 16px;&quot;&gt;Dapat Invois&lt;/span&gt;" style="text;html=1;align=center;verticalAlign=middle;resizable=0;points=[];autosize=1;strokeColor=none;fillColor=none;" vertex="1" parent="hYWeSFwZHZ8aJ64yLIm--151">
          <mxGeometry x="45" y="46" width="110" height="30" as="geometry" />
        </mxCell>
        <mxCell id="hYWeSFwZHZ8aJ64yLIm--155" value="" style="group" vertex="1" connectable="0" parent="1">
          <mxGeometry x="1030" y="1584" width="200" height="100" as="geometry" />
        </mxCell>
        <mxCell id="hYWeSFwZHZ8aJ64yLIm--156" value="&lt;font style=&quot;font-size: 17px;&quot;&gt;2.0&lt;/font&gt;" style="swimlane;whiteSpace=wrap;html=1;startSize=23;" vertex="1" parent="hYWeSFwZHZ8aJ64yLIm--155">
          <mxGeometry width="200" height="100" as="geometry" />
        </mxCell>
        <mxCell id="hYWeSFwZHZ8aJ64yLIm--157" value="&lt;span style=&quot;font-size: 16px;&quot;&gt;Semak Status&amp;nbsp;&lt;/span&gt;&lt;div&gt;&lt;span style=&quot;font-size: 16px;&quot;&gt;Kenderaan&lt;/span&gt;&lt;/div&gt;" style="text;html=1;align=center;verticalAlign=middle;resizable=0;points=[];autosize=1;strokeColor=none;fillColor=none;" vertex="1" parent="hYWeSFwZHZ8aJ64yLIm--155">
          <mxGeometry x="35" y="36" width="130" height="50" as="geometry" />
        </mxCell>
        <mxCell id="hYWeSFwZHZ8aJ64yLIm--158" style="edgeStyle=orthogonalEdgeStyle;rounded=0;orthogonalLoop=1;jettySize=auto;html=1;exitX=1;exitY=0.5;exitDx=0;exitDy=0;entryX=-0.003;entryY=0.644;entryDx=0;entryDy=0;entryPerimeter=0;" edge="1" parent="1" source="hYWeSFwZHZ8aJ64yLIm--99" target="hYWeSFwZHZ8aJ64yLIm--143">
          <mxGeometry relative="1" as="geometry" />
        </mxCell>
        <mxCell id="hYWeSFwZHZ8aJ64yLIm--159" style="edgeStyle=orthogonalEdgeStyle;rounded=0;orthogonalLoop=1;jettySize=auto;html=1;entryX=0;entryY=0.5;entryDx=0;entryDy=0;" edge="1" parent="1" source="hYWeSFwZHZ8aJ64yLIm--143" target="hYWeSFwZHZ8aJ64yLIm--110">
          <mxGeometry relative="1" as="geometry" />
        </mxCell>
        <mxCell id="hYWeSFwZHZ8aJ64yLIm--160" value="" style="group" vertex="1" connectable="0" parent="1">
          <mxGeometry x="1855" y="2474" width="205" height="100" as="geometry" />
        </mxCell>
        <mxCell id="hYWeSFwZHZ8aJ64yLIm--161" value="&lt;font style=&quot;font-size: 17px;&quot;&gt;12.0&lt;/font&gt;" style="swimlane;whiteSpace=wrap;html=1;" vertex="1" parent="hYWeSFwZHZ8aJ64yLIm--160">
          <mxGeometry width="200" height="100" as="geometry" />
        </mxCell>
        <mxCell id="hYWeSFwZHZ8aJ64yLIm--162" value="&lt;font style=&quot;font-size: 16px;&quot;&gt;Pengurusan Stok &amp;amp; Bahan&lt;/font&gt;" style="text;html=1;align=center;verticalAlign=middle;resizable=0;points=[];autosize=1;strokeColor=none;fillColor=none;" vertex="1" parent="hYWeSFwZHZ8aJ64yLIm--160">
          <mxGeometry x="-5" y="46" width="210" height="30" as="geometry" />
        </mxCell>
        <mxCell id="hYWeSFwZHZ8aJ64yLIm--163" value="" style="group" vertex="1" connectable="0" parent="1">
          <mxGeometry x="1862.5" y="1874" width="200" height="100" as="geometry" />
        </mxCell>
        <mxCell id="hYWeSFwZHZ8aJ64yLIm--164" value="&lt;font style=&quot;font-size: 17px;&quot;&gt;6.0&lt;/font&gt;" style="swimlane;whiteSpace=wrap;html=1;" vertex="1" parent="hYWeSFwZHZ8aJ64yLIm--163">
          <mxGeometry width="200" height="100" as="geometry" />
        </mxCell>
        <mxCell id="hYWeSFwZHZ8aJ64yLIm--165" value="&lt;font style=&quot;font-size: 16px;&quot;&gt;Rekod Maklumat Servis&lt;/font&gt;" style="text;html=1;align=center;verticalAlign=middle;resizable=0;points=[];autosize=1;strokeColor=none;fillColor=none;" vertex="1" parent="hYWeSFwZHZ8aJ64yLIm--163">
          <mxGeometry x="5" y="46" width="190" height="30" as="geometry" />
        </mxCell>
        <mxCell id="hYWeSFwZHZ8aJ64yLIm--166" value="" style="group" vertex="1" connectable="0" parent="1">
          <mxGeometry x="1862.5" y="1731" width="205" height="100" as="geometry" />
        </mxCell>
        <mxCell id="hYWeSFwZHZ8aJ64yLIm--167" value="&lt;font style=&quot;font-size: 17px;&quot;&gt;7.0&lt;/font&gt;" style="swimlane;whiteSpace=wrap;html=1;" vertex="1" parent="hYWeSFwZHZ8aJ64yLIm--166">
          <mxGeometry width="200" height="100" as="geometry" />
        </mxCell>
        <mxCell id="hYWeSFwZHZ8aJ64yLIm--168" value="&lt;font style=&quot;font-size: 16px;&quot;&gt;Kemas Kini Status Servis&lt;/font&gt;" style="text;html=1;align=center;verticalAlign=middle;resizable=0;points=[];autosize=1;strokeColor=none;fillColor=none;" vertex="1" parent="hYWeSFwZHZ8aJ64yLIm--166">
          <mxGeometry y="46" width="200" height="30" as="geometry" />
        </mxCell>
        <mxCell id="hYWeSFwZHZ8aJ64yLIm--169" value="" style="group" vertex="1" connectable="0" parent="1">
          <mxGeometry x="1860" y="2324" width="200" height="100" as="geometry" />
        </mxCell>
        <mxCell id="hYWeSFwZHZ8aJ64yLIm--170" value="&lt;font style=&quot;font-size: 17px;&quot;&gt;10.0&lt;/font&gt;" style="swimlane;whiteSpace=wrap;html=1;" vertex="1" parent="hYWeSFwZHZ8aJ64yLIm--169">
          <mxGeometry width="200" height="100" as="geometry" />
        </mxCell>
        <mxCell id="hYWeSFwZHZ8aJ64yLIm--171" value="&lt;span style=&quot;font-size: 16px;&quot;&gt;Urus Akaun&amp;nbsp;&lt;/span&gt;&lt;div&gt;&lt;span style=&quot;font-size: 16px;&quot;&gt;Pekerja Bengkel&lt;/span&gt;&lt;/div&gt;" style="text;html=1;align=center;verticalAlign=middle;resizable=0;points=[];autosize=1;strokeColor=none;fillColor=none;" vertex="1" parent="hYWeSFwZHZ8aJ64yLIm--169">
          <mxGeometry x="30" y="36" width="140" height="50" as="geometry" />
        </mxCell>
        <mxCell id="hYWeSFwZHZ8aJ64yLIm--172" value="" style="group" vertex="1" connectable="0" parent="1">
          <mxGeometry x="1860" y="2169" width="205" height="100" as="geometry" />
        </mxCell>
        <mxCell id="hYWeSFwZHZ8aJ64yLIm--173" value="&lt;font style=&quot;font-size: 17px;&quot;&gt;8.0&lt;/font&gt;" style="swimlane;whiteSpace=wrap;html=1;" vertex="1" parent="hYWeSFwZHZ8aJ64yLIm--172">
          <mxGeometry width="200" height="100" as="geometry" />
        </mxCell>
        <mxCell id="hYWeSFwZHZ8aJ64yLIm--174" value="&lt;span style=&quot;font-size: 16px;&quot;&gt;Penjanaan Laporan&amp;nbsp;&lt;/span&gt;&lt;div&gt;&lt;span style=&quot;font-size: 16px;&quot;&gt;Bulanan&lt;/span&gt;&lt;/div&gt;" style="text;html=1;align=center;verticalAlign=middle;resizable=0;points=[];autosize=1;strokeColor=none;fillColor=none;" vertex="1" parent="hYWeSFwZHZ8aJ64yLIm--172">
          <mxGeometry x="15" y="36" width="170" height="50" as="geometry" />
        </mxCell>
        <mxCell id="hYWeSFwZHZ8aJ64yLIm--175" value="" style="group" vertex="1" connectable="0" parent="1">
          <mxGeometry x="1865" y="1574" width="200" height="100" as="geometry" />
        </mxCell>
        <mxCell id="hYWeSFwZHZ8aJ64yLIm--176" value="&lt;font style=&quot;font-size: 17px;&quot;&gt;11.0&lt;/font&gt;" style="swimlane;whiteSpace=wrap;html=1;" vertex="1" parent="hYWeSFwZHZ8aJ64yLIm--175">
          <mxGeometry width="200" height="100" as="geometry" />
        </mxCell>
        <mxCell id="hYWeSFwZHZ8aJ64yLIm--177" value="&lt;font style=&quot;font-size: 16px;&quot;&gt;Urus Data Pelanggan&lt;/font&gt;" style="text;html=1;align=center;verticalAlign=middle;resizable=0;points=[];autosize=1;strokeColor=none;fillColor=none;" vertex="1" parent="hYWeSFwZHZ8aJ64yLIm--175">
          <mxGeometry x="10" y="46" width="180" height="30" as="geometry" />
        </mxCell>
        <mxCell id="hYWeSFwZHZ8aJ64yLIm--178" value="" style="group" vertex="1" connectable="0" parent="1">
          <mxGeometry x="1860" y="2024" width="205" height="100" as="geometry" />
        </mxCell>
        <mxCell id="hYWeSFwZHZ8aJ64yLIm--179" value="&lt;font style=&quot;font-size: 17px;&quot;&gt;9.0&lt;/font&gt;" style="swimlane;whiteSpace=wrap;html=1;" vertex="1" parent="hYWeSFwZHZ8aJ64yLIm--178">
          <mxGeometry width="200" height="100" as="geometry" />
        </mxCell>
        <mxCell id="hYWeSFwZHZ8aJ64yLIm--180" value="&lt;font style=&quot;font-size: 16px;&quot;&gt;Semak Rekod&amp;nbsp;&lt;/font&gt;&lt;div&gt;&lt;font style=&quot;font-size: 16px;&quot;&gt;Pendapatan&lt;/font&gt;&lt;/div&gt;" style="text;html=1;align=center;verticalAlign=middle;resizable=0;points=[];autosize=1;strokeColor=none;fillColor=none;" vertex="1" parent="hYWeSFwZHZ8aJ64yLIm--178">
          <mxGeometry x="35" y="36" width="130" height="50" as="geometry" />
        </mxCell>
        <mxCell id="hYWeSFwZHZ8aJ64yLIm--181" style="edgeStyle=orthogonalEdgeStyle;rounded=0;orthogonalLoop=1;jettySize=auto;html=1;exitX=1;exitY=0.5;exitDx=0;exitDy=0;entryX=0;entryY=0.5;entryDx=0;entryDy=0;" edge="1" parent="1" source="hYWeSFwZHZ8aJ64yLIm--156" target="hYWeSFwZHZ8aJ64yLIm--118">
          <mxGeometry relative="1" as="geometry" />
        </mxCell>
        <mxCell id="hYWeSFwZHZ8aJ64yLIm--182" style="edgeStyle=orthogonalEdgeStyle;rounded=0;orthogonalLoop=1;jettySize=auto;html=1;exitX=1;exitY=0.5;exitDx=0;exitDy=0;entryX=0;entryY=0.5;entryDx=0;entryDy=0;" edge="1" parent="1" source="hYWeSFwZHZ8aJ64yLIm--145" target="hYWeSFwZHZ8aJ64yLIm--114">
          <mxGeometry relative="1" as="geometry">
            <mxPoint x="1330" y="1784" as="targetPoint" />
          </mxGeometry>
        </mxCell>
        <mxCell id="hYWeSFwZHZ8aJ64yLIm--183" style="edgeStyle=orthogonalEdgeStyle;rounded=0;orthogonalLoop=1;jettySize=auto;html=1;entryX=0.5;entryY=1;entryDx=0;entryDy=0;exitX=0;exitY=0.5;exitDx=0;exitDy=0;" edge="1" parent="1" source="hYWeSFwZHZ8aJ64yLIm--164" target="hYWeSFwZHZ8aJ64yLIm--118">
          <mxGeometry relative="1" as="geometry">
            <Array as="points">
              <mxPoint x="1770" y="1924" />
              <mxPoint x="1770" y="1704" />
              <mxPoint x="1474" y="1704" />
            </Array>
          </mxGeometry>
        </mxCell>
        <mxCell id="hYWeSFwZHZ8aJ64yLIm--184" style="edgeStyle=orthogonalEdgeStyle;rounded=0;orthogonalLoop=1;jettySize=auto;html=1;exitX=-0.002;exitY=0.565;exitDx=0;exitDy=0;entryX=1;entryY=0.25;entryDx=0;entryDy=0;exitPerimeter=0;" edge="1" parent="1" source="hYWeSFwZHZ8aJ64yLIm--168" target="hYWeSFwZHZ8aJ64yLIm--118">
          <mxGeometry relative="1" as="geometry">
            <Array as="points">
              <mxPoint x="1800" y="1794" />
              <mxPoint x="1800" y="1616" />
            </Array>
          </mxGeometry>
        </mxCell>
        <mxCell id="hYWeSFwZHZ8aJ64yLIm--185" style="edgeStyle=orthogonalEdgeStyle;rounded=0;orthogonalLoop=1;jettySize=auto;html=1;exitX=0;exitY=0.5;exitDx=0;exitDy=0;entryX=1;entryY=0.5;entryDx=0;entryDy=0;" edge="1" parent="1" source="hYWeSFwZHZ8aJ64yLIm--173" target="hYWeSFwZHZ8aJ64yLIm--138">
          <mxGeometry relative="1" as="geometry" />
        </mxCell>
        <mxCell id="hYWeSFwZHZ8aJ64yLIm--186" style="edgeStyle=orthogonalEdgeStyle;rounded=0;orthogonalLoop=1;jettySize=auto;html=1;exitX=0;exitY=0.5;exitDx=0;exitDy=0;entryX=1;entryY=0.5;entryDx=0;entryDy=0;" edge="1" parent="1" source="hYWeSFwZHZ8aJ64yLIm--179" target="hYWeSFwZHZ8aJ64yLIm--134">
          <mxGeometry relative="1" as="geometry" />
        </mxCell>
        <mxCell id="hYWeSFwZHZ8aJ64yLIm--187" style="edgeStyle=orthogonalEdgeStyle;rounded=0;orthogonalLoop=1;jettySize=auto;html=1;exitX=0;exitY=0.5;exitDx=0;exitDy=0;entryX=1;entryY=0.5;entryDx=0;entryDy=0;" edge="1" parent="1" source="hYWeSFwZHZ8aJ64yLIm--170" target="hYWeSFwZHZ8aJ64yLIm--130">
          <mxGeometry relative="1" as="geometry" />
        </mxCell>
        <mxCell id="hYWeSFwZHZ8aJ64yLIm--188" style="edgeStyle=orthogonalEdgeStyle;rounded=0;orthogonalLoop=1;jettySize=auto;html=1;entryX=1;entryY=0.5;entryDx=0;entryDy=0;" edge="1" parent="1" source="hYWeSFwZHZ8aJ64yLIm--176" target="hYWeSFwZHZ8aJ64yLIm--110">
          <mxGeometry relative="1" as="geometry">
            <Array as="points">
              <mxPoint x="1965" y="1510" />
            </Array>
          </mxGeometry>
        </mxCell>
        <mxCell id="hYWeSFwZHZ8aJ64yLIm--189" style="edgeStyle=orthogonalEdgeStyle;rounded=0;orthogonalLoop=1;jettySize=auto;html=1;exitX=1;exitY=0.75;exitDx=0;exitDy=0;entryX=0;entryY=0.5;entryDx=0;entryDy=0;" edge="1" parent="1" source="hYWeSFwZHZ8aJ64yLIm--193" target="hYWeSFwZHZ8aJ64yLIm--248">
          <mxGeometry relative="1" as="geometry">
            <Array as="points">
              <mxPoint x="1290" y="2801" />
              <mxPoint x="1290" y="2904" />
            </Array>
          </mxGeometry>
        </mxCell>
        <mxCell id="hYWeSFwZHZ8aJ64yLIm--190" style="edgeStyle=orthogonalEdgeStyle;rounded=0;orthogonalLoop=1;jettySize=auto;html=1;exitX=1;exitY=1;exitDx=0;exitDy=0;" edge="1" parent="1" source="hYWeSFwZHZ8aJ64yLIm--193">
          <mxGeometry relative="1" as="geometry">
            <mxPoint x="1367" y="3044" as="targetPoint" />
            <Array as="points">
              <mxPoint x="1270" y="2817" />
              <mxPoint x="1270" y="3044" />
            </Array>
          </mxGeometry>
        </mxCell>
        <mxCell id="hYWeSFwZHZ8aJ64yLIm--191" style="edgeStyle=orthogonalEdgeStyle;rounded=0;orthogonalLoop=1;jettySize=auto;html=1;exitX=0.75;exitY=1;exitDx=0;exitDy=0;entryX=0;entryY=0.5;entryDx=0;entryDy=0;" edge="1" parent="1" source="hYWeSFwZHZ8aJ64yLIm--193" target="hYWeSFwZHZ8aJ64yLIm--242">
          <mxGeometry relative="1" as="geometry">
            <mxPoint x="1450" y="3204" as="targetPoint" />
            <Array as="points">
              <mxPoint x="1202" y="2834" />
              <mxPoint x="1250" y="2834" />
              <mxPoint x="1250" y="3204" />
              <mxPoint x="1370" y="3204" />
            </Array>
          </mxGeometry>
        </mxCell>
        <mxCell id="hYWeSFwZHZ8aJ64yLIm--192" style="edgeStyle=orthogonalEdgeStyle;rounded=0;orthogonalLoop=1;jettySize=auto;html=1;exitX=0.5;exitY=1;exitDx=0;exitDy=0;entryX=0;entryY=0.5;entryDx=0;entryDy=0;" edge="1" parent="1" source="hYWeSFwZHZ8aJ64yLIm--193" target="hYWeSFwZHZ8aJ64yLIm--245">
          <mxGeometry relative="1" as="geometry">
            <Array as="points">
              <mxPoint x="1161" y="2874" />
              <mxPoint x="1220" y="2874" />
              <mxPoint x="1220" y="3344" />
            </Array>
          </mxGeometry>
        </mxCell>
        <mxCell id="hYWeSFwZHZ8aJ64yLIm--193" value="Pelanggan" style="rounded=0;whiteSpace=wrap;html=1;fontSize=17;" vertex="1" parent="1">
          <mxGeometry x="1080" y="2754" width="162" height="63" as="geometry" />
        </mxCell>
        <mxCell id="hYWeSFwZHZ8aJ64yLIm--194" style="edgeStyle=orthogonalEdgeStyle;rounded=0;orthogonalLoop=1;jettySize=auto;html=1;entryX=1;entryY=0.75;entryDx=0;entryDy=0;exitX=0;exitY=0.5;exitDx=0;exitDy=0;" edge="1" parent="1" source="hYWeSFwZHZ8aJ64yLIm--196" target="hYWeSFwZHZ8aJ64yLIm--256">
          <mxGeometry relative="1" as="geometry">
            <Array as="points">
              <mxPoint x="2338" y="3132" />
              <mxPoint x="2338" y="3219" />
            </Array>
          </mxGeometry>
        </mxCell>
        <mxCell id="hYWeSFwZHZ8aJ64yLIm--195" style="edgeStyle=orthogonalEdgeStyle;rounded=0;orthogonalLoop=1;jettySize=auto;html=1;exitX=1;exitY=0.5;exitDx=0;exitDy=0;entryX=0.5;entryY=1;entryDx=0;entryDy=0;" edge="1" parent="1" source="hYWeSFwZHZ8aJ64yLIm--196" target="hYWeSFwZHZ8aJ64yLIm--259">
          <mxGeometry relative="1" as="geometry">
            <mxPoint x="2450" y="3404" as="targetPoint" />
          </mxGeometry>
        </mxCell>
        <mxCell id="hYWeSFwZHZ8aJ64yLIm--196" value="Pekerja" style="rounded=0;whiteSpace=wrap;html=1;fontSize=17;" vertex="1" parent="1">
          <mxGeometry x="2371" y="3101" width="162" height="63" as="geometry" />
        </mxCell>
        <mxCell id="hYWeSFwZHZ8aJ64yLIm--197" style="edgeStyle=orthogonalEdgeStyle;rounded=0;orthogonalLoop=1;jettySize=auto;html=1;entryX=1;entryY=0.5;entryDx=0;entryDy=0;exitX=0.5;exitY=1;exitDx=0;exitDy=0;" edge="1" parent="1" source="hYWeSFwZHZ8aJ64yLIm--202" target="hYWeSFwZHZ8aJ64yLIm--265">
          <mxGeometry relative="1" as="geometry" />
        </mxCell>
        <mxCell id="hYWeSFwZHZ8aJ64yLIm--198" style="edgeStyle=orthogonalEdgeStyle;rounded=0;orthogonalLoop=1;jettySize=auto;html=1;exitX=0;exitY=0.5;exitDx=0;exitDy=0;entryX=1;entryY=0.5;entryDx=0;entryDy=0;" edge="1" parent="1" source="hYWeSFwZHZ8aJ64yLIm--202" target="hYWeSFwZHZ8aJ64yLIm--271">
          <mxGeometry relative="1" as="geometry" />
        </mxCell>
        <mxCell id="hYWeSFwZHZ8aJ64yLIm--199" style="edgeStyle=orthogonalEdgeStyle;rounded=0;orthogonalLoop=1;jettySize=auto;html=1;exitX=0.75;exitY=1;exitDx=0;exitDy=0;entryX=1;entryY=0.75;entryDx=0;entryDy=0;" edge="1" parent="1" source="hYWeSFwZHZ8aJ64yLIm--202" target="hYWeSFwZHZ8aJ64yLIm--262">
          <mxGeometry relative="1" as="geometry" />
        </mxCell>
        <mxCell id="hYWeSFwZHZ8aJ64yLIm--200" style="edgeStyle=orthogonalEdgeStyle;rounded=0;orthogonalLoop=1;jettySize=auto;html=1;entryX=1;entryY=0.5;entryDx=0;entryDy=0;exitX=1;exitY=0.5;exitDx=0;exitDy=0;" edge="1" parent="1" source="hYWeSFwZHZ8aJ64yLIm--202" target="hYWeSFwZHZ8aJ64yLIm--253">
          <mxGeometry relative="1" as="geometry" />
        </mxCell>
        <mxCell id="hYWeSFwZHZ8aJ64yLIm--201" style="edgeStyle=orthogonalEdgeStyle;rounded=0;orthogonalLoop=1;jettySize=auto;html=1;exitX=1;exitY=0.25;exitDx=0;exitDy=0;" edge="1" parent="1" source="hYWeSFwZHZ8aJ64yLIm--202">
          <mxGeometry relative="1" as="geometry">
            <mxPoint x="2292" y="2932" as="targetPoint" />
            <Array as="points">
              <mxPoint x="2615" y="3290" />
              <mxPoint x="2615" y="2894" />
              <mxPoint x="2292" y="2894" />
            </Array>
          </mxGeometry>
        </mxCell>
        <mxCell id="hYWeSFwZHZ8aJ64yLIm--202" value="Admin" style="rounded=0;whiteSpace=wrap;html=1;fontSize=17;" vertex="1" parent="1">
          <mxGeometry x="2371" y="3274" width="162" height="63" as="geometry" />
        </mxCell>
        <mxCell id="hYWeSFwZHZ8aJ64yLIm--203" value="" style="group" vertex="1" connectable="0" parent="1">
          <mxGeometry x="1659" y="2745" width="289" height="70" as="geometry" />
        </mxCell>
        <mxCell id="hYWeSFwZHZ8aJ64yLIm--204" value="&lt;font style=&quot;font-size: 20px;&quot;&gt;&amp;nbsp; &amp;nbsp; &amp;nbsp; &amp;nbsp; &amp;nbsp; &amp;nbsp; Maklumat Pelanggan&lt;/font&gt;" style="rounded=0;whiteSpace=wrap;html=1;" vertex="1" parent="hYWeSFwZHZ8aJ64yLIm--203">
          <mxGeometry width="289" height="70" as="geometry" />
        </mxCell>
        <mxCell id="hYWeSFwZHZ8aJ64yLIm--205" value="" style="endArrow=none;html=1;rounded=0;entryX=0.25;entryY=0;entryDx=0;entryDy=0;exitX=0.25;exitY=1;exitDx=0;exitDy=0;" edge="1" parent="hYWeSFwZHZ8aJ64yLIm--203" source="hYWeSFwZHZ8aJ64yLIm--204" target="hYWeSFwZHZ8aJ64yLIm--204">
          <mxGeometry width="50" height="50" relative="1" as="geometry">
            <mxPoint x="370" y="140" as="sourcePoint" />
            <mxPoint x="420" y="90" as="targetPoint" />
          </mxGeometry>
        </mxCell>
        <mxCell id="hYWeSFwZHZ8aJ64yLIm--206" value="D1" style="text;html=1;align=center;verticalAlign=middle;whiteSpace=wrap;rounded=0;rotation=-90;fontSize=23;fontStyle=1" vertex="1" parent="hYWeSFwZHZ8aJ64yLIm--203">
          <mxGeometry x="10" y="20" width="60" height="30" as="geometry" />
        </mxCell>
        <mxCell id="hYWeSFwZHZ8aJ64yLIm--207" value="" style="group" vertex="1" connectable="0" parent="1">
          <mxGeometry x="1659" y="3009" width="289" height="70" as="geometry" />
        </mxCell>
        <mxCell id="hYWeSFwZHZ8aJ64yLIm--208" value="&lt;font style=&quot;font-size: 20px;&quot;&gt;&amp;nbsp; &amp;nbsp; &amp;nbsp; &amp;nbsp; &amp;nbsp; &amp;nbsp; Maklumat Tempahan&lt;/font&gt;" style="rounded=0;whiteSpace=wrap;html=1;" vertex="1" parent="hYWeSFwZHZ8aJ64yLIm--207">
          <mxGeometry width="289" height="70" as="geometry" />
        </mxCell>
        <mxCell id="hYWeSFwZHZ8aJ64yLIm--209" value="" style="endArrow=none;html=1;rounded=0;entryX=0.25;entryY=0;entryDx=0;entryDy=0;exitX=0.25;exitY=1;exitDx=0;exitDy=0;" edge="1" parent="hYWeSFwZHZ8aJ64yLIm--207" source="hYWeSFwZHZ8aJ64yLIm--208" target="hYWeSFwZHZ8aJ64yLIm--208">
          <mxGeometry width="50" height="50" relative="1" as="geometry">
            <mxPoint x="370" y="140" as="sourcePoint" />
            <mxPoint x="420" y="90" as="targetPoint" />
          </mxGeometry>
        </mxCell>
        <mxCell id="hYWeSFwZHZ8aJ64yLIm--210" value="D3" style="text;html=1;align=center;verticalAlign=middle;whiteSpace=wrap;rounded=0;rotation=-90;fontSize=23;fontStyle=1" vertex="1" parent="hYWeSFwZHZ8aJ64yLIm--207">
          <mxGeometry x="10" y="20" width="60" height="30" as="geometry" />
        </mxCell>
        <mxCell id="hYWeSFwZHZ8aJ64yLIm--211" value="" style="group" vertex="1" connectable="0" parent="1">
          <mxGeometry x="1659" y="2869" width="289" height="70" as="geometry" />
        </mxCell>
        <mxCell id="hYWeSFwZHZ8aJ64yLIm--212" value="&lt;font style=&quot;font-size: 20px;&quot;&gt;&amp;nbsp; &amp;nbsp; &amp;nbsp; &amp;nbsp; &amp;nbsp; Maklumat Servis&lt;/font&gt;" style="rounded=0;whiteSpace=wrap;html=1;" vertex="1" parent="hYWeSFwZHZ8aJ64yLIm--211">
          <mxGeometry width="289" height="70" as="geometry" />
        </mxCell>
        <mxCell id="hYWeSFwZHZ8aJ64yLIm--213" value="" style="endArrow=none;html=1;rounded=0;entryX=0.25;entryY=0;entryDx=0;entryDy=0;exitX=0.25;exitY=1;exitDx=0;exitDy=0;" edge="1" parent="hYWeSFwZHZ8aJ64yLIm--211" source="hYWeSFwZHZ8aJ64yLIm--212" target="hYWeSFwZHZ8aJ64yLIm--212">
          <mxGeometry width="50" height="50" relative="1" as="geometry">
            <mxPoint x="370" y="140" as="sourcePoint" />
            <mxPoint x="420" y="90" as="targetPoint" />
          </mxGeometry>
        </mxCell>
        <mxCell id="hYWeSFwZHZ8aJ64yLIm--214" value="D2" style="text;html=1;align=center;verticalAlign=middle;whiteSpace=wrap;rounded=0;rotation=-90;fontSize=23;fontStyle=1" vertex="1" parent="hYWeSFwZHZ8aJ64yLIm--211">
          <mxGeometry x="10" y="20" width="60" height="30" as="geometry" />
        </mxCell>
        <mxCell id="hYWeSFwZHZ8aJ64yLIm--215" value="" style="group" vertex="1" connectable="0" parent="1">
          <mxGeometry x="1659" y="3160" width="289" height="70" as="geometry" />
        </mxCell>
        <mxCell id="hYWeSFwZHZ8aJ64yLIm--216" value="&lt;font style=&quot;font-size: 20px;&quot;&gt;&amp;nbsp; &amp;nbsp; &amp;nbsp; &amp;nbsp; &amp;nbsp; Maklumat&amp;nbsp;&lt;/font&gt;&lt;div&gt;&lt;font style=&quot;font-size: 20px;&quot;&gt;&amp;nbsp; &amp;nbsp; &amp;nbsp; &amp;nbsp; Laporan Servis&lt;/font&gt;&lt;/div&gt;" style="rounded=0;whiteSpace=wrap;html=1;" vertex="1" parent="hYWeSFwZHZ8aJ64yLIm--215">
          <mxGeometry width="289" height="70" as="geometry" />
        </mxCell>
        <mxCell id="hYWeSFwZHZ8aJ64yLIm--217" value="" style="endArrow=none;html=1;rounded=0;entryX=0.25;entryY=0;entryDx=0;entryDy=0;exitX=0.25;exitY=1;exitDx=0;exitDy=0;" edge="1" parent="hYWeSFwZHZ8aJ64yLIm--215" source="hYWeSFwZHZ8aJ64yLIm--216" target="hYWeSFwZHZ8aJ64yLIm--216">
          <mxGeometry width="50" height="50" relative="1" as="geometry">
            <mxPoint x="370" y="140" as="sourcePoint" />
            <mxPoint x="420" y="90" as="targetPoint" />
          </mxGeometry>
        </mxCell>
        <mxCell id="hYWeSFwZHZ8aJ64yLIm--218" value="D4" style="text;html=1;align=center;verticalAlign=middle;whiteSpace=wrap;rounded=0;rotation=-90;fontSize=23;fontStyle=1" vertex="1" parent="hYWeSFwZHZ8aJ64yLIm--215">
          <mxGeometry x="10" y="20" width="60" height="30" as="geometry" />
        </mxCell>
        <mxCell id="hYWeSFwZHZ8aJ64yLIm--219" value="" style="group" vertex="1" connectable="0" parent="1">
          <mxGeometry x="1659" y="3754" width="289" height="70" as="geometry" />
        </mxCell>
        <mxCell id="hYWeSFwZHZ8aJ64yLIm--220" value="&lt;font style=&quot;font-size: 20px;&quot;&gt;&amp;nbsp; &amp;nbsp; &amp;nbsp; &amp;nbsp; &amp;nbsp; Maklumat Stok&lt;/font&gt;" style="rounded=0;whiteSpace=wrap;html=1;" vertex="1" parent="hYWeSFwZHZ8aJ64yLIm--219">
          <mxGeometry width="289" height="70" as="geometry" />
        </mxCell>
        <mxCell id="hYWeSFwZHZ8aJ64yLIm--221" value="" style="endArrow=none;html=1;rounded=0;entryX=0.25;entryY=0;entryDx=0;entryDy=0;exitX=0.25;exitY=1;exitDx=0;exitDy=0;" edge="1" parent="hYWeSFwZHZ8aJ64yLIm--219" source="hYWeSFwZHZ8aJ64yLIm--220" target="hYWeSFwZHZ8aJ64yLIm--220">
          <mxGeometry width="50" height="50" relative="1" as="geometry">
            <mxPoint x="370" y="140" as="sourcePoint" />
            <mxPoint x="420" y="90" as="targetPoint" />
          </mxGeometry>
        </mxCell>
        <mxCell id="hYWeSFwZHZ8aJ64yLIm--222" value="D8" style="text;html=1;align=center;verticalAlign=middle;whiteSpace=wrap;rounded=0;rotation=-90;fontSize=23;fontStyle=1" vertex="1" parent="hYWeSFwZHZ8aJ64yLIm--219">
          <mxGeometry x="10" y="20" width="60" height="30" as="geometry" />
        </mxCell>
        <mxCell id="hYWeSFwZHZ8aJ64yLIm--223" value="" style="group" vertex="1" connectable="0" parent="1">
          <mxGeometry x="1659" y="3594" width="289" height="70" as="geometry" />
        </mxCell>
        <mxCell id="hYWeSFwZHZ8aJ64yLIm--224" value="&lt;font style=&quot;font-size: 20px;&quot;&gt;&amp;nbsp; &amp;nbsp; &amp;nbsp; &amp;nbsp; &amp;nbsp; &amp;nbsp; Maklumat Pekerja&lt;/font&gt;" style="rounded=0;whiteSpace=wrap;html=1;" vertex="1" parent="hYWeSFwZHZ8aJ64yLIm--223">
          <mxGeometry width="289" height="70" as="geometry" />
        </mxCell>
        <mxCell id="hYWeSFwZHZ8aJ64yLIm--225" value="" style="endArrow=none;html=1;rounded=0;entryX=0.25;entryY=0;entryDx=0;entryDy=0;exitX=0.25;exitY=1;exitDx=0;exitDy=0;" edge="1" parent="hYWeSFwZHZ8aJ64yLIm--223" source="hYWeSFwZHZ8aJ64yLIm--224" target="hYWeSFwZHZ8aJ64yLIm--224">
          <mxGeometry width="50" height="50" relative="1" as="geometry">
            <mxPoint x="370" y="140" as="sourcePoint" />
            <mxPoint x="420" y="90" as="targetPoint" />
          </mxGeometry>
        </mxCell>
        <mxCell id="hYWeSFwZHZ8aJ64yLIm--226" value="D7" style="text;html=1;align=center;verticalAlign=middle;whiteSpace=wrap;rounded=0;rotation=-90;fontSize=23;fontStyle=1" vertex="1" parent="hYWeSFwZHZ8aJ64yLIm--223">
          <mxGeometry x="10" y="20" width="60" height="30" as="geometry" />
        </mxCell>
        <mxCell id="hYWeSFwZHZ8aJ64yLIm--227" value="" style="group" vertex="1" connectable="0" parent="1">
          <mxGeometry x="1659" y="3309" width="289" height="70" as="geometry" />
        </mxCell>
        <mxCell id="hYWeSFwZHZ8aJ64yLIm--228" value="&lt;font style=&quot;font-size: 20px;&quot;&gt;&amp;nbsp; &amp;nbsp; &amp;nbsp; &amp;nbsp; &amp;nbsp; &amp;nbsp; &amp;nbsp;Maklumat Kewangan&lt;/font&gt;" style="rounded=0;whiteSpace=wrap;html=1;" vertex="1" parent="hYWeSFwZHZ8aJ64yLIm--227">
          <mxGeometry width="289" height="70" as="geometry" />
        </mxCell>
        <mxCell id="hYWeSFwZHZ8aJ64yLIm--229" value="" style="endArrow=none;html=1;rounded=0;entryX=0.25;entryY=0;entryDx=0;entryDy=0;exitX=0.25;exitY=1;exitDx=0;exitDy=0;" edge="1" parent="hYWeSFwZHZ8aJ64yLIm--227" source="hYWeSFwZHZ8aJ64yLIm--228" target="hYWeSFwZHZ8aJ64yLIm--228">
          <mxGeometry width="50" height="50" relative="1" as="geometry">
            <mxPoint x="370" y="140" as="sourcePoint" />
            <mxPoint x="420" y="90" as="targetPoint" />
          </mxGeometry>
        </mxCell>
        <mxCell id="hYWeSFwZHZ8aJ64yLIm--230" value="D6" style="text;html=1;align=center;verticalAlign=middle;whiteSpace=wrap;rounded=0;rotation=-90;fontSize=23;fontStyle=1" vertex="1" parent="hYWeSFwZHZ8aJ64yLIm--227">
          <mxGeometry x="10" y="20" width="60" height="30" as="geometry" />
        </mxCell>
        <mxCell id="hYWeSFwZHZ8aJ64yLIm--231" value="" style="group" vertex="1" connectable="0" parent="1">
          <mxGeometry x="1659" y="3454" width="289" height="70" as="geometry" />
        </mxCell>
        <mxCell id="hYWeSFwZHZ8aJ64yLIm--232" value="&lt;font style=&quot;font-size: 20px;&quot;&gt;&amp;nbsp; &amp;nbsp; &amp;nbsp; &amp;nbsp; &amp;nbsp; Jadual Laporan&lt;/font&gt;" style="rounded=0;whiteSpace=wrap;html=1;" vertex="1" parent="hYWeSFwZHZ8aJ64yLIm--231">
          <mxGeometry width="289" height="70" as="geometry" />
        </mxCell>
        <mxCell id="hYWeSFwZHZ8aJ64yLIm--233" value="" style="endArrow=none;html=1;rounded=0;entryX=0.25;entryY=0;entryDx=0;entryDy=0;exitX=0.25;exitY=1;exitDx=0;exitDy=0;" edge="1" parent="hYWeSFwZHZ8aJ64yLIm--231" source="hYWeSFwZHZ8aJ64yLIm--232" target="hYWeSFwZHZ8aJ64yLIm--232">
          <mxGeometry width="50" height="50" relative="1" as="geometry">
            <mxPoint x="370" y="140" as="sourcePoint" />
            <mxPoint x="420" y="90" as="targetPoint" />
          </mxGeometry>
        </mxCell>
        <mxCell id="hYWeSFwZHZ8aJ64yLIm--234" value="D5" style="text;html=1;align=center;verticalAlign=middle;whiteSpace=wrap;rounded=0;rotation=-90;fontSize=23;fontStyle=1" vertex="1" parent="hYWeSFwZHZ8aJ64yLIm--231">
          <mxGeometry x="10" y="20" width="60" height="30" as="geometry" />
        </mxCell>
        <mxCell id="hYWeSFwZHZ8aJ64yLIm--235" value="" style="group" vertex="1" connectable="0" parent="1">
          <mxGeometry x="1369" y="2720" width="200" height="100" as="geometry" />
        </mxCell>
        <mxCell id="hYWeSFwZHZ8aJ64yLIm--236" value="&lt;font style=&quot;font-size: 17px;&quot;&gt;1.0&lt;/font&gt;" style="swimlane;whiteSpace=wrap;html=1;" vertex="1" parent="hYWeSFwZHZ8aJ64yLIm--235">
          <mxGeometry width="200" height="100" as="geometry" />
        </mxCell>
        <mxCell id="hYWeSFwZHZ8aJ64yLIm--237" value="&lt;font style=&quot;font-size: 16px;&quot;&gt;Pendaftaran Pelanggan&lt;/font&gt;" style="text;html=1;align=center;verticalAlign=middle;resizable=0;points=[];autosize=1;strokeColor=none;fillColor=none;" vertex="1" parent="hYWeSFwZHZ8aJ64yLIm--235">
          <mxGeometry x="5" y="46" width="190" height="30" as="geometry" />
        </mxCell>
        <mxCell id="hYWeSFwZHZ8aJ64yLIm--238" value="" style="group" vertex="1" connectable="0" parent="1">
          <mxGeometry x="1370" y="2994" width="200" height="100" as="geometry" />
        </mxCell>
        <mxCell id="hYWeSFwZHZ8aJ64yLIm--239" value="&lt;font style=&quot;font-size: 17px;&quot;&gt;3.0&lt;/font&gt;" style="swimlane;whiteSpace=wrap;html=1;" vertex="1" parent="hYWeSFwZHZ8aJ64yLIm--238">
          <mxGeometry width="200" height="100" as="geometry" />
        </mxCell>
        <mxCell id="hYWeSFwZHZ8aJ64yLIm--240" value="&lt;span style=&quot;font-size: 16px;&quot;&gt;Tempah Servis&lt;/span&gt;" style="text;html=1;align=center;verticalAlign=middle;resizable=0;points=[];autosize=1;strokeColor=none;fillColor=none;" vertex="1" parent="hYWeSFwZHZ8aJ64yLIm--238">
          <mxGeometry x="35" y="46" width="130" height="30" as="geometry" />
        </mxCell>
        <mxCell id="hYWeSFwZHZ8aJ64yLIm--241" value="" style="group" vertex="1" connectable="0" parent="1">
          <mxGeometry x="1370" y="3145" width="205" height="100" as="geometry" />
        </mxCell>
        <mxCell id="hYWeSFwZHZ8aJ64yLIm--242" value="&lt;font style=&quot;font-size: 17px;&quot;&gt;4.0&lt;/font&gt;" style="swimlane;whiteSpace=wrap;html=1;" vertex="1" parent="hYWeSFwZHZ8aJ64yLIm--241">
          <mxGeometry width="200" height="100" as="geometry" />
        </mxCell>
        <mxCell id="hYWeSFwZHZ8aJ64yLIm--243" value="&lt;font style=&quot;font-size: 16px;&quot;&gt;Semak Sejarah Servis&lt;/font&gt;" style="text;html=1;align=center;verticalAlign=middle;resizable=0;points=[];autosize=1;strokeColor=none;fillColor=none;" vertex="1" parent="hYWeSFwZHZ8aJ64yLIm--241">
          <mxGeometry x="10" y="46" width="180" height="30" as="geometry" />
        </mxCell>
        <mxCell id="hYWeSFwZHZ8aJ64yLIm--244" value="" style="group" vertex="1" connectable="0" parent="1">
          <mxGeometry x="1370" y="3294" width="200" height="100" as="geometry" />
        </mxCell>
        <mxCell id="hYWeSFwZHZ8aJ64yLIm--245" value="&lt;font style=&quot;font-size: 17px;&quot;&gt;5.0&lt;/font&gt;" style="swimlane;whiteSpace=wrap;html=1;" vertex="1" parent="hYWeSFwZHZ8aJ64yLIm--244">
          <mxGeometry width="200" height="100" as="geometry" />
        </mxCell>
        <mxCell id="hYWeSFwZHZ8aJ64yLIm--246" value="&lt;span style=&quot;font-size: 16px;&quot;&gt;Dapat Invois&lt;/span&gt;" style="text;html=1;align=center;verticalAlign=middle;resizable=0;points=[];autosize=1;strokeColor=none;fillColor=none;" vertex="1" parent="hYWeSFwZHZ8aJ64yLIm--244">
          <mxGeometry x="45" y="46" width="110" height="30" as="geometry" />
        </mxCell>
        <mxCell id="hYWeSFwZHZ8aJ64yLIm--247" value="" style="group" vertex="1" connectable="0" parent="1">
          <mxGeometry x="1370" y="2854" width="200" height="100" as="geometry" />
        </mxCell>
        <mxCell id="hYWeSFwZHZ8aJ64yLIm--248" value="&lt;font style=&quot;font-size: 17px;&quot;&gt;2.0&lt;/font&gt;" style="swimlane;whiteSpace=wrap;html=1;startSize=23;" vertex="1" parent="hYWeSFwZHZ8aJ64yLIm--247">
          <mxGeometry width="200" height="100" as="geometry" />
        </mxCell>
        <mxCell id="hYWeSFwZHZ8aJ64yLIm--249" value="&lt;span style=&quot;font-size: 16px;&quot;&gt;Semak Status&amp;nbsp;&lt;/span&gt;&lt;div&gt;&lt;span style=&quot;font-size: 16px;&quot;&gt;Kenderaan&lt;/span&gt;&lt;/div&gt;" style="text;html=1;align=center;verticalAlign=middle;resizable=0;points=[];autosize=1;strokeColor=none;fillColor=none;" vertex="1" parent="hYWeSFwZHZ8aJ64yLIm--247">
          <mxGeometry x="35" y="36" width="130" height="50" as="geometry" />
        </mxCell>
        <mxCell id="hYWeSFwZHZ8aJ64yLIm--250" style="edgeStyle=orthogonalEdgeStyle;rounded=0;orthogonalLoop=1;jettySize=auto;html=1;exitX=1;exitY=0.5;exitDx=0;exitDy=0;entryX=-0.003;entryY=0.644;entryDx=0;entryDy=0;entryPerimeter=0;" edge="1" parent="1" source="hYWeSFwZHZ8aJ64yLIm--193" target="hYWeSFwZHZ8aJ64yLIm--237">
          <mxGeometry relative="1" as="geometry" />
        </mxCell>
        <mxCell id="hYWeSFwZHZ8aJ64yLIm--251" style="edgeStyle=orthogonalEdgeStyle;rounded=0;orthogonalLoop=1;jettySize=auto;html=1;entryX=0;entryY=0.5;entryDx=0;entryDy=0;" edge="1" parent="1" source="hYWeSFwZHZ8aJ64yLIm--237" target="hYWeSFwZHZ8aJ64yLIm--204">
          <mxGeometry relative="1" as="geometry" />
        </mxCell>
        <mxCell id="hYWeSFwZHZ8aJ64yLIm--252" value="" style="group" vertex="1" connectable="0" parent="1">
          <mxGeometry x="2090.5" y="3744" width="205" height="100" as="geometry" />
        </mxCell>
        <mxCell id="hYWeSFwZHZ8aJ64yLIm--253" value="&lt;font style=&quot;font-size: 17px;&quot;&gt;12.0&lt;/font&gt;" style="swimlane;whiteSpace=wrap;html=1;" vertex="1" parent="hYWeSFwZHZ8aJ64yLIm--252">
          <mxGeometry width="200" height="100" as="geometry" />
        </mxCell>
        <mxCell id="hYWeSFwZHZ8aJ64yLIm--254" value="&lt;font style=&quot;font-size: 16px;&quot;&gt;Pengurusan Stok &amp;amp; Bahan&lt;/font&gt;" style="text;html=1;align=center;verticalAlign=middle;resizable=0;points=[];autosize=1;strokeColor=none;fillColor=none;" vertex="1" parent="hYWeSFwZHZ8aJ64yLIm--252">
          <mxGeometry x="-5" y="46" width="210" height="30" as="geometry" />
        </mxCell>
        <mxCell id="hYWeSFwZHZ8aJ64yLIm--255" value="" style="group" vertex="1" connectable="0" parent="1">
          <mxGeometry x="2090.5" y="3144" width="200" height="100" as="geometry" />
        </mxCell>
        <mxCell id="hYWeSFwZHZ8aJ64yLIm--256" value="&lt;font style=&quot;font-size: 17px;&quot;&gt;6.0&lt;/font&gt;" style="swimlane;whiteSpace=wrap;html=1;" vertex="1" parent="hYWeSFwZHZ8aJ64yLIm--255">
          <mxGeometry width="200" height="100" as="geometry" />
        </mxCell>
        <mxCell id="hYWeSFwZHZ8aJ64yLIm--257" value="&lt;font style=&quot;font-size: 16px;&quot;&gt;Rekod Maklumat Servis&lt;/font&gt;" style="text;html=1;align=center;verticalAlign=middle;resizable=0;points=[];autosize=1;strokeColor=none;fillColor=none;" vertex="1" parent="hYWeSFwZHZ8aJ64yLIm--255">
          <mxGeometry x="5" y="46" width="190" height="30" as="geometry" />
        </mxCell>
        <mxCell id="hYWeSFwZHZ8aJ64yLIm--258" value="" style="group" vertex="1" connectable="0" parent="1">
          <mxGeometry x="2090.5" y="3001" width="205" height="100" as="geometry" />
        </mxCell>
        <mxCell id="hYWeSFwZHZ8aJ64yLIm--259" value="&lt;font style=&quot;font-size: 17px;&quot;&gt;7.0&lt;/font&gt;" style="swimlane;whiteSpace=wrap;html=1;" vertex="1" parent="hYWeSFwZHZ8aJ64yLIm--258">
          <mxGeometry width="200" height="100" as="geometry" />
        </mxCell>
        <mxCell id="hYWeSFwZHZ8aJ64yLIm--260" value="&lt;font style=&quot;font-size: 16px;&quot;&gt;Kemas Kini Status Servis&lt;/font&gt;" style="text;html=1;align=center;verticalAlign=middle;resizable=0;points=[];autosize=1;strokeColor=none;fillColor=none;" vertex="1" parent="hYWeSFwZHZ8aJ64yLIm--258">
          <mxGeometry y="46" width="200" height="30" as="geometry" />
        </mxCell>
        <mxCell id="hYWeSFwZHZ8aJ64yLIm--261" value="" style="group" vertex="1" connectable="0" parent="1">
          <mxGeometry x="2088" y="3594" width="200" height="100" as="geometry" />
        </mxCell>
        <mxCell id="hYWeSFwZHZ8aJ64yLIm--262" value="&lt;font style=&quot;font-size: 17px;&quot;&gt;10.0&lt;/font&gt;" style="swimlane;whiteSpace=wrap;html=1;" vertex="1" parent="hYWeSFwZHZ8aJ64yLIm--261">
          <mxGeometry width="200" height="100" as="geometry" />
        </mxCell>
        <mxCell id="hYWeSFwZHZ8aJ64yLIm--263" value="&lt;span style=&quot;font-size: 16px;&quot;&gt;Urus Akaun&amp;nbsp;&lt;/span&gt;&lt;div&gt;&lt;span style=&quot;font-size: 16px;&quot;&gt;Pekerja Bengkel&lt;/span&gt;&lt;/div&gt;" style="text;html=1;align=center;verticalAlign=middle;resizable=0;points=[];autosize=1;strokeColor=none;fillColor=none;" vertex="1" parent="hYWeSFwZHZ8aJ64yLIm--261">
          <mxGeometry x="30" y="36" width="140" height="50" as="geometry" />
        </mxCell>
        <mxCell id="hYWeSFwZHZ8aJ64yLIm--264" value="" style="group" vertex="1" connectable="0" parent="1">
          <mxGeometry x="2088" y="3439" width="205" height="100" as="geometry" />
        </mxCell>
        <mxCell id="hYWeSFwZHZ8aJ64yLIm--265" value="&lt;font style=&quot;font-size: 17px;&quot;&gt;8.0&lt;/font&gt;" style="swimlane;whiteSpace=wrap;html=1;" vertex="1" parent="hYWeSFwZHZ8aJ64yLIm--264">
          <mxGeometry width="200" height="100" as="geometry" />
        </mxCell>
        <mxCell id="hYWeSFwZHZ8aJ64yLIm--266" value="&lt;span style=&quot;font-size: 16px;&quot;&gt;Penjanaan Laporan&amp;nbsp;&lt;/span&gt;&lt;div&gt;&lt;span style=&quot;font-size: 16px;&quot;&gt;Bulanan&lt;/span&gt;&lt;/div&gt;" style="text;html=1;align=center;verticalAlign=middle;resizable=0;points=[];autosize=1;strokeColor=none;fillColor=none;" vertex="1" parent="hYWeSFwZHZ8aJ64yLIm--264">
          <mxGeometry x="15" y="36" width="170" height="50" as="geometry" />
        </mxCell>
        <mxCell id="hYWeSFwZHZ8aJ64yLIm--267" value="" style="group" vertex="1" connectable="0" parent="1">
          <mxGeometry x="2093" y="2844" width="200" height="100" as="geometry" />
        </mxCell>
        <mxCell id="hYWeSFwZHZ8aJ64yLIm--268" value="&lt;font style=&quot;font-size: 17px;&quot;&gt;11.0&lt;/font&gt;" style="swimlane;whiteSpace=wrap;html=1;" vertex="1" parent="hYWeSFwZHZ8aJ64yLIm--267">
          <mxGeometry width="200" height="100" as="geometry" />
        </mxCell>
        <mxCell id="hYWeSFwZHZ8aJ64yLIm--269" value="&lt;font style=&quot;font-size: 16px;&quot;&gt;Urus Data Pelanggan&lt;/font&gt;" style="text;html=1;align=center;verticalAlign=middle;resizable=0;points=[];autosize=1;strokeColor=none;fillColor=none;" vertex="1" parent="hYWeSFwZHZ8aJ64yLIm--267">
          <mxGeometry x="10" y="46" width="180" height="30" as="geometry" />
        </mxCell>
        <mxCell id="hYWeSFwZHZ8aJ64yLIm--270" value="" style="group" vertex="1" connectable="0" parent="1">
          <mxGeometry x="2088" y="3294" width="205" height="100" as="geometry" />
        </mxCell>
        <mxCell id="hYWeSFwZHZ8aJ64yLIm--271" value="&lt;font style=&quot;font-size: 17px;&quot;&gt;9.0&lt;/font&gt;" style="swimlane;whiteSpace=wrap;html=1;" vertex="1" parent="hYWeSFwZHZ8aJ64yLIm--270">
          <mxGeometry width="200" height="100" as="geometry" />
        </mxCell>
        <mxCell id="hYWeSFwZHZ8aJ64yLIm--272" value="&lt;font style=&quot;font-size: 16px;&quot;&gt;Semak Rekod&amp;nbsp;&lt;/font&gt;&lt;div&gt;&lt;font style=&quot;font-size: 16px;&quot;&gt;Pendapatan&lt;/font&gt;&lt;/div&gt;" style="text;html=1;align=center;verticalAlign=middle;resizable=0;points=[];autosize=1;strokeColor=none;fillColor=none;" vertex="1" parent="hYWeSFwZHZ8aJ64yLIm--270">
          <mxGeometry x="35" y="36" width="130" height="50" as="geometry" />
        </mxCell>
        <mxCell id="hYWeSFwZHZ8aJ64yLIm--273" style="edgeStyle=orthogonalEdgeStyle;rounded=0;orthogonalLoop=1;jettySize=auto;html=1;exitX=1;exitY=0.5;exitDx=0;exitDy=0;entryX=0;entryY=0.5;entryDx=0;entryDy=0;" edge="1" parent="1" source="hYWeSFwZHZ8aJ64yLIm--248" target="hYWeSFwZHZ8aJ64yLIm--212">
          <mxGeometry relative="1" as="geometry" />
        </mxCell>
        <mxCell id="hYWeSFwZHZ8aJ64yLIm--274" style="edgeStyle=orthogonalEdgeStyle;rounded=0;orthogonalLoop=1;jettySize=auto;html=1;exitX=1;exitY=0.5;exitDx=0;exitDy=0;entryX=0;entryY=0.5;entryDx=0;entryDy=0;" edge="1" parent="1" source="hYWeSFwZHZ8aJ64yLIm--239" target="hYWeSFwZHZ8aJ64yLIm--208">
          <mxGeometry relative="1" as="geometry">
            <mxPoint x="1750" y="3054" as="targetPoint" />
          </mxGeometry>
        </mxCell>
        <mxCell id="hYWeSFwZHZ8aJ64yLIm--275" style="edgeStyle=orthogonalEdgeStyle;rounded=0;orthogonalLoop=1;jettySize=auto;html=1;entryX=0.5;entryY=1;entryDx=0;entryDy=0;exitX=0;exitY=0.5;exitDx=0;exitDy=0;" edge="1" parent="1" source="hYWeSFwZHZ8aJ64yLIm--256" target="hYWeSFwZHZ8aJ64yLIm--212">
          <mxGeometry relative="1" as="geometry">
            <Array as="points">
              <mxPoint x="2001" y="3194" />
              <mxPoint x="2001" y="2974" />
              <mxPoint x="1804" y="2974" />
            </Array>
          </mxGeometry>
        </mxCell>
        <mxCell id="hYWeSFwZHZ8aJ64yLIm--276" style="edgeStyle=orthogonalEdgeStyle;rounded=0;orthogonalLoop=1;jettySize=auto;html=1;exitX=-0.002;exitY=0.565;exitDx=0;exitDy=0;entryX=1;entryY=0.25;entryDx=0;entryDy=0;exitPerimeter=0;" edge="1" parent="1" source="hYWeSFwZHZ8aJ64yLIm--260" target="hYWeSFwZHZ8aJ64yLIm--212">
          <mxGeometry relative="1" as="geometry">
            <Array as="points">
              <mxPoint x="2035" y="3064" />
              <mxPoint x="2035" y="2886" />
            </Array>
          </mxGeometry>
        </mxCell>
        <mxCell id="hYWeSFwZHZ8aJ64yLIm--277" style="edgeStyle=orthogonalEdgeStyle;rounded=0;orthogonalLoop=1;jettySize=auto;html=1;exitX=0;exitY=0.5;exitDx=0;exitDy=0;entryX=1;entryY=0.5;entryDx=0;entryDy=0;" edge="1" parent="1" source="hYWeSFwZHZ8aJ64yLIm--265" target="hYWeSFwZHZ8aJ64yLIm--232">
          <mxGeometry relative="1" as="geometry" />
        </mxCell>
        <mxCell id="hYWeSFwZHZ8aJ64yLIm--278" style="edgeStyle=orthogonalEdgeStyle;rounded=0;orthogonalLoop=1;jettySize=auto;html=1;exitX=0;exitY=0.5;exitDx=0;exitDy=0;entryX=1;entryY=0.5;entryDx=0;entryDy=0;" edge="1" parent="1" source="hYWeSFwZHZ8aJ64yLIm--271" target="hYWeSFwZHZ8aJ64yLIm--228">
          <mxGeometry relative="1" as="geometry" />
        </mxCell>
        <mxCell id="hYWeSFwZHZ8aJ64yLIm--279" style="edgeStyle=orthogonalEdgeStyle;rounded=0;orthogonalLoop=1;jettySize=auto;html=1;exitX=0;exitY=0.5;exitDx=0;exitDy=0;entryX=1;entryY=0.5;entryDx=0;entryDy=0;" edge="1" parent="1" source="hYWeSFwZHZ8aJ64yLIm--262" target="hYWeSFwZHZ8aJ64yLIm--224">
          <mxGeometry relative="1" as="geometry" />
        </mxCell>
        <mxCell id="hYWeSFwZHZ8aJ64yLIm--280" style="edgeStyle=orthogonalEdgeStyle;rounded=0;orthogonalLoop=1;jettySize=auto;html=1;entryX=1;entryY=0.5;entryDx=0;entryDy=0;" edge="1" parent="1" source="hYWeSFwZHZ8aJ64yLIm--268" target="hYWeSFwZHZ8aJ64yLIm--204">
          <mxGeometry relative="1" as="geometry">
            <Array as="points">
              <mxPoint x="2385" y="2780" />
            </Array>
          </mxGeometry>
        </mxCell>
        <mxCell id="hYWeSFwZHZ8aJ64yLIm--281" style="edgeStyle=orthogonalEdgeStyle;rounded=0;orthogonalLoop=1;jettySize=auto;html=1;exitX=1;exitY=0.5;exitDx=0;exitDy=0;entryX=0;entryY=0.5;entryDx=0;entryDy=0;" edge="1" parent="1" source="hYWeSFwZHZ8aJ64yLIm--242" target="hYWeSFwZHZ8aJ64yLIm--216">
          <mxGeometry relative="1" as="geometry">
            <mxPoint x="1670" y="3195.529411764706" as="targetPoint" />
          </mxGeometry>
        </mxCell>
        <mxCell id="hYWeSFwZHZ8aJ64yLIm--282" style="edgeStyle=orthogonalEdgeStyle;rounded=0;orthogonalLoop=1;jettySize=auto;html=1;exitX=1;exitY=0.5;exitDx=0;exitDy=0;entryX=0;entryY=0.5;entryDx=0;entryDy=0;" edge="1" parent="1" source="hYWeSFwZHZ8aJ64yLIm--245" target="hYWeSFwZHZ8aJ64yLIm--228">
          <mxGeometry relative="1" as="geometry">
            <mxPoint x="1670" y="3344.7692307692305" as="targetPoint" />
          </mxGeometry>
        </mxCell>
        <mxCell id="hYWeSFwZHZ8aJ64yLIm--283" style="edgeStyle=orthogonalEdgeStyle;rounded=0;orthogonalLoop=1;jettySize=auto;html=1;entryX=1;entryY=0.5;entryDx=0;entryDy=0;" edge="1" parent="1" source="hYWeSFwZHZ8aJ64yLIm--254" target="hYWeSFwZHZ8aJ64yLIm--220">
          <mxGeometry relative="1" as="geometry" />
        </mxCell>
      </root>
    </mxGraphModel>
  </diagram>
</mxfile>
